<svg width="975" height="179" viewBox="0 0 975 179" fill="none" xmlns="http://www.w3.org/2000/svg">
<g id="top">
<rect id="Rectangle 70" width="894" height="179" fill="white"/>
<path id="European Alliances before World War I" d="M25.543 65.9785H10.918V75.8809H28.082V82H3.30078V45.0312H28.0312V51.2012H10.918V60.0117H25.543V65.9785ZM48.0645 79.207C46.2533 81.4076 43.748 82.5078 40.5488 82.5078C37.6035 82.5078 35.3522 81.6615 33.7949 79.9688C32.2546 78.276 31.4674 75.7962 31.4336 72.5293V54.5273H38.7715V72.2754C38.7715 75.1361 40.0749 76.5664 42.6816 76.5664C45.1699 76.5664 46.8796 75.7031 47.8105 73.9766V54.5273H55.1738V82H48.2676L48.0645 79.207ZM76.1465 61.4082C75.1478 61.2728 74.2676 61.2051 73.5059 61.2051C70.7298 61.2051 68.9102 62.1445 68.0469 64.0234V82H60.709V54.5273H67.6406L67.8438 57.8027C69.3164 55.2806 71.3561 54.0195 73.9629 54.0195C74.7754 54.0195 75.5371 54.1296 76.248 54.3496L76.1465 61.4082ZM77.6445 68.0098C77.6445 65.2845 78.1693 62.8555 79.2188 60.7227C80.2682 58.5898 81.7747 56.9395 83.7383 55.7715C85.7188 54.6035 88.0124 54.0195 90.6191 54.0195C94.3262 54.0195 97.3477 55.1536 99.6836 57.4219C102.036 59.6901 103.348 62.7708 103.619 66.6641L103.67 68.543C103.67 72.7578 102.493 76.1432 100.141 78.6992C97.7878 81.2383 94.6309 82.5078 90.6699 82.5078C86.709 82.5078 83.5436 81.2383 81.1738 78.6992C78.821 76.1602 77.6445 72.707 77.6445 68.3398V68.0098ZM84.9824 68.543C84.9824 71.1497 85.4733 73.1471 86.4551 74.5352C87.4368 75.9062 88.8418 76.5918 90.6699 76.5918C92.4473 76.5918 93.8353 75.9147 94.834 74.5605C95.8327 73.1895 96.332 71.0059 96.332 68.0098C96.332 65.4538 95.8327 63.4733 94.834 62.0684C93.8353 60.6634 92.4303 59.9609 90.6191 59.9609C88.8249 59.9609 87.4368 60.6634 86.4551 62.0684C85.4733 63.4564 84.9824 65.6146 84.9824 68.543ZM132.92 68.5176C132.92 72.7493 131.955 76.1432 130.025 78.6992C128.113 81.2383 125.523 82.5078 122.256 82.5078C119.48 82.5078 117.237 81.543 115.527 79.6133V92.5625H108.189V54.5273H114.994L115.248 57.2188C117.025 55.0859 119.344 54.0195 122.205 54.0195C125.59 54.0195 128.223 55.2721 130.102 57.7773C131.98 60.2826 132.92 63.7357 132.92 68.1367V68.5176ZM125.582 67.9844C125.582 65.4284 125.125 63.4564 124.211 62.0684C123.314 60.6803 122.002 59.9863 120.275 59.9863C117.973 59.9863 116.391 60.8665 115.527 62.627V73.875C116.424 75.6862 118.024 76.5918 120.326 76.5918C123.83 76.5918 125.582 73.7227 125.582 67.9844ZM150.135 82.5078C146.106 82.5078 142.822 81.2721 140.283 78.8008C137.761 76.3294 136.5 73.0371 136.5 68.9238V68.2129C136.5 65.4538 137.033 62.9909 138.1 60.8242C139.166 58.6406 140.673 56.9648 142.619 55.7969C144.583 54.612 146.817 54.0195 149.322 54.0195C153.08 54.0195 156.034 55.2044 158.184 57.5742C160.35 59.944 161.434 63.304 161.434 67.6543V70.6504H143.939C144.176 72.4447 144.887 73.8835 146.072 74.9668C147.274 76.0501 148.789 76.5918 150.617 76.5918C153.444 76.5918 155.653 75.5677 157.244 73.5195L160.85 77.5566C159.749 79.1139 158.26 80.3327 156.381 81.2129C154.502 82.0762 152.42 82.5078 150.135 82.5078ZM149.297 59.9609C147.841 59.9609 146.656 60.4518 145.742 61.4336C144.845 62.4154 144.27 63.8203 144.016 65.6484H154.223V65.0645C154.189 63.4395 153.749 62.1868 152.902 61.3066C152.056 60.4095 150.854 59.9609 149.297 59.9609ZM181.543 82C181.204 81.3398 180.959 80.5189 180.807 79.5371C179.029 81.5176 176.719 82.5078 173.875 82.5078C171.184 82.5078 168.949 81.7292 167.172 80.1719C165.411 78.6146 164.531 76.651 164.531 74.2812C164.531 71.3698 165.606 69.1354 167.756 67.5781C169.923 66.0208 173.046 65.2337 177.125 65.2168H180.502V63.6426C180.502 62.373 180.172 61.3574 179.512 60.5957C178.868 59.834 177.844 59.4531 176.439 59.4531C175.204 59.4531 174.23 59.7493 173.52 60.3418C172.826 60.9342 172.479 61.7467 172.479 62.7793H165.141C165.141 61.1882 165.632 59.7155 166.613 58.3613C167.595 57.0072 168.983 55.9492 170.777 55.1875C172.572 54.4089 174.586 54.0195 176.82 54.0195C180.206 54.0195 182.889 54.8743 184.869 56.584C186.867 58.2767 187.865 60.6634 187.865 63.7441V75.6523C187.882 78.2591 188.246 80.2311 188.957 81.5684V82H181.543ZM175.475 76.8965C176.558 76.8965 177.557 76.6595 178.471 76.1855C179.385 75.6947 180.062 75.043 180.502 74.2305V69.5078H177.76C174.087 69.5078 172.132 70.7773 171.895 73.3164L171.869 73.748C171.869 74.6621 172.191 75.4154 172.834 76.0078C173.477 76.6003 174.357 76.8965 175.475 76.8965ZM200.256 54.5273L200.484 57.7012C202.448 55.2467 205.08 54.0195 208.381 54.0195C211.292 54.0195 213.459 54.8743 214.881 56.584C216.303 58.2936 217.031 60.8496 217.064 64.252V82H209.727V64.4297C209.727 62.8724 209.388 61.7467 208.711 61.0527C208.034 60.3418 206.908 59.9863 205.334 59.9863C203.269 59.9863 201.72 60.8665 200.688 62.627V82H193.35V54.5273H200.256ZM256.953 74.3828H243.598L241.059 82H232.959L246.721 45.0312H253.779L267.617 82H259.518L256.953 74.3828ZM245.654 68.2129H254.896L250.25 54.375L245.654 68.2129ZM278.332 82H270.969V43H278.332V82ZM292.145 82H284.781V43H292.145V82ZM305.957 82H298.594V54.5273H305.957V82ZM298.162 47.418C298.162 46.3177 298.526 45.4121 299.254 44.7012C299.999 43.9902 301.006 43.6348 302.275 43.6348C303.528 43.6348 304.527 43.9902 305.271 44.7012C306.016 45.4121 306.389 46.3177 306.389 47.418C306.389 48.5352 306.008 49.4492 305.246 50.1602C304.501 50.8711 303.511 51.2266 302.275 51.2266C301.04 51.2266 300.041 50.8711 299.279 50.1602C298.535 49.4492 298.162 48.5352 298.162 47.418ZM327.945 82C327.607 81.3398 327.361 80.5189 327.209 79.5371C325.432 81.5176 323.121 82.5078 320.277 82.5078C317.586 82.5078 315.352 81.7292 313.574 80.1719C311.814 78.6146 310.934 76.651 310.934 74.2812C310.934 71.3698 312.008 69.1354 314.158 67.5781C316.325 66.0208 319.448 65.2337 323.527 65.2168H326.904V63.6426C326.904 62.373 326.574 61.3574 325.914 60.5957C325.271 59.834 324.247 59.4531 322.842 59.4531C321.606 59.4531 320.633 59.7493 319.922 60.3418C319.228 60.9342 318.881 61.7467 318.881 62.7793H311.543C311.543 61.1882 312.034 59.7155 313.016 58.3613C313.997 57.0072 315.385 55.9492 317.18 55.1875C318.974 54.4089 320.988 54.0195 323.223 54.0195C326.608 54.0195 329.291 54.8743 331.271 56.584C333.269 58.2767 334.268 60.6634 334.268 63.7441V75.6523C334.285 78.2591 334.648 80.2311 335.359 81.5684V82H327.945ZM321.877 76.8965C322.96 76.8965 323.959 76.6595 324.873 76.1855C325.787 75.6947 326.464 75.043 326.904 74.2305V69.5078H324.162C320.489 69.5078 318.534 70.7773 318.297 73.3164L318.271 73.748C318.271 74.6621 318.593 75.4154 319.236 76.0078C319.88 76.6003 320.76 76.8965 321.877 76.8965ZM346.658 54.5273L346.887 57.7012C348.85 55.2467 351.482 54.0195 354.783 54.0195C357.695 54.0195 359.861 54.8743 361.283 56.584C362.705 58.2936 363.433 60.8496 363.467 64.252V82H356.129V64.4297C356.129 62.8724 355.79 61.7467 355.113 61.0527C354.436 60.3418 353.311 59.9863 351.736 59.9863C349.671 59.9863 348.122 60.8665 347.09 62.627V82H339.752V54.5273H346.658ZM380.479 76.5918C381.833 76.5918 382.933 76.2194 383.779 75.4746C384.626 74.7298 385.066 73.7396 385.1 72.5039H391.98C391.964 74.3659 391.456 76.0755 390.457 77.6328C389.458 79.1732 388.087 80.375 386.344 81.2383C384.617 82.0846 382.704 82.5078 380.605 82.5078C376.678 82.5078 373.581 81.2637 371.312 78.7754C369.044 76.2702 367.91 72.8171 367.91 68.416V67.9336C367.91 63.7018 369.036 60.3249 371.287 57.8027C373.538 55.2806 376.628 54.0195 380.555 54.0195C383.991 54.0195 386.742 55.0013 388.807 56.9648C390.889 58.9115 391.947 61.5098 391.98 64.7598H385.1C385.066 63.3379 384.626 62.1868 383.779 61.3066C382.933 60.4095 381.816 59.9609 380.428 59.9609C378.718 59.9609 377.423 60.5872 376.543 61.8398C375.68 63.0755 375.248 65.0898 375.248 67.8828V68.6445C375.248 71.4714 375.68 73.5026 376.543 74.7383C377.406 75.974 378.718 76.5918 380.479 76.5918ZM408.814 82.5078C404.786 82.5078 401.502 81.2721 398.963 78.8008C396.441 76.3294 395.18 73.0371 395.18 68.9238V68.2129C395.18 65.4538 395.713 62.9909 396.779 60.8242C397.846 58.6406 399.352 56.9648 401.299 55.7969C403.262 54.612 405.497 54.0195 408.002 54.0195C411.76 54.0195 414.714 55.2044 416.863 57.5742C419.03 59.944 420.113 63.304 420.113 67.6543V70.6504H402.619C402.856 72.4447 403.567 73.8835 404.752 74.9668C405.954 76.0501 407.469 76.5918 409.297 76.5918C412.124 76.5918 414.333 75.5677 415.924 73.5195L419.529 77.5566C418.429 79.1139 416.939 80.3327 415.061 81.2129C413.182 82.0762 411.1 82.5078 408.814 82.5078ZM407.977 59.9609C406.521 59.9609 405.336 60.4518 404.422 61.4336C403.525 62.4154 402.949 63.8203 402.695 65.6484H412.902V65.0645C412.868 63.4395 412.428 62.1868 411.582 61.3066C410.736 60.4095 409.534 59.9609 407.977 59.9609ZM439.182 74.4082C439.182 73.5111 438.733 72.8086 437.836 72.3008C436.956 71.776 435.534 71.3105 433.57 70.9043C427.036 69.5332 423.77 66.7572 423.77 62.5762C423.77 60.1387 424.777 58.1074 426.791 56.4824C428.822 54.8405 431.471 54.0195 434.738 54.0195C438.225 54.0195 441.01 54.8405 443.092 56.4824C445.191 58.1243 446.24 60.2572 446.24 62.8809H438.902C438.902 61.8314 438.564 60.9681 437.887 60.291C437.21 59.597 436.152 59.25 434.713 59.25C433.477 59.25 432.521 59.5293 431.844 60.0879C431.167 60.6465 430.828 61.3574 430.828 62.2207C430.828 63.0332 431.209 63.6934 431.971 64.2012C432.749 64.6921 434.053 65.1237 435.881 65.4961C437.709 65.8516 439.249 66.2578 440.502 66.7148C444.378 68.1367 446.316 70.5996 446.316 74.1035C446.316 76.6087 445.242 78.64 443.092 80.1973C440.942 81.7376 438.166 82.5078 434.764 82.5078C432.462 82.5078 430.413 82.1016 428.619 81.2891C426.842 80.4596 425.445 79.334 424.43 77.9121C423.414 76.4733 422.906 74.9245 422.906 73.2656H429.863C429.931 74.569 430.413 75.5677 431.311 76.2617C432.208 76.9557 433.41 77.3027 434.916 77.3027C436.321 77.3027 437.379 77.0404 438.09 76.5156C438.818 75.974 439.182 75.2715 439.182 74.4082ZM488.77 68.5176C488.77 72.9186 487.83 76.3548 485.951 78.8262C484.072 81.2806 481.449 82.5078 478.08 82.5078C475.101 82.5078 472.723 81.3652 470.945 79.0801L470.615 82H464.014V43H471.352V56.9902C473.044 55.0098 475.27 54.0195 478.029 54.0195C481.381 54.0195 484.005 55.2552 485.9 57.7266C487.813 60.181 488.77 63.6426 488.77 68.1113V68.5176ZM481.432 67.9844C481.432 65.2083 480.992 63.1855 480.111 61.916C479.231 60.6296 477.919 59.9863 476.176 59.9863C473.84 59.9863 472.232 60.9427 471.352 62.8555V73.6973C472.249 75.627 473.874 76.5918 476.227 76.5918C478.596 76.5918 480.154 75.4238 480.898 73.0879C481.254 71.9707 481.432 70.2695 481.432 67.9844ZM505.959 82.5078C501.93 82.5078 498.646 81.2721 496.107 78.8008C493.585 76.3294 492.324 73.0371 492.324 68.9238V68.2129C492.324 65.4538 492.857 62.9909 493.924 60.8242C494.99 58.6406 496.497 56.9648 498.443 55.7969C500.407 54.612 502.641 54.0195 505.146 54.0195C508.904 54.0195 511.858 55.2044 514.008 57.5742C516.174 59.944 517.258 63.304 517.258 67.6543V70.6504H499.764C500.001 72.4447 500.712 73.8835 501.896 74.9668C503.098 76.0501 504.613 76.5918 506.441 76.5918C509.268 76.5918 511.477 75.5677 513.068 73.5195L516.674 77.5566C515.574 79.1139 514.084 80.3327 512.205 81.2129C510.326 82.0762 508.244 82.5078 505.959 82.5078ZM505.121 59.9609C503.665 59.9609 502.48 60.4518 501.566 61.4336C500.669 62.4154 500.094 63.8203 499.84 65.6484H510.047V65.0645C510.013 63.4395 509.573 62.1868 508.727 61.3066C507.88 60.4095 506.678 59.9609 505.121 59.9609ZM523.453 82V59.9102H519.365V54.5273H523.453V52.1914C523.453 49.1107 524.333 46.724 526.094 45.0312C527.871 43.3216 530.351 42.4668 533.533 42.4668C534.549 42.4668 535.793 42.6361 537.266 42.9746L537.189 48.6621C536.58 48.5098 535.835 48.4336 534.955 48.4336C532.196 48.4336 530.816 49.7285 530.816 52.3184V54.5273H536.275V59.9102H530.816V82H523.453ZM538.941 68.0098C538.941 65.2845 539.466 62.8555 540.516 60.7227C541.565 58.5898 543.072 56.9395 545.035 55.7715C547.016 54.6035 549.309 54.0195 551.916 54.0195C555.623 54.0195 558.645 55.1536 560.98 57.4219C563.333 59.6901 564.645 62.7708 564.916 66.6641L564.967 68.543C564.967 72.7578 563.79 76.1432 561.438 78.6992C559.085 81.2383 555.928 82.5078 551.967 82.5078C548.006 82.5078 544.84 81.2383 542.471 78.6992C540.118 76.1602 538.941 72.707 538.941 68.3398V68.0098ZM546.279 68.543C546.279 71.1497 546.77 73.1471 547.752 74.5352C548.734 75.9062 550.139 76.5918 551.967 76.5918C553.744 76.5918 555.132 75.9147 556.131 74.5605C557.13 73.1895 557.629 71.0059 557.629 68.0098C557.629 65.4538 557.13 63.4733 556.131 62.0684C555.132 60.6634 553.727 59.9609 551.916 59.9609C550.122 59.9609 548.734 60.6634 547.752 62.0684C546.77 63.4564 546.279 65.6146 546.279 68.543ZM584.924 61.4082C583.925 61.2728 583.045 61.2051 582.283 61.2051C579.507 61.2051 577.688 62.1445 576.824 64.0234V82H569.486V54.5273H576.418L576.621 57.8027C578.094 55.2806 580.133 54.0195 582.74 54.0195C583.553 54.0195 584.314 54.1296 585.025 54.3496L584.924 61.4082ZM600.615 82.5078C596.587 82.5078 593.303 81.2721 590.764 78.8008C588.242 76.3294 586.98 73.0371 586.98 68.9238V68.2129C586.98 65.4538 587.514 62.9909 588.58 60.8242C589.646 58.6406 591.153 56.9648 593.1 55.7969C595.063 54.612 597.298 54.0195 599.803 54.0195C603.561 54.0195 606.514 55.2044 608.664 57.5742C610.831 59.944 611.914 63.304 611.914 67.6543V70.6504H594.42C594.657 72.4447 595.368 73.8835 596.553 74.9668C597.755 76.0501 599.27 76.5918 601.098 76.5918C603.924 76.5918 606.133 75.5677 607.725 73.5195L611.33 77.5566C610.23 79.1139 608.74 80.3327 606.861 81.2129C604.982 82.0762 602.9 82.5078 600.615 82.5078ZM599.777 59.9609C598.322 59.9609 597.137 60.4518 596.223 61.4336C595.326 62.4154 594.75 63.8203 594.496 65.6484H604.703V65.0645C604.669 63.4395 604.229 62.1868 603.383 61.3066C602.536 60.4095 601.335 59.9609 599.777 59.9609ZM658.328 71.3359L663.305 45.0312H670.896L662.695 82H655.027L649.01 57.2695L642.992 82H635.324L627.123 45.0312H634.715L639.717 71.2852L645.811 45.0312H652.26L658.328 71.3359ZM672.598 68.0098C672.598 65.2845 673.122 62.8555 674.172 60.7227C675.221 58.5898 676.728 56.9395 678.691 55.7715C680.672 54.6035 682.965 54.0195 685.572 54.0195C689.279 54.0195 692.301 55.1536 694.637 57.4219C696.99 59.6901 698.301 62.7708 698.572 66.6641L698.623 68.543C698.623 72.7578 697.447 76.1432 695.094 78.6992C692.741 81.2383 689.584 82.5078 685.623 82.5078C681.662 82.5078 678.497 81.2383 676.127 78.6992C673.774 76.1602 672.598 72.707 672.598 68.3398V68.0098ZM679.936 68.543C679.936 71.1497 680.426 73.1471 681.408 74.5352C682.39 75.9062 683.795 76.5918 685.623 76.5918C687.4 76.5918 688.788 75.9147 689.787 74.5605C690.786 73.1895 691.285 71.0059 691.285 68.0098C691.285 65.4538 690.786 63.4733 689.787 62.0684C688.788 60.6634 687.383 59.9609 685.572 59.9609C683.778 59.9609 682.39 60.6634 681.408 62.0684C680.426 63.4564 679.936 65.6146 679.936 68.543ZM718.58 61.4082C717.581 61.2728 716.701 61.2051 715.939 61.2051C713.163 61.2051 711.344 62.1445 710.48 64.0234V82H703.143V54.5273H710.074L710.277 57.8027C711.75 55.2806 713.79 54.0195 716.396 54.0195C717.209 54.0195 717.971 54.1296 718.682 54.3496L718.58 61.4082ZM729.879 82H722.516V43H729.879V82ZM734.805 68.0605C734.805 63.778 735.761 60.3672 737.674 57.8281C739.604 55.2891 742.236 54.0195 745.57 54.0195C748.245 54.0195 750.454 55.0182 752.197 57.0156V43H759.561V82H752.934L752.578 79.0801C750.75 81.3652 748.397 82.5078 745.52 82.5078C742.286 82.5078 739.688 81.2383 737.725 78.6992C735.778 76.1432 734.805 72.597 734.805 68.0605ZM742.143 68.5938C742.143 71.1667 742.591 73.1387 743.488 74.5098C744.385 75.8809 745.689 76.5664 747.398 76.5664C749.667 76.5664 751.266 75.61 752.197 73.6973V62.8555C751.283 60.9427 749.701 59.9863 747.449 59.9863C743.911 59.9863 742.143 62.8555 742.143 68.5938ZM807.473 71.3359L812.449 45.0312H820.041L811.84 82H804.172L798.154 57.2695L792.137 82H784.469L776.268 45.0312H783.859L788.861 71.2852L794.955 45.0312H801.404L807.473 71.3359ZM838.754 82C838.415 81.3398 838.17 80.5189 838.018 79.5371C836.24 81.5176 833.93 82.5078 831.086 82.5078C828.395 82.5078 826.16 81.7292 824.383 80.1719C822.622 78.6146 821.742 76.651 821.742 74.2812C821.742 71.3698 822.817 69.1354 824.967 67.5781C827.133 66.0208 830.257 65.2337 834.336 65.2168H837.713V63.6426C837.713 62.373 837.383 61.3574 836.723 60.5957C836.079 59.834 835.055 59.4531 833.65 59.4531C832.415 59.4531 831.441 59.7493 830.73 60.3418C830.036 60.9342 829.689 61.7467 829.689 62.7793H822.352C822.352 61.1882 822.842 59.7155 823.824 58.3613C824.806 57.0072 826.194 55.9492 827.988 55.1875C829.783 54.4089 831.797 54.0195 834.031 54.0195C837.417 54.0195 840.1 54.8743 842.08 56.584C844.077 58.2767 845.076 60.6634 845.076 63.7441V75.6523C845.093 78.2591 845.457 80.2311 846.168 81.5684V82H838.754ZM832.686 76.8965C833.769 76.8965 834.768 76.6595 835.682 76.1855C836.596 75.6947 837.273 75.043 837.713 74.2305V69.5078H834.971C831.298 69.5078 829.342 70.7773 829.105 73.3164L829.08 73.748C829.08 74.6621 829.402 75.4154 830.045 76.0078C830.688 76.6003 831.568 76.8965 832.686 76.8965ZM866.15 61.4082C865.152 61.2728 864.271 61.2051 863.51 61.2051C860.734 61.2051 858.914 62.1445 858.051 64.0234V82H850.713V54.5273H857.645L857.848 57.8027C859.32 55.2806 861.36 54.0195 863.967 54.0195C864.779 54.0195 865.541 54.1296 866.252 54.3496L866.15 61.4082ZM891.236 82H883.619V45.0312H891.236V82Z" fill="black"/>
<g id="Group 35">
<rect id="Rectangle 57" x="748" y="121" width="11" height="11" fill="#E5E5E5" stroke="#52A1FF" stroke-width="2"/>
<rect id="Rectangle 59" x="748" y="136" width="11" height="11" fill="#E5E5E5" stroke="#52A1FF" stroke-width="2"/>
<rect id="Rectangle 58" x="763" y="121" width="11" height="11" fill="#E5E5E5" stroke="#52A1FF" stroke-width="2"/>
<rect id="Rectangle 60" x="763" y="136" width="11" height="11" fill="#E5E5E5" stroke="#52A1FF" stroke-width="2"/>
<path id="text" d="M734.453 154.547L734.492 155.484C735.112 154.755 735.948 154.391 737 154.391C738.182 154.391 738.987 154.844 739.414 155.75C739.695 155.344 740.06 155.016 740.508 154.766C740.961 154.516 741.495 154.391 742.109 154.391C743.964 154.391 744.906 155.372 744.938 157.336V163H743.492V157.422C743.492 156.818 743.354 156.367 743.078 156.07C742.802 155.768 742.339 155.617 741.688 155.617C741.151 155.617 740.706 155.779 740.352 156.102C739.997 156.419 739.792 156.849 739.734 157.391V163H738.281V157.461C738.281 156.232 737.68 155.617 736.477 155.617C735.529 155.617 734.88 156.021 734.531 156.828V163H733.086V154.547H734.453ZM750.633 163.156C749.487 163.156 748.555 162.781 747.836 162.031C747.117 161.276 746.758 160.268 746.758 159.008V158.742C746.758 157.904 746.917 157.156 747.234 156.5C747.557 155.839 748.005 155.323 748.578 154.953C749.156 154.578 749.781 154.391 750.453 154.391C751.552 154.391 752.406 154.753 753.016 155.477C753.625 156.201 753.93 157.237 753.93 158.586V159.188H748.203C748.224 160.021 748.466 160.695 748.93 161.211C749.398 161.721 749.992 161.977 750.711 161.977C751.221 161.977 751.654 161.872 752.008 161.664C752.362 161.456 752.672 161.18 752.938 160.836L753.82 161.523C753.112 162.612 752.049 163.156 750.633 163.156ZM750.453 155.578C749.87 155.578 749.38 155.792 748.984 156.219C748.589 156.641 748.344 157.234 748.25 158H752.484V157.891C752.443 157.156 752.245 156.589 751.891 156.188C751.536 155.781 751.057 155.578 750.453 155.578ZM755.258 158.703C755.258 157.406 755.565 156.365 756.18 155.578C756.794 154.786 757.599 154.391 758.594 154.391C759.583 154.391 760.367 154.729 760.945 155.406V151H762.391V163H761.062L760.992 162.094C760.414 162.802 759.609 163.156 758.578 163.156C757.599 163.156 756.799 162.755 756.18 161.953C755.565 161.151 755.258 160.104 755.258 158.812V158.703ZM756.703 158.867C756.703 159.826 756.901 160.576 757.297 161.117C757.693 161.659 758.24 161.93 758.938 161.93C759.854 161.93 760.523 161.518 760.945 160.695V156.812C760.513 156.016 759.849 155.617 758.953 155.617C758.245 155.617 757.693 155.891 757.297 156.438C756.901 156.984 756.703 157.794 756.703 158.867ZM766.211 163H764.766V154.547H766.211V163ZM764.648 152.305C764.648 152.07 764.719 151.872 764.859 151.711C765.005 151.549 765.219 151.469 765.5 151.469C765.781 151.469 765.995 151.549 766.141 151.711C766.286 151.872 766.359 152.07 766.359 152.305C766.359 152.539 766.286 152.734 766.141 152.891C765.995 153.047 765.781 153.125 765.5 153.125C765.219 153.125 765.005 153.047 764.859 152.891C764.719 152.734 764.648 152.539 764.648 152.305ZM773.75 162.164C773.188 162.826 772.362 163.156 771.273 163.156C770.372 163.156 769.685 162.896 769.211 162.375C768.742 161.849 768.505 161.073 768.5 160.047V154.547H769.945V160.008C769.945 161.289 770.466 161.93 771.508 161.93C772.612 161.93 773.346 161.518 773.711 160.695V154.547H775.156V163H773.781L773.75 162.164ZM778.719 154.547L778.758 155.484C779.378 154.755 780.214 154.391 781.266 154.391C782.448 154.391 783.253 154.844 783.68 155.75C783.961 155.344 784.326 155.016 784.773 154.766C785.227 154.516 785.76 154.391 786.375 154.391C788.229 154.391 789.172 155.372 789.203 157.336V163H787.758V157.422C787.758 156.818 787.62 156.367 787.344 156.07C787.068 155.768 786.604 155.617 785.953 155.617C785.417 155.617 784.971 155.779 784.617 156.102C784.263 156.419 784.057 156.849 784 157.391V163H782.547V157.461C782.547 156.232 781.945 155.617 780.742 155.617C779.794 155.617 779.146 156.021 778.797 156.828V163H777.352V154.547H778.719Z" fill="#52A1FF"/>
</g>
<circle id="Ellipse 45" cx="12.5" cy="139.5" r="4.5" fill="#52A1FF"/>
<circle id="Ellipse 46" cx="197.5" cy="139.5" r="4.5" fill="#52A1FF"/>
<circle id="Ellipse 48" cx="331.5" cy="139.5" r="4.5" fill="#52A1FF"/>
<circle id="Ellipse 50" cx="507.5" cy="139.5" r="4.5" fill="#52A1FF"/>
<path id="1837" d="M3.14648 158H2.83008L4.23633 149.885L1.71094 150.781L1.75781 150.441L4.53516 149.445H4.61133L3.14648 158ZM12.5625 151.637C12.4844 152.102 12.2793 152.51 11.9473 152.861C11.6152 153.209 11.1914 153.469 10.6758 153.641C11.168 153.805 11.543 154.08 11.8008 154.467C12.0625 154.85 12.1562 155.287 12.082 155.779C11.9727 156.479 11.6367 157.043 11.0742 157.473C10.5117 157.902 9.84375 158.117 9.07031 158.117C8.57422 158.117 8.13672 158.02 7.75781 157.824C7.38281 157.625 7.10938 157.35 6.9375 156.998C6.76562 156.643 6.71875 156.236 6.79688 155.779C6.88281 155.271 7.10938 154.832 7.47656 154.461C7.84375 154.086 8.32422 153.809 8.91797 153.629C8.48438 153.461 8.16211 153.197 7.95117 152.838C7.74414 152.479 7.67578 152.078 7.74609 151.637C7.85156 150.969 8.16211 150.422 8.67773 149.996C9.19336 149.566 9.80273 149.352 10.5059 149.352C10.9473 149.352 11.3398 149.451 11.6836 149.65C12.0312 149.846 12.2812 150.119 12.4336 150.471C12.5898 150.818 12.6328 151.207 12.5625 151.637ZM11.7539 155.809C11.8242 155.434 11.7852 155.094 11.6367 154.789C11.4922 154.484 11.2539 154.242 10.9219 154.062C10.5898 153.883 10.2188 153.793 9.80859 153.793C9.15234 153.793 8.56445 153.98 8.04492 154.355C7.5293 154.73 7.2168 155.215 7.10742 155.809C7.00195 156.398 7.13477 156.879 7.50586 157.25C7.88086 157.617 8.40039 157.801 9.06445 157.801C9.73633 157.801 10.3242 157.617 10.8281 157.25C11.3359 156.879 11.6445 156.398 11.7539 155.809ZM12.252 151.607C12.3496 151.064 12.2246 150.605 11.877 150.23C11.5293 149.855 11.0742 149.668 10.5117 149.668C9.90625 149.668 9.37305 149.852 8.91211 150.219C8.45508 150.582 8.17383 151.045 8.06836 151.607C7.9668 152.146 8.08398 152.594 8.41992 152.949C8.75977 153.301 9.2207 153.477 9.80273 153.477C10.3965 153.477 10.9258 153.303 11.3906 152.955C11.8594 152.607 12.1465 152.158 12.252 151.607ZM15.4043 153.488H15.9258C16.6016 153.488 17.1836 153.322 17.6719 152.99C18.1602 152.654 18.4551 152.205 18.5566 151.643C18.6582 151.064 18.5508 150.592 18.2344 150.225C17.918 149.854 17.4629 149.668 16.8691 149.668C16.2598 149.668 15.7266 149.855 15.2695 150.23C14.8164 150.602 14.5254 151.094 14.3965 151.707L14.0801 151.701C14.2012 151.006 14.5234 150.441 15.0469 150.008C15.5703 149.57 16.1777 149.352 16.8691 149.352C17.5488 149.352 18.0781 149.568 18.457 150.002C18.8359 150.432 18.9746 150.986 18.873 151.666C18.8105 152.107 18.6172 152.502 18.293 152.85C17.9727 153.197 17.5469 153.461 17.0156 153.641C17.5195 153.781 17.8984 154.039 18.1523 154.414C18.4102 154.785 18.5 155.227 18.4219 155.738C18.3164 156.438 18.002 157.01 17.4785 157.455C16.9551 157.896 16.3301 158.117 15.6035 158.117C15.123 158.117 14.6934 158.012 14.3145 157.801C13.9395 157.59 13.6602 157.293 13.4766 156.91C13.293 156.523 13.2285 156.096 13.2832 155.627H13.5996C13.5176 156.244 13.668 156.762 14.0508 157.18C14.4336 157.594 14.9492 157.801 15.5977 157.801C16.25 157.801 16.8027 157.615 17.2559 157.244C17.7129 156.873 17.9941 156.379 18.0996 155.762C18.2012 155.145 18.0586 154.666 17.6719 154.326C17.2891 153.986 16.7012 153.816 15.9082 153.816H15.3633L15.4043 153.488ZM25.7812 149.668L20.8477 158H20.5195L25.3945 149.785H20.4727L20.5137 149.469H25.8047L25.7812 149.668Z" fill="black"/>
<path id="1879" d="M187.146 158H186.83L188.236 149.885L185.711 150.781L185.758 150.441L188.535 149.445H188.611L187.146 158ZM196.562 151.637C196.484 152.102 196.279 152.51 195.947 152.861C195.615 153.209 195.191 153.469 194.676 153.641C195.168 153.805 195.543 154.08 195.801 154.467C196.062 154.85 196.156 155.287 196.082 155.779C195.973 156.479 195.637 157.043 195.074 157.473C194.512 157.902 193.844 158.117 193.07 158.117C192.574 158.117 192.137 158.02 191.758 157.824C191.383 157.625 191.109 157.35 190.938 156.998C190.766 156.643 190.719 156.236 190.797 155.779C190.883 155.271 191.109 154.832 191.477 154.461C191.844 154.086 192.324 153.809 192.918 153.629C192.484 153.461 192.162 153.197 191.951 152.838C191.744 152.479 191.676 152.078 191.746 151.637C191.852 150.969 192.162 150.422 192.678 149.996C193.193 149.566 193.803 149.352 194.506 149.352C194.947 149.352 195.34 149.451 195.684 149.65C196.031 149.846 196.281 150.119 196.434 150.471C196.59 150.818 196.633 151.207 196.562 151.637ZM195.754 155.809C195.824 155.434 195.785 155.094 195.637 154.789C195.492 154.484 195.254 154.242 194.922 154.062C194.59 153.883 194.219 153.793 193.809 153.793C193.152 153.793 192.564 153.98 192.045 154.355C191.529 154.73 191.217 155.215 191.107 155.809C191.002 156.398 191.135 156.879 191.506 157.25C191.881 157.617 192.4 157.801 193.064 157.801C193.736 157.801 194.324 157.617 194.828 157.25C195.336 156.879 195.645 156.398 195.754 155.809ZM196.252 151.607C196.35 151.064 196.225 150.605 195.877 150.23C195.529 149.855 195.074 149.668 194.512 149.668C193.906 149.668 193.373 149.852 192.912 150.219C192.455 150.582 192.174 151.045 192.068 151.607C191.967 152.146 192.084 152.594 192.42 152.949C192.76 153.301 193.221 153.477 193.803 153.477C194.396 153.477 194.926 153.303 195.391 152.955C195.859 152.607 196.146 152.158 196.252 151.607ZM203.348 149.668L198.414 158H198.086L202.961 149.785H198.039L198.08 149.469H203.371L203.348 149.668ZM208.797 153.799L208.803 153.752C208.506 154.225 208.129 154.594 207.672 154.859C207.219 155.125 206.732 155.258 206.213 155.258C205.646 155.258 205.182 155.057 204.818 154.654C204.455 154.252 204.254 153.723 204.215 153.066C204.176 152.496 204.291 151.908 204.561 151.303C204.83 150.693 205.189 150.219 205.639 149.879C206.092 149.535 206.59 149.359 207.133 149.352C207.605 149.352 208.006 149.453 208.334 149.656C208.666 149.859 208.914 150.16 209.078 150.559C209.242 150.953 209.324 151.398 209.324 151.895C209.316 152.328 209.236 152.973 209.084 153.828C208.838 155.188 208.336 156.238 207.578 156.98C206.82 157.723 205.869 158.102 204.725 158.117H204.467L204.514 157.801H204.654C205.721 157.801 206.609 157.461 207.32 156.781C208.035 156.098 208.527 155.104 208.797 153.799ZM206.213 154.941C206.775 154.941 207.322 154.76 207.854 154.396C208.385 154.029 208.729 153.59 208.885 153.078C208.959 152.621 209 152.264 209.008 152.006C209.023 151.549 208.961 151.137 208.82 150.77C208.684 150.398 208.475 150.123 208.193 149.943C207.912 149.76 207.566 149.668 207.156 149.668C206.66 149.676 206.207 149.844 205.797 150.172C205.387 150.5 205.061 150.947 204.818 151.514C204.607 152.01 204.51 152.496 204.525 152.973C204.537 153.551 204.695 154.023 205 154.391C205.309 154.758 205.713 154.941 206.213 154.941Z" fill="black"/>
<path id="1873" d="M146.146 158H145.83L147.236 149.885L144.711 150.781L144.758 150.441L147.535 149.445H147.611L146.146 158ZM155.562 151.637C155.484 152.102 155.279 152.51 154.947 152.861C154.615 153.209 154.191 153.469 153.676 153.641C154.168 153.805 154.543 154.08 154.801 154.467C155.062 154.85 155.156 155.287 155.082 155.779C154.973 156.479 154.637 157.043 154.074 157.473C153.512 157.902 152.844 158.117 152.07 158.117C151.574 158.117 151.137 158.02 150.758 157.824C150.383 157.625 150.109 157.35 149.938 156.998C149.766 156.643 149.719 156.236 149.797 155.779C149.883 155.271 150.109 154.832 150.477 154.461C150.844 154.086 151.324 153.809 151.918 153.629C151.484 153.461 151.162 153.197 150.951 152.838C150.744 152.479 150.676 152.078 150.746 151.637C150.852 150.969 151.162 150.422 151.678 149.996C152.193 149.566 152.803 149.352 153.506 149.352C153.947 149.352 154.34 149.451 154.684 149.65C155.031 149.846 155.281 150.119 155.434 150.471C155.59 150.818 155.633 151.207 155.562 151.637ZM154.754 155.809C154.824 155.434 154.785 155.094 154.637 154.789C154.492 154.484 154.254 154.242 153.922 154.062C153.59 153.883 153.219 153.793 152.809 153.793C152.152 153.793 151.564 153.98 151.045 154.355C150.529 154.73 150.217 155.215 150.107 155.809C150.002 156.398 150.135 156.879 150.506 157.25C150.881 157.617 151.4 157.801 152.064 157.801C152.736 157.801 153.324 157.617 153.828 157.25C154.336 156.879 154.645 156.398 154.754 155.809ZM155.252 151.607C155.35 151.064 155.225 150.605 154.877 150.23C154.529 149.855 154.074 149.668 153.512 149.668C152.906 149.668 152.373 149.852 151.912 150.219C151.455 150.582 151.174 151.045 151.068 151.607C150.967 152.146 151.084 152.594 151.42 152.949C151.76 153.301 152.221 153.477 152.803 153.477C153.396 153.477 153.926 153.303 154.391 152.955C154.859 152.607 155.146 152.158 155.252 151.607ZM162.348 149.668L157.414 158H157.086L161.961 149.785H157.039L157.08 149.469H162.371L162.348 149.668ZM164.838 153.488H165.359C166.035 153.488 166.617 153.322 167.105 152.99C167.594 152.654 167.889 152.205 167.99 151.643C168.092 151.064 167.984 150.592 167.668 150.225C167.352 149.854 166.896 149.668 166.303 149.668C165.693 149.668 165.16 149.855 164.703 150.23C164.25 150.602 163.959 151.094 163.83 151.707L163.514 151.701C163.635 151.006 163.957 150.441 164.48 150.008C165.004 149.57 165.611 149.352 166.303 149.352C166.982 149.352 167.512 149.568 167.891 150.002C168.27 150.432 168.408 150.986 168.307 151.666C168.244 152.107 168.051 152.502 167.727 152.85C167.406 153.197 166.98 153.461 166.449 153.641C166.953 153.781 167.332 154.039 167.586 154.414C167.844 154.785 167.934 155.227 167.855 155.738C167.75 156.438 167.436 157.01 166.912 157.455C166.389 157.896 165.764 158.117 165.037 158.117C164.557 158.117 164.127 158.012 163.748 157.801C163.373 157.59 163.094 157.293 162.91 156.91C162.727 156.523 162.662 156.096 162.717 155.627H163.033C162.951 156.244 163.102 156.762 163.484 157.18C163.867 157.594 164.383 157.801 165.031 157.801C165.684 157.801 166.236 157.615 166.689 157.244C167.146 156.873 167.428 156.379 167.533 155.762C167.635 155.145 167.492 154.666 167.105 154.326C166.723 153.986 166.135 153.816 165.342 153.816H164.797L164.838 153.488Z" fill="black"/>
<path id="1894" d="M322.146 158H321.83L323.236 149.885L320.711 150.781L320.758 150.441L323.535 149.445H323.611L322.146 158ZM331.562 151.637C331.484 152.102 331.279 152.51 330.947 152.861C330.615 153.209 330.191 153.469 329.676 153.641C330.168 153.805 330.543 154.08 330.801 154.467C331.062 154.85 331.156 155.287 331.082 155.779C330.973 156.479 330.637 157.043 330.074 157.473C329.512 157.902 328.844 158.117 328.07 158.117C327.574 158.117 327.137 158.02 326.758 157.824C326.383 157.625 326.109 157.35 325.938 156.998C325.766 156.643 325.719 156.236 325.797 155.779C325.883 155.271 326.109 154.832 326.477 154.461C326.844 154.086 327.324 153.809 327.918 153.629C327.484 153.461 327.162 153.197 326.951 152.838C326.744 152.479 326.676 152.078 326.746 151.637C326.852 150.969 327.162 150.422 327.678 149.996C328.193 149.566 328.803 149.352 329.506 149.352C329.947 149.352 330.34 149.451 330.684 149.65C331.031 149.846 331.281 150.119 331.434 150.471C331.59 150.818 331.633 151.207 331.562 151.637ZM330.754 155.809C330.824 155.434 330.785 155.094 330.637 154.789C330.492 154.484 330.254 154.242 329.922 154.062C329.59 153.883 329.219 153.793 328.809 153.793C328.152 153.793 327.564 153.98 327.045 154.355C326.529 154.73 326.217 155.215 326.107 155.809C326.002 156.398 326.135 156.879 326.506 157.25C326.881 157.617 327.4 157.801 328.064 157.801C328.736 157.801 329.324 157.617 329.828 157.25C330.336 156.879 330.645 156.398 330.754 155.809ZM331.252 151.607C331.35 151.064 331.225 150.605 330.877 150.23C330.529 149.855 330.074 149.668 329.512 149.668C328.906 149.668 328.373 149.852 327.912 150.219C327.455 150.582 327.174 151.045 327.068 151.607C326.967 152.146 327.084 152.594 327.42 152.949C327.76 153.301 328.221 153.477 328.803 153.477C329.396 153.477 329.926 153.303 330.391 152.955C330.859 152.607 331.146 152.158 331.252 151.607ZM337.363 153.799L337.369 153.752C337.072 154.225 336.695 154.594 336.238 154.859C335.785 155.125 335.299 155.258 334.779 155.258C334.213 155.258 333.748 155.057 333.385 154.654C333.021 154.252 332.82 153.723 332.781 153.066C332.742 152.496 332.857 151.908 333.127 151.303C333.396 150.693 333.756 150.219 334.205 149.879C334.658 149.535 335.156 149.359 335.699 149.352C336.172 149.352 336.572 149.453 336.9 149.656C337.232 149.859 337.48 150.16 337.645 150.559C337.809 150.953 337.891 151.398 337.891 151.895C337.883 152.328 337.803 152.973 337.65 153.828C337.404 155.188 336.902 156.238 336.145 156.98C335.387 157.723 334.436 158.102 333.291 158.117H333.033L333.08 157.801H333.221C334.287 157.801 335.176 157.461 335.887 156.781C336.602 156.098 337.094 155.104 337.363 153.799ZM334.779 154.941C335.342 154.941 335.889 154.76 336.42 154.396C336.951 154.029 337.295 153.59 337.451 153.078C337.525 152.621 337.566 152.264 337.574 152.006C337.59 151.549 337.527 151.137 337.387 150.77C337.25 150.398 337.041 150.123 336.76 149.943C336.479 149.76 336.133 149.668 335.723 149.668C335.227 149.676 334.773 149.844 334.363 150.172C333.953 150.5 333.627 150.947 333.385 151.514C333.174 152.01 333.076 152.496 333.092 152.973C333.104 153.551 333.262 154.023 333.566 154.391C333.875 154.758 334.279 154.941 334.779 154.941ZM342.941 155.357H344.365L344.324 155.674H342.889L342.484 158H342.174L342.572 155.674L338.564 155.668L338.588 155.498L343.568 149.475L343.955 149.469L342.941 155.357ZM339.115 155.357H342.625L343.574 149.896L342.977 150.676L339.115 155.357Z" fill="black"/>
<path id="1907" d="M424.146 158H423.83L425.236 149.885L422.711 150.781L422.758 150.441L425.535 149.445H425.611L424.146 158ZM432.93 153.799L432.936 153.752C432.639 154.225 432.262 154.594 431.805 154.859C431.352 155.125 430.865 155.258 430.346 155.258C429.779 155.258 429.314 155.057 428.951 154.654C428.588 154.252 428.387 153.723 428.348 153.066C428.309 152.496 428.424 151.908 428.693 151.303C428.963 150.693 429.322 150.219 429.771 149.879C430.225 149.535 430.723 149.359 431.266 149.352C431.738 149.352 432.139 149.453 432.467 149.656C432.799 149.859 433.047 150.16 433.211 150.559C433.375 150.953 433.457 151.398 433.457 151.895C433.449 152.328 433.369 152.973 433.217 153.828C432.971 155.188 432.469 156.238 431.711 156.98C430.953 157.723 430.002 158.102 428.857 158.117H428.6L428.646 157.801H428.787C429.854 157.801 430.742 157.461 431.453 156.781C432.168 156.098 432.66 155.104 432.93 153.799ZM430.346 154.941C430.908 154.941 431.455 154.76 431.986 154.396C432.518 154.029 432.861 153.59 433.018 153.078C433.092 152.621 433.133 152.264 433.141 152.006C433.156 151.549 433.094 151.137 432.953 150.77C432.816 150.398 432.607 150.123 432.326 149.943C432.045 149.76 431.699 149.668 431.289 149.668C430.793 149.676 430.34 149.844 429.93 150.172C429.52 150.5 429.193 150.947 428.951 151.514C428.74 152.01 428.643 152.496 428.658 152.973C428.67 153.551 428.828 154.023 429.133 154.391C429.441 154.758 429.846 154.941 430.346 154.941ZM436.48 158.117C436.035 158.117 435.66 158.006 435.355 157.783C435.051 157.561 434.826 157.232 434.682 156.799C434.541 156.361 434.482 155.863 434.506 155.305L434.553 154.742L434.834 153.078C435.033 151.918 435.398 151.006 435.93 150.342C436.461 149.678 437.127 149.346 437.928 149.346C438.381 149.346 438.76 149.459 439.064 149.686C439.369 149.908 439.592 150.24 439.732 150.682C439.873 151.123 439.93 151.617 439.902 152.164L439.844 152.797L439.557 154.461C439.354 155.613 438.986 156.512 438.455 157.156C437.924 157.797 437.266 158.117 436.48 158.117ZM439.586 151.52C439.535 150.902 439.369 150.439 439.088 150.131C438.807 149.818 438.422 149.662 437.934 149.662C437.23 149.662 436.637 149.963 436.152 150.564C435.672 151.162 435.336 152.012 435.145 153.113L434.875 154.695L434.828 155.193C434.789 155.678 434.822 156.125 434.928 156.535C435.033 156.945 435.217 157.26 435.479 157.479C435.74 157.693 436.072 157.801 436.475 157.801C437.174 157.801 437.762 157.506 438.238 156.916C438.719 156.322 439.053 155.498 439.24 154.443L439.486 153.049C439.588 152.475 439.621 151.965 439.586 151.52ZM446.781 149.668L441.848 158H441.52L446.395 149.785H441.473L441.514 149.469H446.805L446.781 149.668Z" fill="black"/>
<path id="1914" d="M492.146 158H491.83L493.236 149.885L490.711 150.781L490.758 150.441L493.535 149.445H493.611L492.146 158ZM500.93 153.799L500.936 153.752C500.639 154.225 500.262 154.594 499.805 154.859C499.352 155.125 498.865 155.258 498.346 155.258C497.779 155.258 497.314 155.057 496.951 154.654C496.588 154.252 496.387 153.723 496.348 153.066C496.309 152.496 496.424 151.908 496.693 151.303C496.963 150.693 497.322 150.219 497.771 149.879C498.225 149.535 498.723 149.359 499.266 149.352C499.738 149.352 500.139 149.453 500.467 149.656C500.799 149.859 501.047 150.16 501.211 150.559C501.375 150.953 501.457 151.398 501.457 151.895C501.449 152.328 501.369 152.973 501.217 153.828C500.971 155.188 500.469 156.238 499.711 156.98C498.953 157.723 498.002 158.102 496.857 158.117H496.6L496.646 157.801H496.787C497.854 157.801 498.742 157.461 499.453 156.781C500.168 156.098 500.66 155.104 500.93 153.799ZM498.346 154.941C498.908 154.941 499.455 154.76 499.986 154.396C500.518 154.029 500.861 153.59 501.018 153.078C501.092 152.621 501.133 152.264 501.141 152.006C501.156 151.549 501.094 151.137 500.953 150.77C500.816 150.398 500.607 150.123 500.326 149.943C500.045 149.76 499.699 149.668 499.289 149.668C498.793 149.676 498.34 149.844 497.93 150.172C497.52 150.5 497.193 150.947 496.951 151.514C496.74 152.01 496.643 152.496 496.658 152.973C496.67 153.551 496.828 154.023 497.133 154.391C497.441 154.758 497.846 154.941 498.346 154.941ZM505.014 158H504.697L506.104 149.885L503.578 150.781L503.625 150.441L506.402 149.445H506.479L505.014 158ZM512.941 155.357H514.365L514.324 155.674H512.889L512.484 158H512.174L512.572 155.674L508.564 155.668L508.588 155.498L513.568 149.475L513.955 149.469L512.941 155.357ZM509.115 155.357H512.625L513.574 149.896L512.977 150.676L509.115 155.357Z" fill="black"/>
<line id="Line 14" x1="20.5" y1="139.5" x2="147.5" y2="139.5" stroke="#CECCCE" stroke-linecap="round"/>
<line id="Line 15" x1="205.5" y1="139.5" x2="240.5" y2="139.5" stroke="#CECCCE" stroke-linecap="round"/>
<line id="Line 19" x1="163.5" y1="139.5" x2="189.5" y2="139.5" stroke="#CECCCE" stroke-linecap="round"/>
<line id="Line 16" x1="255.5" y1="139.5" x2="323.5" y2="139.5" stroke="#CECCCE" stroke-linecap="round"/>
<line id="Line 17" x1="339.5" y1="139.5" x2="425.5" y2="139.5" stroke="#CECCCE" stroke-linecap="round"/>
<line id="Line 18" x1="440.5" y1="139.5" x2="499.5" y2="139.5" stroke="#CECCCE" stroke-linecap="round"/>
<g id="Group 43">
<circle id="Ellipse 51" cx="155.5" cy="139.5" r="4.5" fill="#52A1FF"/>
<path id="Three Emperors" d="M147.725 106.893H145.193L143.963 114H142.246L143.477 106.893H140.975L141.227 105.469H147.977L147.725 106.893ZM149.934 108.363C150.43 107.809 151.002 107.535 151.65 107.543C152.279 107.559 152.74 107.785 153.033 108.223C153.33 108.656 153.441 109.25 153.367 110.004L152.699 114H151.047L151.721 109.986C151.74 109.834 151.744 109.693 151.732 109.564C151.693 109.143 151.447 108.926 150.994 108.914C150.549 108.898 150.158 109.09 149.822 109.488L149.025 114H147.373L148.932 105H150.59L149.934 108.363ZM158.33 109.248C158.104 109.209 157.918 109.189 157.773 109.189C157.184 109.174 156.717 109.395 156.373 109.852L155.641 114H153.988L155.09 107.66L156.643 107.654L156.49 108.428C156.889 107.83 157.381 107.531 157.967 107.531C158.131 107.531 158.322 107.559 158.541 107.613L158.33 109.248ZM161.195 114.117C160.641 114.113 160.148 113.979 159.719 113.713C159.293 113.443 158.975 113.076 158.764 112.611C158.553 112.143 158.471 111.627 158.518 111.064L158.535 110.83C158.594 110.213 158.773 109.646 159.074 109.131C159.375 108.615 159.762 108.219 160.234 107.941C160.707 107.66 161.23 107.527 161.805 107.543C162.621 107.559 163.238 107.859 163.656 108.445C164.078 109.027 164.238 109.766 164.137 110.66L164.043 111.381H160.158C160.143 111.791 160.242 112.119 160.457 112.365C160.672 112.611 160.965 112.738 161.336 112.746C161.938 112.762 162.465 112.529 162.918 112.049L163.674 112.986C163.436 113.346 163.092 113.627 162.643 113.83C162.193 114.029 161.711 114.125 161.195 114.117ZM161.723 108.908C161.418 108.9 161.146 108.996 160.908 109.195C160.674 109.395 160.463 109.74 160.275 110.232H162.549L162.584 110.08C162.607 109.924 162.609 109.775 162.59 109.635C162.551 109.408 162.455 109.232 162.303 109.107C162.15 108.979 161.957 108.912 161.723 108.908ZM167.547 114.117C166.992 114.113 166.5 113.979 166.07 113.713C165.645 113.443 165.326 113.076 165.115 112.611C164.904 112.143 164.822 111.627 164.869 111.064L164.887 110.83C164.945 110.213 165.125 109.646 165.426 109.131C165.727 108.615 166.113 108.219 166.586 107.941C167.059 107.66 167.582 107.527 168.156 107.543C168.973 107.559 169.59 107.859 170.008 108.445C170.43 109.027 170.59 109.766 170.488 110.66L170.395 111.381H166.51C166.494 111.791 166.594 112.119 166.809 112.365C167.023 112.611 167.316 112.738 167.688 112.746C168.289 112.762 168.816 112.529 169.27 112.049L170.025 112.986C169.787 113.346 169.443 113.627 168.994 113.83C168.545 114.029 168.062 114.125 167.547 114.117ZM168.074 108.908C167.77 108.9 167.498 108.996 167.26 109.195C167.025 109.395 166.814 109.74 166.627 110.232H168.9L168.936 110.08C168.959 109.924 168.961 109.775 168.941 109.635C168.902 109.408 168.807 109.232 168.654 109.107C168.502 108.979 168.309 108.912 168.074 108.908ZM135.848 124.303H132.578L132.18 126.588H136.023L135.777 128H130.217L131.699 119.469H137.248L136.996 120.893H133.17L132.812 122.926H136.094L135.848 124.303ZM139.357 121.654L139.223 122.375C139.734 121.805 140.354 121.527 141.08 121.543C141.471 121.551 141.795 121.641 142.053 121.812C142.311 121.984 142.484 122.217 142.574 122.51C143.133 121.85 143.789 121.527 144.543 121.543C145.125 121.555 145.562 121.754 145.855 122.141C146.152 122.527 146.277 123.086 146.23 123.816L146.219 123.963L145.545 128H143.887L144.561 123.951C144.576 123.807 144.582 123.672 144.578 123.547C144.551 123.137 144.316 122.926 143.875 122.914C143.422 122.914 143.033 123.156 142.709 123.641L142.691 123.775L141.953 128H140.301L140.975 123.963C140.99 123.818 140.996 123.684 140.992 123.559C140.965 123.145 140.732 122.932 140.295 122.92C139.877 122.908 139.5 123.105 139.164 123.512L138.373 128H136.721L137.816 121.66L139.357 121.654ZM152.945 124.848C152.863 125.512 152.689 126.102 152.424 126.617C152.158 127.133 151.828 127.516 151.434 127.766C151.039 128.016 150.602 128.135 150.121 128.123C149.508 128.107 149.023 127.879 148.668 127.438L148.088 130.438H146.436L147.953 121.66L149.477 121.654L149.365 122.293C149.822 121.777 150.361 121.527 150.982 121.543C151.604 121.559 152.086 121.785 152.43 122.223C152.773 122.656 152.957 123.246 152.98 123.992C152.988 124.234 152.977 124.52 152.945 124.848ZM151.305 124.725L151.34 124.162C151.348 123.783 151.277 123.482 151.129 123.26C150.984 123.037 150.771 122.922 150.49 122.914C150.01 122.898 149.613 123.102 149.301 123.523L148.826 126.137C148.971 126.531 149.281 126.736 149.758 126.752C150.156 126.764 150.488 126.609 150.754 126.289C151.02 125.969 151.203 125.447 151.305 124.725ZM156.479 128.117C155.924 128.113 155.432 127.979 155.002 127.713C154.576 127.443 154.258 127.076 154.047 126.611C153.836 126.143 153.754 125.627 153.801 125.064L153.818 124.83C153.877 124.213 154.057 123.646 154.357 123.131C154.658 122.615 155.045 122.219 155.518 121.941C155.99 121.66 156.514 121.527 157.088 121.543C157.904 121.559 158.521 121.859 158.939 122.445C159.361 123.027 159.521 123.766 159.42 124.66L159.326 125.381H155.441C155.426 125.791 155.525 126.119 155.74 126.365C155.955 126.611 156.248 126.738 156.619 126.746C157.221 126.762 157.748 126.529 158.201 126.049L158.957 126.986C158.719 127.346 158.375 127.627 157.926 127.83C157.477 128.029 156.994 128.125 156.479 128.117ZM157.006 122.908C156.701 122.9 156.43 122.996 156.191 123.195C155.957 123.395 155.746 123.74 155.559 124.232H157.832L157.867 124.08C157.891 123.924 157.893 123.775 157.873 123.635C157.834 123.408 157.738 123.232 157.586 123.107C157.434 122.979 157.24 122.912 157.006 122.908ZM164.16 123.248C163.934 123.209 163.748 123.189 163.604 123.189C163.014 123.174 162.547 123.395 162.203 123.852L161.471 128H159.818L160.92 121.66L162.473 121.654L162.32 122.428C162.719 121.83 163.211 121.531 163.797 121.531C163.961 121.531 164.152 121.559 164.371 121.613L164.16 123.248ZM167.547 121.543C168.105 121.551 168.586 121.695 168.988 121.977C169.395 122.254 169.691 122.639 169.879 123.131C170.07 123.619 170.139 124.162 170.084 124.76C169.994 125.768 169.643 126.584 169.029 127.209C168.42 127.83 167.666 128.133 166.768 128.117C166.217 128.109 165.74 127.969 165.338 127.695C164.936 127.418 164.639 127.035 164.447 126.547C164.256 126.059 164.188 125.52 164.242 124.93C164.344 123.883 164.699 123.051 165.309 122.434C165.918 121.816 166.664 121.52 167.547 121.543ZM165.877 125.533C165.885 125.908 165.973 126.205 166.141 126.424C166.309 126.639 166.545 126.75 166.85 126.758C167.357 126.773 167.756 126.541 168.045 126.061C168.334 125.576 168.469 124.941 168.449 124.156C168.434 123.781 168.342 123.482 168.174 123.26C168.01 123.033 167.773 122.916 167.465 122.908C166.973 122.893 166.578 123.125 166.281 123.605C165.988 124.082 165.854 124.725 165.877 125.533ZM174.906 123.248C174.68 123.209 174.494 123.189 174.35 123.189C173.76 123.174 173.293 123.395 172.949 123.852L172.217 128H170.564L171.666 121.66L173.219 121.654L173.066 122.428C173.465 121.83 173.957 121.531 174.543 121.531C174.707 121.531 174.898 121.559 175.117 121.613L174.906 123.248ZM178.551 126.213C178.613 125.9 178.396 125.674 177.9 125.533L177.367 125.398C176.105 125.051 175.492 124.438 175.527 123.559C175.547 122.961 175.811 122.475 176.318 122.1C176.83 121.721 177.445 121.535 178.164 121.543C178.879 121.551 179.457 121.74 179.898 122.111C180.34 122.482 180.564 122.977 180.572 123.594L178.932 123.588C178.939 123.045 178.67 122.77 178.123 122.762C177.865 122.762 177.641 122.826 177.449 122.955C177.262 123.084 177.146 123.258 177.104 123.477C177.045 123.789 177.281 124.01 177.812 124.139L178.047 124.191C178.586 124.32 178.998 124.469 179.283 124.637C179.568 124.801 179.787 125.006 179.939 125.252C180.096 125.498 180.168 125.793 180.156 126.137C180.145 126.539 180.014 126.891 179.764 127.191C179.518 127.492 179.178 127.725 178.744 127.889C178.314 128.053 177.861 128.129 177.385 128.117C176.682 128.109 176.096 127.908 175.627 127.514C175.158 127.115 174.92 126.602 174.912 125.973L176.471 125.984C176.486 126.59 176.811 126.896 177.443 126.904C177.748 126.904 177.998 126.842 178.193 126.717C178.393 126.592 178.512 126.424 178.551 126.213Z" fill="#DEAF69"/>
</g>
<g id="Group 71">
<circle id="Ellipse 47" cx="248.5" cy="139.5" r="4.5" fill="#52A1FF"/>
<path id="1882" d="M239.146 158H238.83L240.236 149.885L237.711 150.781L237.758 150.441L240.535 149.445H240.611L239.146 158ZM248.562 151.637C248.484 152.102 248.279 152.51 247.947 152.861C247.615 153.209 247.191 153.469 246.676 153.641C247.168 153.805 247.543 154.08 247.801 154.467C248.062 154.85 248.156 155.287 248.082 155.779C247.973 156.479 247.637 157.043 247.074 157.473C246.512 157.902 245.844 158.117 245.07 158.117C244.574 158.117 244.137 158.02 243.758 157.824C243.383 157.625 243.109 157.35 242.938 156.998C242.766 156.643 242.719 156.236 242.797 155.779C242.883 155.271 243.109 154.832 243.477 154.461C243.844 154.086 244.324 153.809 244.918 153.629C244.484 153.461 244.162 153.197 243.951 152.838C243.744 152.479 243.676 152.078 243.746 151.637C243.852 150.969 244.162 150.422 244.678 149.996C245.193 149.566 245.803 149.352 246.506 149.352C246.947 149.352 247.34 149.451 247.684 149.65C248.031 149.846 248.281 150.119 248.434 150.471C248.59 150.818 248.633 151.207 248.562 151.637ZM247.754 155.809C247.824 155.434 247.785 155.094 247.637 154.789C247.492 154.484 247.254 154.242 246.922 154.062C246.59 153.883 246.219 153.793 245.809 153.793C245.152 153.793 244.564 153.98 244.045 154.355C243.529 154.73 243.217 155.215 243.107 155.809C243.002 156.398 243.135 156.879 243.506 157.25C243.881 157.617 244.4 157.801 245.064 157.801C245.736 157.801 246.324 157.617 246.828 157.25C247.336 156.879 247.645 156.398 247.754 155.809ZM248.252 151.607C248.35 151.064 248.225 150.605 247.877 150.23C247.529 149.855 247.074 149.668 246.512 149.668C245.906 149.668 245.373 149.852 244.912 150.219C244.455 150.582 244.174 151.045 244.068 151.607C243.967 152.146 244.084 152.594 244.42 152.949C244.76 153.301 245.221 153.477 245.803 153.477C246.396 153.477 246.926 153.303 247.391 152.955C247.859 152.607 248.146 152.158 248.252 151.607ZM254.996 151.637C254.918 152.102 254.713 152.51 254.381 152.861C254.049 153.209 253.625 153.469 253.109 153.641C253.602 153.805 253.977 154.08 254.234 154.467C254.496 154.85 254.59 155.287 254.516 155.779C254.406 156.479 254.07 157.043 253.508 157.473C252.945 157.902 252.277 158.117 251.504 158.117C251.008 158.117 250.57 158.02 250.191 157.824C249.816 157.625 249.543 157.35 249.371 156.998C249.199 156.643 249.152 156.236 249.23 155.779C249.316 155.271 249.543 154.832 249.91 154.461C250.277 154.086 250.758 153.809 251.352 153.629C250.918 153.461 250.596 153.197 250.385 152.838C250.178 152.479 250.109 152.078 250.18 151.637C250.285 150.969 250.596 150.422 251.111 149.996C251.627 149.566 252.236 149.352 252.939 149.352C253.381 149.352 253.773 149.451 254.117 149.65C254.465 149.846 254.715 150.119 254.867 150.471C255.023 150.818 255.066 151.207 254.996 151.637ZM254.188 155.809C254.258 155.434 254.219 155.094 254.07 154.789C253.926 154.484 253.688 154.242 253.355 154.062C253.023 153.883 252.652 153.793 252.242 153.793C251.586 153.793 250.998 153.98 250.479 154.355C249.963 154.73 249.65 155.215 249.541 155.809C249.436 156.398 249.568 156.879 249.939 157.25C250.314 157.617 250.834 157.801 251.498 157.801C252.17 157.801 252.758 157.617 253.262 157.25C253.77 156.879 254.078 156.398 254.188 155.809ZM254.686 151.607C254.783 151.064 254.658 150.605 254.311 150.23C253.963 149.855 253.508 149.668 252.945 149.668C252.34 149.668 251.807 149.852 251.346 150.219C250.889 150.582 250.607 151.045 250.502 151.607C250.4 152.146 250.518 152.594 250.854 152.949C251.193 153.301 251.654 153.477 252.236 153.477C252.83 153.477 253.359 153.303 253.824 152.955C254.293 152.607 254.58 152.158 254.686 151.607ZM260.58 158H255.629L255.664 157.684L259.49 153.822C260.256 153.033 260.693 152.307 260.803 151.643C260.904 151.064 260.803 150.592 260.498 150.225C260.193 149.854 259.736 149.668 259.127 149.668C258.533 149.668 258.01 149.879 257.557 150.301C257.104 150.719 256.814 151.244 256.689 151.877H256.373C256.498 151.15 256.818 150.549 257.334 150.072C257.854 149.592 258.449 149.352 259.121 149.352C259.816 149.352 260.35 149.562 260.721 149.984C261.096 150.402 261.232 150.955 261.131 151.643C261.029 152.342 260.576 153.115 259.771 153.963L256.098 157.684H260.621L260.58 158Z" fill="black"/>
<path id="Triple Alliance" d="M240.865 106.893H238.334L237.104 114H235.387L236.617 106.893H234.115L234.367 105.469H241.117L240.865 106.893ZM244.51 109.248C244.283 109.209 244.098 109.189 243.953 109.189C243.363 109.174 242.896 109.395 242.553 109.852L241.82 114H240.168L241.27 107.66L242.822 107.654L242.67 108.428C243.068 107.83 243.561 107.531 244.146 107.531C244.311 107.531 244.502 107.559 244.721 107.613L244.51 109.248ZM246.227 114H244.562L245.664 107.66H247.328L246.227 114ZM245.857 106.049C245.85 105.787 245.936 105.57 246.115 105.398C246.295 105.227 246.512 105.141 246.766 105.141C247.016 105.133 247.232 105.209 247.416 105.369C247.6 105.529 247.695 105.736 247.703 105.99C247.711 106.232 247.629 106.443 247.457 106.623C247.289 106.803 247.068 106.896 246.795 106.904C246.549 106.912 246.332 106.838 246.145 106.682C245.961 106.525 245.865 106.314 245.857 106.049ZM253.721 110.848C253.639 111.512 253.465 112.102 253.199 112.617C252.934 113.133 252.604 113.516 252.209 113.766C251.814 114.016 251.377 114.135 250.896 114.123C250.283 114.107 249.799 113.879 249.443 113.438L248.863 116.438H247.211L248.729 107.66L250.252 107.654L250.141 108.293C250.598 107.777 251.137 107.527 251.758 107.543C252.379 107.559 252.861 107.785 253.205 108.223C253.549 108.656 253.732 109.246 253.756 109.992C253.764 110.234 253.752 110.52 253.721 110.848ZM252.08 110.725L252.115 110.162C252.123 109.783 252.053 109.482 251.904 109.26C251.76 109.037 251.547 108.922 251.266 108.914C250.785 108.898 250.389 109.102 250.076 109.523L249.602 112.137C249.746 112.531 250.057 112.736 250.533 112.752C250.932 112.764 251.264 112.609 251.529 112.289C251.795 111.969 251.979 111.447 252.08 110.725ZM255.988 114H254.324L255.889 105H257.547L255.988 114ZM260.406 114.117C259.852 114.113 259.359 113.979 258.93 113.713C258.504 113.443 258.186 113.076 257.975 112.611C257.764 112.143 257.682 111.627 257.729 111.064L257.746 110.83C257.805 110.213 257.984 109.646 258.285 109.131C258.586 108.615 258.973 108.219 259.445 107.941C259.918 107.66 260.441 107.527 261.016 107.543C261.832 107.559 262.449 107.859 262.867 108.445C263.289 109.027 263.449 109.766 263.348 110.66L263.254 111.381H259.369C259.354 111.791 259.453 112.119 259.668 112.365C259.883 112.611 260.176 112.738 260.547 112.746C261.148 112.762 261.676 112.529 262.129 112.049L262.885 112.986C262.646 113.346 262.303 113.627 261.854 113.83C261.404 114.029 260.922 114.125 260.406 114.117ZM260.934 108.908C260.629 108.9 260.357 108.996 260.119 109.195C259.885 109.395 259.674 109.74 259.486 110.232H261.76L261.795 110.08C261.818 109.924 261.82 109.775 261.801 109.635C261.762 109.408 261.666 109.232 261.514 109.107C261.361 108.979 261.168 108.912 260.934 108.908ZM232.275 126.242H229.299L228.42 128H226.527L231.086 119.469H232.674L234.297 128H232.545L232.275 126.242ZM230.002 124.818H232.059L231.578 121.643L230.002 124.818ZM236.799 128H235.135L236.699 119H238.357L236.799 128ZM239.951 128H238.287L239.852 119H241.51L239.951 128ZM243.104 128H241.439L242.541 121.66H244.205L243.104 128ZM242.734 120.049C242.727 119.787 242.812 119.57 242.992 119.398C243.172 119.227 243.389 119.141 243.643 119.141C243.893 119.133 244.109 119.209 244.293 119.369C244.477 119.529 244.572 119.736 244.58 119.99C244.588 120.232 244.506 120.443 244.334 120.623C244.166 120.803 243.945 120.896 243.672 120.904C243.426 120.912 243.209 120.838 243.021 120.682C242.838 120.525 242.742 120.314 242.734 120.049ZM248.178 128C248.127 127.84 248.105 127.648 248.113 127.426C247.637 127.902 247.098 128.133 246.496 128.117C245.941 128.109 245.48 127.93 245.113 127.578C244.75 127.223 244.58 126.785 244.604 126.266C244.631 125.574 244.92 125.045 245.471 124.678C246.025 124.307 246.768 124.121 247.697 124.121L248.471 124.133L248.553 123.752C248.576 123.623 248.582 123.5 248.57 123.383C248.551 123.199 248.48 123.057 248.359 122.955C248.242 122.85 248.086 122.795 247.891 122.791C247.633 122.783 247.414 122.848 247.234 122.984C247.055 123.117 246.939 123.311 246.889 123.564L245.23 123.57C245.258 122.965 245.535 122.475 246.062 122.1C246.594 121.721 247.248 121.535 248.025 121.543C248.744 121.559 249.307 121.773 249.713 122.188C250.119 122.598 250.289 123.127 250.223 123.775L249.736 126.811L249.707 127.186C249.699 127.463 249.732 127.697 249.807 127.889L249.801 128H248.178ZM246.906 126.834C247.383 126.85 247.799 126.643 248.154 126.213L248.359 125.117L247.785 125.111C247.176 125.127 246.736 125.312 246.467 125.668C246.369 125.797 246.309 125.955 246.285 126.143C246.254 126.354 246.297 126.521 246.414 126.646C246.535 126.768 246.699 126.83 246.906 126.834ZM253.428 121.654L253.287 122.404C253.795 121.814 254.41 121.527 255.133 121.543C255.73 121.555 256.172 121.773 256.457 122.199C256.742 122.625 256.846 123.215 256.768 123.969L256.1 128H254.447L255.127 123.951C255.146 123.799 255.15 123.66 255.139 123.535C255.088 123.137 254.838 122.932 254.389 122.92C253.955 122.904 253.566 123.105 253.223 123.523L252.432 128H250.779L251.881 121.66L253.428 121.654ZM260.178 126.758C260.482 126.766 260.736 126.684 260.939 126.512C261.143 126.336 261.275 126.104 261.338 125.814L262.891 125.809C262.863 126.254 262.723 126.654 262.469 127.01C262.219 127.365 261.883 127.643 261.461 127.842C261.043 128.041 260.602 128.135 260.137 128.123C259.367 128.111 258.758 127.846 258.309 127.326C257.859 126.807 257.643 126.115 257.658 125.252L257.676 124.93L257.682 124.865C257.787 123.834 258.135 123.018 258.725 122.416C259.314 121.811 260.043 121.52 260.91 121.543C261.625 121.559 262.191 121.793 262.609 122.246C263.031 122.695 263.238 123.289 263.23 124.027H261.689C261.689 123.688 261.615 123.42 261.467 123.225C261.318 123.029 261.096 122.924 260.799 122.908C260.01 122.885 259.531 123.461 259.363 124.637C259.305 125.062 259.283 125.422 259.299 125.715C259.338 126.398 259.631 126.746 260.178 126.758ZM266.541 128.117C265.986 128.113 265.494 127.979 265.064 127.713C264.639 127.443 264.32 127.076 264.109 126.611C263.898 126.143 263.816 125.627 263.863 125.064L263.881 124.83C263.939 124.213 264.119 123.646 264.42 123.131C264.721 122.615 265.107 122.219 265.58 121.941C266.053 121.66 266.576 121.527 267.15 121.543C267.967 121.559 268.584 121.859 269.002 122.445C269.424 123.027 269.584 123.766 269.482 124.66L269.389 125.381H265.504C265.488 125.791 265.588 126.119 265.803 126.365C266.018 126.611 266.311 126.738 266.682 126.746C267.283 126.762 267.811 126.529 268.264 126.049L269.02 126.986C268.781 127.346 268.438 127.627 267.988 127.83C267.539 128.029 267.057 128.125 266.541 128.117ZM267.068 122.908C266.764 122.9 266.492 122.996 266.254 123.195C266.02 123.395 265.809 123.74 265.621 124.232H267.895L267.93 124.08C267.953 123.924 267.955 123.775 267.936 123.635C267.896 123.408 267.801 123.232 267.648 123.107C267.496 122.979 267.303 122.912 267.068 122.908Z" fill="#6FB5DC"/>
</g>
<g id="Group 42">
<circle id="Ellipse 49" cx="433.5" cy="139.5" r="4.5" fill="#52A1FF"/>
<path id="Triple Entente" d="M425.865 106.893H423.334L422.104 114H420.387L421.617 106.893H419.115L419.367 105.469H426.117L425.865 106.893ZM429.51 109.248C429.283 109.209 429.098 109.189 428.953 109.189C428.363 109.174 427.896 109.395 427.553 109.852L426.82 114H425.168L426.27 107.66L427.822 107.654L427.67 108.428C428.068 107.83 428.561 107.531 429.146 107.531C429.311 107.531 429.502 107.559 429.721 107.613L429.51 109.248ZM431.227 114H429.562L430.664 107.66H432.328L431.227 114ZM430.857 106.049C430.85 105.787 430.936 105.57 431.115 105.398C431.295 105.227 431.512 105.141 431.766 105.141C432.016 105.133 432.232 105.209 432.416 105.369C432.6 105.529 432.695 105.736 432.703 105.99C432.711 106.232 432.629 106.443 432.457 106.623C432.289 106.803 432.068 106.896 431.795 106.904C431.549 106.912 431.332 106.838 431.145 106.682C430.961 106.525 430.865 106.314 430.857 106.049ZM438.721 110.848C438.639 111.512 438.465 112.102 438.199 112.617C437.934 113.133 437.604 113.516 437.209 113.766C436.814 114.016 436.377 114.135 435.896 114.123C435.283 114.107 434.799 113.879 434.443 113.438L433.863 116.438H432.211L433.729 107.66L435.252 107.654L435.141 108.293C435.598 107.777 436.137 107.527 436.758 107.543C437.379 107.559 437.861 107.785 438.205 108.223C438.549 108.656 438.732 109.246 438.756 109.992C438.764 110.234 438.752 110.52 438.721 110.848ZM437.08 110.725L437.115 110.162C437.123 109.783 437.053 109.482 436.904 109.26C436.76 109.037 436.547 108.922 436.266 108.914C435.785 108.898 435.389 109.102 435.076 109.523L434.602 112.137C434.746 112.531 435.057 112.736 435.533 112.752C435.932 112.764 436.264 112.609 436.529 112.289C436.795 111.969 436.979 111.447 437.08 110.725ZM440.988 114H439.324L440.889 105H442.547L440.988 114ZM445.406 114.117C444.852 114.113 444.359 113.979 443.93 113.713C443.504 113.443 443.186 113.076 442.975 112.611C442.764 112.143 442.682 111.627 442.729 111.064L442.746 110.83C442.805 110.213 442.984 109.646 443.285 109.131C443.586 108.615 443.973 108.219 444.445 107.941C444.918 107.66 445.441 107.527 446.016 107.543C446.832 107.559 447.449 107.859 447.867 108.445C448.289 109.027 448.449 109.766 448.348 110.66L448.254 111.381H444.369C444.354 111.791 444.453 112.119 444.668 112.365C444.883 112.611 445.176 112.738 445.547 112.746C446.148 112.762 446.676 112.529 447.129 112.049L447.885 112.986C447.646 113.346 447.303 113.627 446.854 113.83C446.404 114.029 445.922 114.125 445.406 114.117ZM445.934 108.908C445.629 108.9 445.357 108.996 445.119 109.195C444.885 109.395 444.674 109.74 444.486 110.232H446.76L446.795 110.08C446.818 109.924 446.82 109.775 446.801 109.635C446.762 109.408 446.666 109.232 446.514 109.107C446.361 108.979 446.168 108.912 445.934 108.908ZM419.016 124.303H415.746L415.348 126.588H419.191L418.945 128H413.385L414.867 119.469H420.416L420.164 120.893H416.338L415.98 122.926H419.262L419.016 124.303ZM422.502 121.654L422.361 122.404C422.869 121.814 423.484 121.527 424.207 121.543C424.805 121.555 425.246 121.773 425.531 122.199C425.816 122.625 425.92 123.215 425.842 123.969L425.174 128H423.521L424.201 123.951C424.221 123.799 424.225 123.66 424.213 123.535C424.162 123.137 423.912 122.932 423.463 122.92C423.029 122.904 422.641 123.105 422.297 123.523L421.506 128H419.854L420.955 121.66L422.502 121.654ZM429.826 120.102L429.551 121.66H430.605L430.389 122.902H429.334L428.795 126.078C428.771 126.277 428.787 126.43 428.842 126.535C428.896 126.641 429.029 126.697 429.24 126.705C429.303 126.709 429.471 126.699 429.744 126.676L429.627 127.971C429.334 128.068 429.018 128.113 428.678 128.105C428.135 128.098 427.73 127.928 427.465 127.596C427.199 127.264 427.09 126.814 427.137 126.248L427.682 122.902H426.785L427.002 121.66H427.898L428.168 120.102H429.826ZM433.482 128.117C432.928 128.113 432.436 127.979 432.006 127.713C431.58 127.443 431.262 127.076 431.051 126.611C430.84 126.143 430.758 125.627 430.805 125.064L430.822 124.83C430.881 124.213 431.061 123.646 431.361 123.131C431.662 122.615 432.049 122.219 432.521 121.941C432.994 121.66 433.518 121.527 434.092 121.543C434.908 121.559 435.525 121.859 435.943 122.445C436.365 123.027 436.525 123.766 436.424 124.66L436.33 125.381H432.445C432.43 125.791 432.529 126.119 432.744 126.365C432.959 126.611 433.252 126.738 433.623 126.746C434.225 126.762 434.752 126.529 435.205 126.049L435.961 126.986C435.723 127.346 435.379 127.627 434.93 127.83C434.48 128.029 433.998 128.125 433.482 128.117ZM434.01 122.908C433.705 122.9 433.434 122.996 433.195 123.195C432.961 123.395 432.75 123.74 432.562 124.232H434.836L434.871 124.08C434.895 123.924 434.896 123.775 434.877 123.635C434.838 123.408 434.742 123.232 434.59 123.107C434.438 122.979 434.244 122.912 434.01 122.908ZM439.436 121.654L439.295 122.404C439.803 121.814 440.418 121.527 441.141 121.543C441.738 121.555 442.18 121.773 442.465 122.199C442.75 122.625 442.854 123.215 442.775 123.969L442.107 128H440.455L441.135 123.951C441.154 123.799 441.158 123.66 441.146 123.535C441.096 123.137 440.846 122.932 440.396 122.92C439.963 122.904 439.574 123.105 439.23 123.523L438.439 128H436.787L437.889 121.66L439.436 121.654ZM446.76 120.102L446.484 121.66H447.539L447.322 122.902H446.268L445.729 126.078C445.705 126.277 445.721 126.43 445.775 126.535C445.83 126.641 445.963 126.697 446.174 126.705C446.236 126.709 446.404 126.699 446.678 126.676L446.561 127.971C446.268 128.068 445.951 128.113 445.611 128.105C445.068 128.098 444.664 127.928 444.398 127.596C444.133 127.264 444.023 126.814 444.07 126.248L444.615 122.902H443.719L443.936 121.66H444.832L445.102 120.102H446.76ZM450.416 128.117C449.861 128.113 449.369 127.979 448.939 127.713C448.514 127.443 448.195 127.076 447.984 126.611C447.773 126.143 447.691 125.627 447.738 125.064L447.756 124.83C447.814 124.213 447.994 123.646 448.295 123.131C448.596 122.615 448.982 122.219 449.455 121.941C449.928 121.66 450.451 121.527 451.025 121.543C451.842 121.559 452.459 121.859 452.877 122.445C453.299 123.027 453.459 123.766 453.357 124.66L453.264 125.381H449.379C449.363 125.791 449.463 126.119 449.678 126.365C449.893 126.611 450.186 126.738 450.557 126.746C451.158 126.762 451.686 126.529 452.139 126.049L452.895 126.986C452.656 127.346 452.312 127.627 451.863 127.83C451.414 128.029 450.932 128.125 450.416 128.117ZM450.943 122.908C450.639 122.9 450.367 122.996 450.129 123.195C449.895 123.395 449.684 123.74 449.496 124.232H451.77L451.805 124.08C451.828 123.924 451.83 123.775 451.811 123.635C451.771 123.408 451.676 123.232 451.523 123.107C451.371 122.979 451.178 122.912 450.943 122.908Z" fill="#ADC981"/>
</g>
<path id="War" d="M504.172 125.521L506.229 119.469H507.98L504.811 128H503.082L502.631 122.316L500.398 128H498.67L498.166 119.469H499.842L500.012 125.492L502.309 119.469H503.768L504.172 125.521ZM510.898 128C510.848 127.84 510.826 127.648 510.834 127.426C510.357 127.902 509.818 128.133 509.217 128.117C508.662 128.109 508.201 127.93 507.834 127.578C507.471 127.223 507.301 126.785 507.324 126.266C507.352 125.574 507.641 125.045 508.191 124.678C508.746 124.307 509.488 124.121 510.418 124.121L511.191 124.133L511.273 123.752C511.297 123.623 511.303 123.5 511.291 123.383C511.271 123.199 511.201 123.057 511.08 122.955C510.963 122.85 510.807 122.795 510.611 122.791C510.354 122.783 510.135 122.848 509.955 122.984C509.775 123.117 509.66 123.311 509.609 123.564L507.951 123.57C507.979 122.965 508.256 122.475 508.783 122.1C509.314 121.721 509.969 121.535 510.746 121.543C511.465 121.559 512.027 121.773 512.434 122.188C512.84 122.598 513.01 123.127 512.943 123.775L512.457 126.811L512.428 127.186C512.42 127.463 512.453 127.697 512.527 127.889L512.521 128H510.898ZM509.627 126.834C510.104 126.85 510.52 126.643 510.875 126.213L511.08 125.117L510.506 125.111C509.896 125.127 509.457 125.312 509.188 125.668C509.09 125.797 509.029 125.955 509.006 126.143C508.975 126.354 509.018 126.521 509.135 126.646C509.256 126.768 509.42 126.83 509.627 126.834ZM517.877 123.248C517.65 123.209 517.465 123.189 517.32 123.189C516.73 123.174 516.264 123.395 515.92 123.852L515.188 128H513.535L514.637 121.66L516.189 121.654L516.037 122.428C516.436 121.83 516.928 121.531 517.514 121.531C517.678 121.531 517.869 121.559 518.088 121.613L517.877 123.248Z" fill="#CF1717"/>
<g id="Group 34">
<rect id="Rectangle 61" x="840.5" y="120.5" width="7" height="7" fill="#E5E5E5" stroke="#52A1FF"/>
<rect id="Rectangle 62" x="840.5" y="130.5" width="7" height="7" fill="#E5E5E5" stroke="#52A1FF"/>
<rect id="Rectangle 67" x="840.5" y="140.5" width="7" height="7" fill="#E5E5E5" stroke="#52A1FF"/>
<rect id="Rectangle 63" x="850.5" y="120.5" width="7" height="7" fill="#E5E5E5" stroke="#52A1FF"/>
<rect id="Rectangle 65" x="860.5" y="120.5" width="7" height="7" fill="#E5E5E5" stroke="#52A1FF"/>
<rect id="Rectangle 64" x="850.5" y="130.5" width="7" height="7" fill="#E5E5E5" stroke="#52A1FF"/>
<rect id="Rectangle 68" x="850.5" y="140.5" width="7" height="7" fill="#E5E5E5" stroke="#52A1FF"/>
<rect id="Rectangle 66" x="860.5" y="130.5" width="7" height="7" fill="#E5E5E5" stroke="#52A1FF"/>
<rect id="Rectangle 69" x="860.5" y="140.5" width="7" height="7" fill="#E5E5E5" stroke="#52A1FF"/>
<path id="text_2" d="M840.664 163H839.219V151H840.664V163ZM842.602 158.695C842.602 157.867 842.763 157.122 843.086 156.461C843.414 155.799 843.867 155.289 844.445 154.93C845.029 154.57 845.693 154.391 846.438 154.391C847.589 154.391 848.518 154.789 849.227 155.586C849.94 156.383 850.297 157.443 850.297 158.766V158.867C850.297 159.69 850.138 160.43 849.82 161.086C849.508 161.737 849.057 162.245 848.469 162.609C847.885 162.974 847.214 163.156 846.453 163.156C845.307 163.156 844.378 162.758 843.664 161.961C842.956 161.164 842.602 160.109 842.602 158.797V158.695ZM844.055 158.867C844.055 159.805 844.271 160.557 844.703 161.125C845.141 161.693 845.724 161.977 846.453 161.977C847.188 161.977 847.771 161.69 848.203 161.117C848.635 160.539 848.852 159.732 848.852 158.695C848.852 157.768 848.63 157.018 848.188 156.445C847.75 155.867 847.167 155.578 846.438 155.578C845.724 155.578 845.148 155.862 844.711 156.43C844.273 156.997 844.055 157.81 844.055 158.867ZM853.477 154.547L853.523 155.609C854.169 154.797 855.013 154.391 856.055 154.391C857.841 154.391 858.742 155.398 858.758 157.414V163H857.312V157.406C857.307 156.797 857.167 156.346 856.891 156.055C856.62 155.763 856.195 155.617 855.617 155.617C855.148 155.617 854.737 155.742 854.383 155.992C854.029 156.242 853.753 156.57 853.555 156.977V163H852.109V154.547H853.477ZM860.594 158.703C860.594 157.385 860.898 156.339 861.508 155.562C862.117 154.781 862.924 154.391 863.93 154.391C864.961 154.391 865.766 154.755 866.344 155.484L866.414 154.547H867.734V162.797C867.734 163.891 867.409 164.753 866.758 165.383C866.112 166.013 865.242 166.328 864.148 166.328C863.539 166.328 862.943 166.198 862.359 165.938C861.776 165.677 861.331 165.32 861.023 164.867L861.773 164C862.393 164.766 863.151 165.148 864.047 165.148C864.75 165.148 865.297 164.951 865.688 164.555C866.083 164.159 866.281 163.602 866.281 162.883V162.156C865.703 162.823 864.914 163.156 863.914 163.156C862.924 163.156 862.122 162.758 861.508 161.961C860.898 161.164 860.594 160.078 860.594 158.703ZM862.047 158.867C862.047 159.82 862.242 160.57 862.633 161.117C863.023 161.659 863.57 161.93 864.273 161.93C865.185 161.93 865.854 161.516 866.281 160.688V156.828C865.839 156.021 865.174 155.617 864.289 155.617C863.586 155.617 863.036 155.891 862.641 156.438C862.245 156.984 862.047 157.794 862.047 158.867Z" fill="#52A1FF"/>
</g>
<g id="Group 103">
<g id="Group 36">
<rect id="Rectangle 55" x="654.5" y="124.5" width="12" height="12" fill="#E5E5E5" stroke="#52A1FF" stroke-width="3"/>
<rect id="Rectangle 56" x="672.5" y="124.5" width="12" height="12" fill="#E5E5E5" stroke="#52A1FF" stroke-width="3"/>
<path id="text_3" d="M657.016 155.758C657.016 155.367 656.867 155.065 656.57 154.852C656.279 154.633 655.766 154.445 655.031 154.289C654.302 154.133 653.721 153.945 653.289 153.727C652.862 153.508 652.544 153.247 652.336 152.945C652.133 152.643 652.031 152.284 652.031 151.867C652.031 151.174 652.323 150.589 652.906 150.109C653.495 149.63 654.245 149.391 655.156 149.391C656.115 149.391 656.891 149.638 657.484 150.133C658.083 150.628 658.383 151.26 658.383 152.031H656.93C656.93 151.635 656.76 151.294 656.422 151.008C656.089 150.721 655.667 150.578 655.156 150.578C654.63 150.578 654.219 150.693 653.922 150.922C653.625 151.151 653.477 151.451 653.477 151.82C653.477 152.169 653.615 152.432 653.891 152.609C654.167 152.786 654.664 152.956 655.383 153.117C656.107 153.279 656.693 153.471 657.141 153.695C657.589 153.919 657.919 154.19 658.133 154.508C658.352 154.82 658.461 155.203 658.461 155.656C658.461 156.411 658.159 157.018 657.555 157.477C656.951 157.93 656.167 158.156 655.203 158.156C654.526 158.156 653.927 158.036 653.406 157.797C652.885 157.557 652.477 157.224 652.18 156.797C651.888 156.365 651.742 155.898 651.742 155.398H653.188C653.214 155.883 653.406 156.268 653.766 156.555C654.13 156.836 654.609 156.977 655.203 156.977C655.75 156.977 656.188 156.867 656.516 156.648C656.849 156.424 657.016 156.128 657.016 155.758ZM661.789 150.57C662.43 149.784 663.263 149.391 664.289 149.391C666.076 149.391 666.977 150.398 666.992 152.414V158H665.547V152.406C665.542 151.797 665.401 151.346 665.125 151.055C664.854 150.763 664.43 150.617 663.852 150.617C663.383 150.617 662.971 150.742 662.617 150.992C662.263 151.242 661.987 151.57 661.789 151.977V158H660.344V146H661.789V150.57ZM668.773 153.695C668.773 152.867 668.935 152.122 669.258 151.461C669.586 150.799 670.039 150.289 670.617 149.93C671.201 149.57 671.865 149.391 672.609 149.391C673.76 149.391 674.69 149.789 675.398 150.586C676.112 151.383 676.469 152.443 676.469 153.766V153.867C676.469 154.69 676.31 155.43 675.992 156.086C675.68 156.737 675.229 157.245 674.641 157.609C674.057 157.974 673.385 158.156 672.625 158.156C671.479 158.156 670.549 157.758 669.836 156.961C669.128 156.164 668.773 155.109 668.773 153.797V153.695ZM670.227 153.867C670.227 154.805 670.443 155.557 670.875 156.125C671.312 156.693 671.896 156.977 672.625 156.977C673.359 156.977 673.943 156.69 674.375 156.117C674.807 155.539 675.023 154.732 675.023 153.695C675.023 152.768 674.802 152.018 674.359 151.445C673.922 150.867 673.339 150.578 672.609 150.578C671.896 150.578 671.32 150.862 670.883 151.43C670.445 151.997 670.227 152.81 670.227 153.867ZM682.367 150.844C682.148 150.807 681.911 150.789 681.656 150.789C680.708 150.789 680.065 151.193 679.727 152V158H678.281V149.547H679.688L679.711 150.523C680.185 149.768 680.857 149.391 681.727 149.391C682.008 149.391 682.221 149.427 682.367 149.5V150.844ZM686.055 147.5V149.547H687.633V150.664H686.055V155.906C686.055 156.245 686.125 156.5 686.266 156.672C686.406 156.839 686.646 156.922 686.984 156.922C687.151 156.922 687.38 156.891 687.672 156.828V158C687.292 158.104 686.922 158.156 686.562 158.156C685.917 158.156 685.43 157.961 685.102 157.57C684.773 157.18 684.609 156.625 684.609 155.906V150.664H683.07V149.547H684.609V147.5H686.055Z" fill="#52A1FF"/>
</g>
<circle id="short" opacity="0.1" cx="669.5" cy="139.5" r="39.5" fill="#C4C4C4"/>
</g>
<circle id="three-emperors" opacity="0.1" cx="155.5" cy="120.5" r="25.5" fill="#C4C4C4"/>
<circle id="triple-alliance" opacity="0.1" cx="247.5" cy="120.5" r="25.5" fill="#C4C4C4"/>
<circle id="triple-entente" opacity="0.1" cx="434.5" cy="120.5" r="25.5" fill="#C4C4C4"/>
<circle id="war" opacity="0.1" cx="507.5" cy="120.5" r="25.5" fill="#C4C4C4"/>
<circle id="long" opacity="0.1" cx="853.5" cy="139.5" r="39.5" fill="#C4C4C4"/>
<circle id="medium" opacity="0.1" cx="761.5" cy="138.5" r="39.5" fill="#C4C4C4"/>
</g>
</svg>
