<svg width="1008" height="179" viewBox="0 0 1008 179" fill="none" xmlns="http://www.w3.org/2000/svg">
<g id="top">
<rect id="Rectangle 70" width="927" height="169" fill="white"/>
<path id="European Alliances before World War I" d="M58.543 65.9785H43.918V75.8809H61.082V82H36.3008V45.0312H61.0312V51.2012H43.918V60.0117H58.543V65.9785ZM81.0645 79.207C79.2533 81.4076 76.748 82.5078 73.5488 82.5078C70.6035 82.5078 68.3522 81.6615 66.7949 79.9688C65.2546 78.276 64.4674 75.7962 64.4336 72.5293V54.5273H71.7715V72.2754C71.7715 75.1361 73.0749 76.5664 75.6816 76.5664C78.1699 76.5664 79.8796 75.7031 80.8105 73.9766V54.5273H88.1738V82H81.2676L81.0645 79.207ZM109.146 61.4082C108.148 61.2728 107.268 61.2051 106.506 61.2051C103.73 61.2051 101.91 62.1445 101.047 64.0234V82H93.709V54.5273H100.641L100.844 57.8027C102.316 55.2806 104.356 54.0195 106.963 54.0195C107.775 54.0195 108.537 54.1296 109.248 54.3496L109.146 61.4082ZM110.645 68.0098C110.645 65.2845 111.169 62.8555 112.219 60.7227C113.268 58.5898 114.775 56.9395 116.738 55.7715C118.719 54.6035 121.012 54.0195 123.619 54.0195C127.326 54.0195 130.348 55.1536 132.684 57.4219C135.036 59.6901 136.348 62.7708 136.619 66.6641L136.67 68.543C136.67 72.7578 135.493 76.1432 133.141 78.6992C130.788 81.2383 127.631 82.5078 123.67 82.5078C119.709 82.5078 116.544 81.2383 114.174 78.6992C111.821 76.1602 110.645 72.707 110.645 68.3398V68.0098ZM117.982 68.543C117.982 71.1497 118.473 73.1471 119.455 74.5352C120.437 75.9062 121.842 76.5918 123.67 76.5918C125.447 76.5918 126.835 75.9147 127.834 74.5605C128.833 73.1895 129.332 71.0059 129.332 68.0098C129.332 65.4538 128.833 63.4733 127.834 62.0684C126.835 60.6634 125.43 59.9609 123.619 59.9609C121.825 59.9609 120.437 60.6634 119.455 62.0684C118.473 63.4564 117.982 65.6146 117.982 68.543ZM165.92 68.5176C165.92 72.7493 164.955 76.1432 163.025 78.6992C161.113 81.2383 158.523 82.5078 155.256 82.5078C152.48 82.5078 150.237 81.543 148.527 79.6133V92.5625H141.189V54.5273H147.994L148.248 57.2188C150.025 55.0859 152.344 54.0195 155.205 54.0195C158.59 54.0195 161.223 55.2721 163.102 57.7773C164.98 60.2826 165.92 63.7357 165.92 68.1367V68.5176ZM158.582 67.9844C158.582 65.4284 158.125 63.4564 157.211 62.0684C156.314 60.6803 155.002 59.9863 153.275 59.9863C150.973 59.9863 149.391 60.8665 148.527 62.627V73.875C149.424 75.6862 151.024 76.5918 153.326 76.5918C156.83 76.5918 158.582 73.7227 158.582 67.9844ZM183.135 82.5078C179.106 82.5078 175.822 81.2721 173.283 78.8008C170.761 76.3294 169.5 73.0371 169.5 68.9238V68.2129C169.5 65.4538 170.033 62.9909 171.1 60.8242C172.166 58.6406 173.673 56.9648 175.619 55.7969C177.583 54.612 179.817 54.0195 182.322 54.0195C186.08 54.0195 189.034 55.2044 191.184 57.5742C193.35 59.944 194.434 63.304 194.434 67.6543V70.6504H176.939C177.176 72.4447 177.887 73.8835 179.072 74.9668C180.274 76.0501 181.789 76.5918 183.617 76.5918C186.444 76.5918 188.653 75.5677 190.244 73.5195L193.85 77.5566C192.749 79.1139 191.26 80.3327 189.381 81.2129C187.502 82.0762 185.42 82.5078 183.135 82.5078ZM182.297 59.9609C180.841 59.9609 179.656 60.4518 178.742 61.4336C177.845 62.4154 177.27 63.8203 177.016 65.6484H187.223V65.0645C187.189 63.4395 186.749 62.1868 185.902 61.3066C185.056 60.4095 183.854 59.9609 182.297 59.9609ZM214.543 82C214.204 81.3398 213.959 80.5189 213.807 79.5371C212.029 81.5176 209.719 82.5078 206.875 82.5078C204.184 82.5078 201.949 81.7292 200.172 80.1719C198.411 78.6146 197.531 76.651 197.531 74.2812C197.531 71.3698 198.606 69.1354 200.756 67.5781C202.923 66.0208 206.046 65.2337 210.125 65.2168H213.502V63.6426C213.502 62.373 213.172 61.3574 212.512 60.5957C211.868 59.834 210.844 59.4531 209.439 59.4531C208.204 59.4531 207.23 59.7493 206.52 60.3418C205.826 60.9342 205.479 61.7467 205.479 62.7793H198.141C198.141 61.1882 198.632 59.7155 199.613 58.3613C200.595 57.0072 201.983 55.9492 203.777 55.1875C205.572 54.4089 207.586 54.0195 209.82 54.0195C213.206 54.0195 215.889 54.8743 217.869 56.584C219.867 58.2767 220.865 60.6634 220.865 63.7441V75.6523C220.882 78.2591 221.246 80.2311 221.957 81.5684V82H214.543ZM208.475 76.8965C209.558 76.8965 210.557 76.6595 211.471 76.1855C212.385 75.6947 213.062 75.043 213.502 74.2305V69.5078H210.76C207.087 69.5078 205.132 70.7773 204.895 73.3164L204.869 73.748C204.869 74.6621 205.191 75.4154 205.834 76.0078C206.477 76.6003 207.357 76.8965 208.475 76.8965ZM233.256 54.5273L233.484 57.7012C235.448 55.2467 238.08 54.0195 241.381 54.0195C244.292 54.0195 246.459 54.8743 247.881 56.584C249.303 58.2936 250.031 60.8496 250.064 64.252V82H242.727V64.4297C242.727 62.8724 242.388 61.7467 241.711 61.0527C241.034 60.3418 239.908 59.9863 238.334 59.9863C236.269 59.9863 234.72 60.8665 233.688 62.627V82H226.35V54.5273H233.256ZM289.953 74.3828H276.598L274.059 82H265.959L279.721 45.0312H286.779L300.617 82H292.518L289.953 74.3828ZM278.654 68.2129H287.896L283.25 54.375L278.654 68.2129ZM311.332 82H303.969V43H311.332V82ZM325.145 82H317.781V43H325.145V82ZM338.957 82H331.594V54.5273H338.957V82ZM331.162 47.418C331.162 46.3177 331.526 45.4121 332.254 44.7012C332.999 43.9902 334.006 43.6348 335.275 43.6348C336.528 43.6348 337.527 43.9902 338.271 44.7012C339.016 45.4121 339.389 46.3177 339.389 47.418C339.389 48.5352 339.008 49.4492 338.246 50.1602C337.501 50.8711 336.511 51.2266 335.275 51.2266C334.04 51.2266 333.041 50.8711 332.279 50.1602C331.535 49.4492 331.162 48.5352 331.162 47.418ZM360.945 82C360.607 81.3398 360.361 80.5189 360.209 79.5371C358.432 81.5176 356.121 82.5078 353.277 82.5078C350.586 82.5078 348.352 81.7292 346.574 80.1719C344.814 78.6146 343.934 76.651 343.934 74.2812C343.934 71.3698 345.008 69.1354 347.158 67.5781C349.325 66.0208 352.448 65.2337 356.527 65.2168H359.904V63.6426C359.904 62.373 359.574 61.3574 358.914 60.5957C358.271 59.834 357.247 59.4531 355.842 59.4531C354.606 59.4531 353.633 59.7493 352.922 60.3418C352.228 60.9342 351.881 61.7467 351.881 62.7793H344.543C344.543 61.1882 345.034 59.7155 346.016 58.3613C346.997 57.0072 348.385 55.9492 350.18 55.1875C351.974 54.4089 353.988 54.0195 356.223 54.0195C359.608 54.0195 362.291 54.8743 364.271 56.584C366.269 58.2767 367.268 60.6634 367.268 63.7441V75.6523C367.285 78.2591 367.648 80.2311 368.359 81.5684V82H360.945ZM354.877 76.8965C355.96 76.8965 356.959 76.6595 357.873 76.1855C358.787 75.6947 359.464 75.043 359.904 74.2305V69.5078H357.162C353.489 69.5078 351.534 70.7773 351.297 73.3164L351.271 73.748C351.271 74.6621 351.593 75.4154 352.236 76.0078C352.88 76.6003 353.76 76.8965 354.877 76.8965ZM379.658 54.5273L379.887 57.7012C381.85 55.2467 384.482 54.0195 387.783 54.0195C390.695 54.0195 392.861 54.8743 394.283 56.584C395.705 58.2936 396.433 60.8496 396.467 64.252V82H389.129V64.4297C389.129 62.8724 388.79 61.7467 388.113 61.0527C387.436 60.3418 386.311 59.9863 384.736 59.9863C382.671 59.9863 381.122 60.8665 380.09 62.627V82H372.752V54.5273H379.658ZM413.479 76.5918C414.833 76.5918 415.933 76.2194 416.779 75.4746C417.626 74.7298 418.066 73.7396 418.1 72.5039H424.98C424.964 74.3659 424.456 76.0755 423.457 77.6328C422.458 79.1732 421.087 80.375 419.344 81.2383C417.617 82.0846 415.704 82.5078 413.605 82.5078C409.678 82.5078 406.581 81.2637 404.312 78.7754C402.044 76.2702 400.91 72.8171 400.91 68.416V67.9336C400.91 63.7018 402.036 60.3249 404.287 57.8027C406.538 55.2806 409.628 54.0195 413.555 54.0195C416.991 54.0195 419.742 55.0013 421.807 56.9648C423.889 58.9115 424.947 61.5098 424.98 64.7598H418.1C418.066 63.3379 417.626 62.1868 416.779 61.3066C415.933 60.4095 414.816 59.9609 413.428 59.9609C411.718 59.9609 410.423 60.5872 409.543 61.8398C408.68 63.0755 408.248 65.0898 408.248 67.8828V68.6445C408.248 71.4714 408.68 73.5026 409.543 74.7383C410.406 75.974 411.718 76.5918 413.479 76.5918ZM441.814 82.5078C437.786 82.5078 434.502 81.2721 431.963 78.8008C429.441 76.3294 428.18 73.0371 428.18 68.9238V68.2129C428.18 65.4538 428.713 62.9909 429.779 60.8242C430.846 58.6406 432.352 56.9648 434.299 55.7969C436.262 54.612 438.497 54.0195 441.002 54.0195C444.76 54.0195 447.714 55.2044 449.863 57.5742C452.03 59.944 453.113 63.304 453.113 67.6543V70.6504H435.619C435.856 72.4447 436.567 73.8835 437.752 74.9668C438.954 76.0501 440.469 76.5918 442.297 76.5918C445.124 76.5918 447.333 75.5677 448.924 73.5195L452.529 77.5566C451.429 79.1139 449.939 80.3327 448.061 81.2129C446.182 82.0762 444.1 82.5078 441.814 82.5078ZM440.977 59.9609C439.521 59.9609 438.336 60.4518 437.422 61.4336C436.525 62.4154 435.949 63.8203 435.695 65.6484H445.902V65.0645C445.868 63.4395 445.428 62.1868 444.582 61.3066C443.736 60.4095 442.534 59.9609 440.977 59.9609ZM472.182 74.4082C472.182 73.5111 471.733 72.8086 470.836 72.3008C469.956 71.776 468.534 71.3105 466.57 70.9043C460.036 69.5332 456.77 66.7572 456.77 62.5762C456.77 60.1387 457.777 58.1074 459.791 56.4824C461.822 54.8405 464.471 54.0195 467.738 54.0195C471.225 54.0195 474.01 54.8405 476.092 56.4824C478.191 58.1243 479.24 60.2572 479.24 62.8809H471.902C471.902 61.8314 471.564 60.9681 470.887 60.291C470.21 59.597 469.152 59.25 467.713 59.25C466.477 59.25 465.521 59.5293 464.844 60.0879C464.167 60.6465 463.828 61.3574 463.828 62.2207C463.828 63.0332 464.209 63.6934 464.971 64.2012C465.749 64.6921 467.053 65.1237 468.881 65.4961C470.709 65.8516 472.249 66.2578 473.502 66.7148C477.378 68.1367 479.316 70.5996 479.316 74.1035C479.316 76.6087 478.242 78.64 476.092 80.1973C473.942 81.7376 471.166 82.5078 467.764 82.5078C465.462 82.5078 463.413 82.1016 461.619 81.2891C459.842 80.4596 458.445 79.334 457.43 77.9121C456.414 76.4733 455.906 74.9245 455.906 73.2656H462.863C462.931 74.569 463.413 75.5677 464.311 76.2617C465.208 76.9557 466.41 77.3027 467.916 77.3027C469.321 77.3027 470.379 77.0404 471.09 76.5156C471.818 75.974 472.182 75.2715 472.182 74.4082ZM521.77 68.5176C521.77 72.9186 520.83 76.3548 518.951 78.8262C517.072 81.2806 514.449 82.5078 511.08 82.5078C508.101 82.5078 505.723 81.3652 503.945 79.0801L503.615 82H497.014V43H504.352V56.9902C506.044 55.0098 508.27 54.0195 511.029 54.0195C514.381 54.0195 517.005 55.2552 518.9 57.7266C520.813 60.181 521.77 63.6426 521.77 68.1113V68.5176ZM514.432 67.9844C514.432 65.2083 513.992 63.1855 513.111 61.916C512.231 60.6296 510.919 59.9863 509.176 59.9863C506.84 59.9863 505.232 60.9427 504.352 62.8555V73.6973C505.249 75.627 506.874 76.5918 509.227 76.5918C511.596 76.5918 513.154 75.4238 513.898 73.0879C514.254 71.9707 514.432 70.2695 514.432 67.9844ZM538.959 82.5078C534.93 82.5078 531.646 81.2721 529.107 78.8008C526.585 76.3294 525.324 73.0371 525.324 68.9238V68.2129C525.324 65.4538 525.857 62.9909 526.924 60.8242C527.99 58.6406 529.497 56.9648 531.443 55.7969C533.407 54.612 535.641 54.0195 538.146 54.0195C541.904 54.0195 544.858 55.2044 547.008 57.5742C549.174 59.944 550.258 63.304 550.258 67.6543V70.6504H532.764C533.001 72.4447 533.712 73.8835 534.896 74.9668C536.098 76.0501 537.613 76.5918 539.441 76.5918C542.268 76.5918 544.477 75.5677 546.068 73.5195L549.674 77.5566C548.574 79.1139 547.084 80.3327 545.205 81.2129C543.326 82.0762 541.244 82.5078 538.959 82.5078ZM538.121 59.9609C536.665 59.9609 535.48 60.4518 534.566 61.4336C533.669 62.4154 533.094 63.8203 532.84 65.6484H543.047V65.0645C543.013 63.4395 542.573 62.1868 541.727 61.3066C540.88 60.4095 539.678 59.9609 538.121 59.9609ZM556.453 82V59.9102H552.365V54.5273H556.453V52.1914C556.453 49.1107 557.333 46.724 559.094 45.0312C560.871 43.3216 563.351 42.4668 566.533 42.4668C567.549 42.4668 568.793 42.6361 570.266 42.9746L570.189 48.6621C569.58 48.5098 568.835 48.4336 567.955 48.4336C565.196 48.4336 563.816 49.7285 563.816 52.3184V54.5273H569.275V59.9102H563.816V82H556.453ZM571.941 68.0098C571.941 65.2845 572.466 62.8555 573.516 60.7227C574.565 58.5898 576.072 56.9395 578.035 55.7715C580.016 54.6035 582.309 54.0195 584.916 54.0195C588.623 54.0195 591.645 55.1536 593.98 57.4219C596.333 59.6901 597.645 62.7708 597.916 66.6641L597.967 68.543C597.967 72.7578 596.79 76.1432 594.438 78.6992C592.085 81.2383 588.928 82.5078 584.967 82.5078C581.006 82.5078 577.84 81.2383 575.471 78.6992C573.118 76.1602 571.941 72.707 571.941 68.3398V68.0098ZM579.279 68.543C579.279 71.1497 579.77 73.1471 580.752 74.5352C581.734 75.9062 583.139 76.5918 584.967 76.5918C586.744 76.5918 588.132 75.9147 589.131 74.5605C590.13 73.1895 590.629 71.0059 590.629 68.0098C590.629 65.4538 590.13 63.4733 589.131 62.0684C588.132 60.6634 586.727 59.9609 584.916 59.9609C583.122 59.9609 581.734 60.6634 580.752 62.0684C579.77 63.4564 579.279 65.6146 579.279 68.543ZM617.924 61.4082C616.925 61.2728 616.045 61.2051 615.283 61.2051C612.507 61.2051 610.688 62.1445 609.824 64.0234V82H602.486V54.5273H609.418L609.621 57.8027C611.094 55.2806 613.133 54.0195 615.74 54.0195C616.553 54.0195 617.314 54.1296 618.025 54.3496L617.924 61.4082ZM633.615 82.5078C629.587 82.5078 626.303 81.2721 623.764 78.8008C621.242 76.3294 619.98 73.0371 619.98 68.9238V68.2129C619.98 65.4538 620.514 62.9909 621.58 60.8242C622.646 58.6406 624.153 56.9648 626.1 55.7969C628.063 54.612 630.298 54.0195 632.803 54.0195C636.561 54.0195 639.514 55.2044 641.664 57.5742C643.831 59.944 644.914 63.304 644.914 67.6543V70.6504H627.42C627.657 72.4447 628.368 73.8835 629.553 74.9668C630.755 76.0501 632.27 76.5918 634.098 76.5918C636.924 76.5918 639.133 75.5677 640.725 73.5195L644.33 77.5566C643.23 79.1139 641.74 80.3327 639.861 81.2129C637.982 82.0762 635.9 82.5078 633.615 82.5078ZM632.777 59.9609C631.322 59.9609 630.137 60.4518 629.223 61.4336C628.326 62.4154 627.75 63.8203 627.496 65.6484H637.703V65.0645C637.669 63.4395 637.229 62.1868 636.383 61.3066C635.536 60.4095 634.335 59.9609 632.777 59.9609ZM691.328 71.3359L696.305 45.0312H703.896L695.695 82H688.027L682.01 57.2695L675.992 82H668.324L660.123 45.0312H667.715L672.717 71.2852L678.811 45.0312H685.26L691.328 71.3359ZM705.598 68.0098C705.598 65.2845 706.122 62.8555 707.172 60.7227C708.221 58.5898 709.728 56.9395 711.691 55.7715C713.672 54.6035 715.965 54.0195 718.572 54.0195C722.279 54.0195 725.301 55.1536 727.637 57.4219C729.99 59.6901 731.301 62.7708 731.572 66.6641L731.623 68.543C731.623 72.7578 730.447 76.1432 728.094 78.6992C725.741 81.2383 722.584 82.5078 718.623 82.5078C714.662 82.5078 711.497 81.2383 709.127 78.6992C706.774 76.1602 705.598 72.707 705.598 68.3398V68.0098ZM712.936 68.543C712.936 71.1497 713.426 73.1471 714.408 74.5352C715.39 75.9062 716.795 76.5918 718.623 76.5918C720.4 76.5918 721.788 75.9147 722.787 74.5605C723.786 73.1895 724.285 71.0059 724.285 68.0098C724.285 65.4538 723.786 63.4733 722.787 62.0684C721.788 60.6634 720.383 59.9609 718.572 59.9609C716.778 59.9609 715.39 60.6634 714.408 62.0684C713.426 63.4564 712.936 65.6146 712.936 68.543ZM751.58 61.4082C750.581 61.2728 749.701 61.2051 748.939 61.2051C746.163 61.2051 744.344 62.1445 743.48 64.0234V82H736.143V54.5273H743.074L743.277 57.8027C744.75 55.2806 746.79 54.0195 749.396 54.0195C750.209 54.0195 750.971 54.1296 751.682 54.3496L751.58 61.4082ZM762.879 82H755.516V43H762.879V82ZM767.805 68.0605C767.805 63.778 768.761 60.3672 770.674 57.8281C772.604 55.2891 775.236 54.0195 778.57 54.0195C781.245 54.0195 783.454 55.0182 785.197 57.0156V43H792.561V82H785.934L785.578 79.0801C783.75 81.3652 781.397 82.5078 778.52 82.5078C775.286 82.5078 772.688 81.2383 770.725 78.6992C768.778 76.1432 767.805 72.597 767.805 68.0605ZM775.143 68.5938C775.143 71.1667 775.591 73.1387 776.488 74.5098C777.385 75.8809 778.689 76.5664 780.398 76.5664C782.667 76.5664 784.266 75.61 785.197 73.6973V62.8555C784.283 60.9427 782.701 59.9863 780.449 59.9863C776.911 59.9863 775.143 62.8555 775.143 68.5938ZM840.473 71.3359L845.449 45.0312H853.041L844.84 82H837.172L831.154 57.2695L825.137 82H817.469L809.268 45.0312H816.859L821.861 71.2852L827.955 45.0312H834.404L840.473 71.3359ZM871.754 82C871.415 81.3398 871.17 80.5189 871.018 79.5371C869.24 81.5176 866.93 82.5078 864.086 82.5078C861.395 82.5078 859.16 81.7292 857.383 80.1719C855.622 78.6146 854.742 76.651 854.742 74.2812C854.742 71.3698 855.817 69.1354 857.967 67.5781C860.133 66.0208 863.257 65.2337 867.336 65.2168H870.713V63.6426C870.713 62.373 870.383 61.3574 869.723 60.5957C869.079 59.834 868.055 59.4531 866.65 59.4531C865.415 59.4531 864.441 59.7493 863.73 60.3418C863.036 60.9342 862.689 61.7467 862.689 62.7793H855.352C855.352 61.1882 855.842 59.7155 856.824 58.3613C857.806 57.0072 859.194 55.9492 860.988 55.1875C862.783 54.4089 864.797 54.0195 867.031 54.0195C870.417 54.0195 873.1 54.8743 875.08 56.584C877.077 58.2767 878.076 60.6634 878.076 63.7441V75.6523C878.093 78.2591 878.457 80.2311 879.168 81.5684V82H871.754ZM865.686 76.8965C866.769 76.8965 867.768 76.6595 868.682 76.1855C869.596 75.6947 870.273 75.043 870.713 74.2305V69.5078H867.971C864.298 69.5078 862.342 70.7773 862.105 73.3164L862.08 73.748C862.08 74.6621 862.402 75.4154 863.045 76.0078C863.688 76.6003 864.568 76.8965 865.686 76.8965ZM899.15 61.4082C898.152 61.2728 897.271 61.2051 896.51 61.2051C893.734 61.2051 891.914 62.1445 891.051 64.0234V82H883.713V54.5273H890.645L890.848 57.8027C892.32 55.2806 894.36 54.0195 896.967 54.0195C897.779 54.0195 898.541 54.1296 899.252 54.3496L899.15 61.4082ZM924.236 82H916.619V45.0312H924.236V82Z" fill="black"/>
<g id="Group 35">
<rect id="Rectangle 57" x="777" y="121" width="11" height="11" fill="#E5E5E5" stroke="#52A1FF" stroke-width="2"/>
<rect id="Rectangle 59" x="777" y="136" width="11" height="11" fill="#E5E5E5" stroke="#52A1FF" stroke-width="2"/>
<rect id="Rectangle 58" x="792" y="121" width="11" height="11" fill="#E5E5E5" stroke="#52A1FF" stroke-width="2"/>
<rect id="Rectangle 60" x="792" y="136" width="11" height="11" fill="#E5E5E5" stroke="#52A1FF" stroke-width="2"/>
<path id="text" d="M763.453 154.547L763.492 155.484C764.112 154.755 764.948 154.391 766 154.391C767.182 154.391 767.987 154.844 768.414 155.75C768.695 155.344 769.06 155.016 769.508 154.766C769.961 154.516 770.495 154.391 771.109 154.391C772.964 154.391 773.906 155.372 773.938 157.336V163H772.492V157.422C772.492 156.818 772.354 156.367 772.078 156.07C771.802 155.768 771.339 155.617 770.688 155.617C770.151 155.617 769.706 155.779 769.352 156.102C768.997 156.419 768.792 156.849 768.734 157.391V163H767.281V157.461C767.281 156.232 766.68 155.617 765.477 155.617C764.529 155.617 763.88 156.021 763.531 156.828V163H762.086V154.547H763.453ZM779.633 163.156C778.487 163.156 777.555 162.781 776.836 162.031C776.117 161.276 775.758 160.268 775.758 159.008V158.742C775.758 157.904 775.917 157.156 776.234 156.5C776.557 155.839 777.005 155.323 777.578 154.953C778.156 154.578 778.781 154.391 779.453 154.391C780.552 154.391 781.406 154.753 782.016 155.477C782.625 156.201 782.93 157.237 782.93 158.586V159.188H777.203C777.224 160.021 777.466 160.695 777.93 161.211C778.398 161.721 778.992 161.977 779.711 161.977C780.221 161.977 780.654 161.872 781.008 161.664C781.362 161.456 781.672 161.18 781.938 160.836L782.82 161.523C782.112 162.612 781.049 163.156 779.633 163.156ZM779.453 155.578C778.87 155.578 778.38 155.792 777.984 156.219C777.589 156.641 777.344 157.234 777.25 158H781.484V157.891C781.443 157.156 781.245 156.589 780.891 156.188C780.536 155.781 780.057 155.578 779.453 155.578ZM784.258 158.703C784.258 157.406 784.565 156.365 785.18 155.578C785.794 154.786 786.599 154.391 787.594 154.391C788.583 154.391 789.367 154.729 789.945 155.406V151H791.391V163H790.062L789.992 162.094C789.414 162.802 788.609 163.156 787.578 163.156C786.599 163.156 785.799 162.755 785.18 161.953C784.565 161.151 784.258 160.104 784.258 158.812V158.703ZM785.703 158.867C785.703 159.826 785.901 160.576 786.297 161.117C786.693 161.659 787.24 161.93 787.938 161.93C788.854 161.93 789.523 161.518 789.945 160.695V156.812C789.513 156.016 788.849 155.617 787.953 155.617C787.245 155.617 786.693 155.891 786.297 156.438C785.901 156.984 785.703 157.794 785.703 158.867ZM795.211 163H793.766V154.547H795.211V163ZM793.648 152.305C793.648 152.07 793.719 151.872 793.859 151.711C794.005 151.549 794.219 151.469 794.5 151.469C794.781 151.469 794.995 151.549 795.141 151.711C795.286 151.872 795.359 152.07 795.359 152.305C795.359 152.539 795.286 152.734 795.141 152.891C794.995 153.047 794.781 153.125 794.5 153.125C794.219 153.125 794.005 153.047 793.859 152.891C793.719 152.734 793.648 152.539 793.648 152.305ZM802.75 162.164C802.188 162.826 801.362 163.156 800.273 163.156C799.372 163.156 798.685 162.896 798.211 162.375C797.742 161.849 797.505 161.073 797.5 160.047V154.547H798.945V160.008C798.945 161.289 799.466 161.93 800.508 161.93C801.612 161.93 802.346 161.518 802.711 160.695V154.547H804.156V163H802.781L802.75 162.164ZM807.719 154.547L807.758 155.484C808.378 154.755 809.214 154.391 810.266 154.391C811.448 154.391 812.253 154.844 812.68 155.75C812.961 155.344 813.326 155.016 813.773 154.766C814.227 154.516 814.76 154.391 815.375 154.391C817.229 154.391 818.172 155.372 818.203 157.336V163H816.758V157.422C816.758 156.818 816.62 156.367 816.344 156.07C816.068 155.768 815.604 155.617 814.953 155.617C814.417 155.617 813.971 155.779 813.617 156.102C813.263 156.419 813.057 156.849 813 157.391V163H811.547V157.461C811.547 156.232 810.945 155.617 809.742 155.617C808.794 155.617 808.146 156.021 807.797 156.828V163H806.352V154.547H807.719Z" fill="#52A1FF"/>
</g>
<circle id="Ellipse 45" cx="45.5" cy="139.5" r="4.5" fill="#52A1FF"/>
<circle id="Ellipse 46" cx="230.5" cy="139.5" r="4.5" fill="#52A1FF"/>
<circle id="Ellipse 48" cx="364.5" cy="139.5" r="4.5" fill="#52A1FF"/>
<circle id="Ellipse 50" cx="540.5" cy="139.5" r="4.5" fill="#52A1FF"/>
<path id="1837" d="M36.1465 158H35.8301L37.2363 149.885L34.7109 150.781L34.7578 150.441L37.5352 149.445H37.6113L36.1465 158ZM45.5625 151.637C45.4844 152.102 45.2793 152.51 44.9473 152.861C44.6152 153.209 44.1914 153.469 43.6758 153.641C44.168 153.805 44.543 154.08 44.8008 154.467C45.0625 154.85 45.1562 155.287 45.082 155.779C44.9727 156.479 44.6367 157.043 44.0742 157.473C43.5117 157.902 42.8438 158.117 42.0703 158.117C41.5742 158.117 41.1367 158.02 40.7578 157.824C40.3828 157.625 40.1094 157.35 39.9375 156.998C39.7656 156.643 39.7188 156.236 39.7969 155.779C39.8828 155.271 40.1094 154.832 40.4766 154.461C40.8438 154.086 41.3242 153.809 41.918 153.629C41.4844 153.461 41.1621 153.197 40.9512 152.838C40.7441 152.479 40.6758 152.078 40.7461 151.637C40.8516 150.969 41.1621 150.422 41.6777 149.996C42.1934 149.566 42.8027 149.352 43.5059 149.352C43.9473 149.352 44.3398 149.451 44.6836 149.65C45.0312 149.846 45.2812 150.119 45.4336 150.471C45.5898 150.818 45.6328 151.207 45.5625 151.637ZM44.7539 155.809C44.8242 155.434 44.7852 155.094 44.6367 154.789C44.4922 154.484 44.2539 154.242 43.9219 154.062C43.5898 153.883 43.2188 153.793 42.8086 153.793C42.1523 153.793 41.5645 153.98 41.0449 154.355C40.5293 154.73 40.2168 155.215 40.1074 155.809C40.002 156.398 40.1348 156.879 40.5059 157.25C40.8809 157.617 41.4004 157.801 42.0645 157.801C42.7363 157.801 43.3242 157.617 43.8281 157.25C44.3359 156.879 44.6445 156.398 44.7539 155.809ZM45.252 151.607C45.3496 151.064 45.2246 150.605 44.877 150.23C44.5293 149.855 44.0742 149.668 43.5117 149.668C42.9062 149.668 42.373 149.852 41.9121 150.219C41.4551 150.582 41.1738 151.045 41.0684 151.607C40.9668 152.146 41.084 152.594 41.4199 152.949C41.7598 153.301 42.2207 153.477 42.8027 153.477C43.3965 153.477 43.9258 153.303 44.3906 152.955C44.8594 152.607 45.1465 152.158 45.252 151.607ZM48.4043 153.488H48.9258C49.6016 153.488 50.1836 153.322 50.6719 152.99C51.1602 152.654 51.4551 152.205 51.5566 151.643C51.6582 151.064 51.5508 150.592 51.2344 150.225C50.918 149.854 50.4629 149.668 49.8691 149.668C49.2598 149.668 48.7266 149.855 48.2695 150.23C47.8164 150.602 47.5254 151.094 47.3965 151.707L47.0801 151.701C47.2012 151.006 47.5234 150.441 48.0469 150.008C48.5703 149.57 49.1777 149.352 49.8691 149.352C50.5488 149.352 51.0781 149.568 51.457 150.002C51.8359 150.432 51.9746 150.986 51.873 151.666C51.8105 152.107 51.6172 152.502 51.293 152.85C50.9727 153.197 50.5469 153.461 50.0156 153.641C50.5195 153.781 50.8984 154.039 51.1523 154.414C51.4102 154.785 51.5 155.227 51.4219 155.738C51.3164 156.438 51.002 157.01 50.4785 157.455C49.9551 157.896 49.3301 158.117 48.6035 158.117C48.123 158.117 47.6934 158.012 47.3145 157.801C46.9395 157.59 46.6602 157.293 46.4766 156.91C46.293 156.523 46.2285 156.096 46.2832 155.627H46.5996C46.5176 156.244 46.668 156.762 47.0508 157.18C47.4336 157.594 47.9492 157.801 48.5977 157.801C49.25 157.801 49.8027 157.615 50.2559 157.244C50.7129 156.873 50.9941 156.379 51.0996 155.762C51.2012 155.145 51.0586 154.666 50.6719 154.326C50.2891 153.986 49.7012 153.816 48.9082 153.816H48.3633L48.4043 153.488ZM58.7812 149.668L53.8477 158H53.5195L58.3945 149.785H53.4727L53.5137 149.469H58.8047L58.7812 149.668Z" fill="black"/>
<path id="1879" d="M220.146 158H219.83L221.236 149.885L218.711 150.781L218.758 150.441L221.535 149.445H221.611L220.146 158ZM229.562 151.637C229.484 152.102 229.279 152.51 228.947 152.861C228.615 153.209 228.191 153.469 227.676 153.641C228.168 153.805 228.543 154.08 228.801 154.467C229.062 154.85 229.156 155.287 229.082 155.779C228.973 156.479 228.637 157.043 228.074 157.473C227.512 157.902 226.844 158.117 226.07 158.117C225.574 158.117 225.137 158.02 224.758 157.824C224.383 157.625 224.109 157.35 223.938 156.998C223.766 156.643 223.719 156.236 223.797 155.779C223.883 155.271 224.109 154.832 224.477 154.461C224.844 154.086 225.324 153.809 225.918 153.629C225.484 153.461 225.162 153.197 224.951 152.838C224.744 152.479 224.676 152.078 224.746 151.637C224.852 150.969 225.162 150.422 225.678 149.996C226.193 149.566 226.803 149.352 227.506 149.352C227.947 149.352 228.34 149.451 228.684 149.65C229.031 149.846 229.281 150.119 229.434 150.471C229.59 150.818 229.633 151.207 229.562 151.637ZM228.754 155.809C228.824 155.434 228.785 155.094 228.637 154.789C228.492 154.484 228.254 154.242 227.922 154.062C227.59 153.883 227.219 153.793 226.809 153.793C226.152 153.793 225.564 153.98 225.045 154.355C224.529 154.73 224.217 155.215 224.107 155.809C224.002 156.398 224.135 156.879 224.506 157.25C224.881 157.617 225.4 157.801 226.064 157.801C226.736 157.801 227.324 157.617 227.828 157.25C228.336 156.879 228.645 156.398 228.754 155.809ZM229.252 151.607C229.35 151.064 229.225 150.605 228.877 150.23C228.529 149.855 228.074 149.668 227.512 149.668C226.906 149.668 226.373 149.852 225.912 150.219C225.455 150.582 225.174 151.045 225.068 151.607C224.967 152.146 225.084 152.594 225.42 152.949C225.76 153.301 226.221 153.477 226.803 153.477C227.396 153.477 227.926 153.303 228.391 152.955C228.859 152.607 229.146 152.158 229.252 151.607ZM236.348 149.668L231.414 158H231.086L235.961 149.785H231.039L231.08 149.469H236.371L236.348 149.668ZM241.797 153.799L241.803 153.752C241.506 154.225 241.129 154.594 240.672 154.859C240.219 155.125 239.732 155.258 239.213 155.258C238.646 155.258 238.182 155.057 237.818 154.654C237.455 154.252 237.254 153.723 237.215 153.066C237.176 152.496 237.291 151.908 237.561 151.303C237.83 150.693 238.189 150.219 238.639 149.879C239.092 149.535 239.59 149.359 240.133 149.352C240.605 149.352 241.006 149.453 241.334 149.656C241.666 149.859 241.914 150.16 242.078 150.559C242.242 150.953 242.324 151.398 242.324 151.895C242.316 152.328 242.236 152.973 242.084 153.828C241.838 155.188 241.336 156.238 240.578 156.98C239.82 157.723 238.869 158.102 237.725 158.117H237.467L237.514 157.801H237.654C238.721 157.801 239.609 157.461 240.32 156.781C241.035 156.098 241.527 155.104 241.797 153.799ZM239.213 154.941C239.775 154.941 240.322 154.76 240.854 154.396C241.385 154.029 241.729 153.59 241.885 153.078C241.959 152.621 242 152.264 242.008 152.006C242.023 151.549 241.961 151.137 241.82 150.77C241.684 150.398 241.475 150.123 241.193 149.943C240.912 149.76 240.566 149.668 240.156 149.668C239.66 149.676 239.207 149.844 238.797 150.172C238.387 150.5 238.061 150.947 237.818 151.514C237.607 152.01 237.51 152.496 237.525 152.973C237.537 153.551 237.695 154.023 238 154.391C238.309 154.758 238.713 154.941 239.213 154.941Z" fill="black"/>
<path id="1873" d="M179.146 158H178.83L180.236 149.885L177.711 150.781L177.758 150.441L180.535 149.445H180.611L179.146 158ZM188.562 151.637C188.484 152.102 188.279 152.51 187.947 152.861C187.615 153.209 187.191 153.469 186.676 153.641C187.168 153.805 187.543 154.08 187.801 154.467C188.062 154.85 188.156 155.287 188.082 155.779C187.973 156.479 187.637 157.043 187.074 157.473C186.512 157.902 185.844 158.117 185.07 158.117C184.574 158.117 184.137 158.02 183.758 157.824C183.383 157.625 183.109 157.35 182.938 156.998C182.766 156.643 182.719 156.236 182.797 155.779C182.883 155.271 183.109 154.832 183.477 154.461C183.844 154.086 184.324 153.809 184.918 153.629C184.484 153.461 184.162 153.197 183.951 152.838C183.744 152.479 183.676 152.078 183.746 151.637C183.852 150.969 184.162 150.422 184.678 149.996C185.193 149.566 185.803 149.352 186.506 149.352C186.947 149.352 187.34 149.451 187.684 149.65C188.031 149.846 188.281 150.119 188.434 150.471C188.59 150.818 188.633 151.207 188.562 151.637ZM187.754 155.809C187.824 155.434 187.785 155.094 187.637 154.789C187.492 154.484 187.254 154.242 186.922 154.062C186.59 153.883 186.219 153.793 185.809 153.793C185.152 153.793 184.564 153.98 184.045 154.355C183.529 154.73 183.217 155.215 183.107 155.809C183.002 156.398 183.135 156.879 183.506 157.25C183.881 157.617 184.4 157.801 185.064 157.801C185.736 157.801 186.324 157.617 186.828 157.25C187.336 156.879 187.645 156.398 187.754 155.809ZM188.252 151.607C188.35 151.064 188.225 150.605 187.877 150.23C187.529 149.855 187.074 149.668 186.512 149.668C185.906 149.668 185.373 149.852 184.912 150.219C184.455 150.582 184.174 151.045 184.068 151.607C183.967 152.146 184.084 152.594 184.42 152.949C184.76 153.301 185.221 153.477 185.803 153.477C186.396 153.477 186.926 153.303 187.391 152.955C187.859 152.607 188.146 152.158 188.252 151.607ZM195.348 149.668L190.414 158H190.086L194.961 149.785H190.039L190.08 149.469H195.371L195.348 149.668ZM197.838 153.488H198.359C199.035 153.488 199.617 153.322 200.105 152.99C200.594 152.654 200.889 152.205 200.99 151.643C201.092 151.064 200.984 150.592 200.668 150.225C200.352 149.854 199.896 149.668 199.303 149.668C198.693 149.668 198.16 149.855 197.703 150.23C197.25 150.602 196.959 151.094 196.83 151.707L196.514 151.701C196.635 151.006 196.957 150.441 197.48 150.008C198.004 149.57 198.611 149.352 199.303 149.352C199.982 149.352 200.512 149.568 200.891 150.002C201.27 150.432 201.408 150.986 201.307 151.666C201.244 152.107 201.051 152.502 200.727 152.85C200.406 153.197 199.98 153.461 199.449 153.641C199.953 153.781 200.332 154.039 200.586 154.414C200.844 154.785 200.934 155.227 200.855 155.738C200.75 156.438 200.436 157.01 199.912 157.455C199.389 157.896 198.764 158.117 198.037 158.117C197.557 158.117 197.127 158.012 196.748 157.801C196.373 157.59 196.094 157.293 195.91 156.91C195.727 156.523 195.662 156.096 195.717 155.627H196.033C195.951 156.244 196.102 156.762 196.484 157.18C196.867 157.594 197.383 157.801 198.031 157.801C198.684 157.801 199.236 157.615 199.689 157.244C200.146 156.873 200.428 156.379 200.533 155.762C200.635 155.145 200.492 154.666 200.105 154.326C199.723 153.986 199.135 153.816 198.342 153.816H197.797L197.838 153.488Z" fill="black"/>
<path id="1894" d="M355.146 158H354.83L356.236 149.885L353.711 150.781L353.758 150.441L356.535 149.445H356.611L355.146 158ZM364.562 151.637C364.484 152.102 364.279 152.51 363.947 152.861C363.615 153.209 363.191 153.469 362.676 153.641C363.168 153.805 363.543 154.08 363.801 154.467C364.062 154.85 364.156 155.287 364.082 155.779C363.973 156.479 363.637 157.043 363.074 157.473C362.512 157.902 361.844 158.117 361.07 158.117C360.574 158.117 360.137 158.02 359.758 157.824C359.383 157.625 359.109 157.35 358.938 156.998C358.766 156.643 358.719 156.236 358.797 155.779C358.883 155.271 359.109 154.832 359.477 154.461C359.844 154.086 360.324 153.809 360.918 153.629C360.484 153.461 360.162 153.197 359.951 152.838C359.744 152.479 359.676 152.078 359.746 151.637C359.852 150.969 360.162 150.422 360.678 149.996C361.193 149.566 361.803 149.352 362.506 149.352C362.947 149.352 363.34 149.451 363.684 149.65C364.031 149.846 364.281 150.119 364.434 150.471C364.59 150.818 364.633 151.207 364.562 151.637ZM363.754 155.809C363.824 155.434 363.785 155.094 363.637 154.789C363.492 154.484 363.254 154.242 362.922 154.062C362.59 153.883 362.219 153.793 361.809 153.793C361.152 153.793 360.564 153.98 360.045 154.355C359.529 154.73 359.217 155.215 359.107 155.809C359.002 156.398 359.135 156.879 359.506 157.25C359.881 157.617 360.4 157.801 361.064 157.801C361.736 157.801 362.324 157.617 362.828 157.25C363.336 156.879 363.645 156.398 363.754 155.809ZM364.252 151.607C364.35 151.064 364.225 150.605 363.877 150.23C363.529 149.855 363.074 149.668 362.512 149.668C361.906 149.668 361.373 149.852 360.912 150.219C360.455 150.582 360.174 151.045 360.068 151.607C359.967 152.146 360.084 152.594 360.42 152.949C360.76 153.301 361.221 153.477 361.803 153.477C362.396 153.477 362.926 153.303 363.391 152.955C363.859 152.607 364.146 152.158 364.252 151.607ZM370.363 153.799L370.369 153.752C370.072 154.225 369.695 154.594 369.238 154.859C368.785 155.125 368.299 155.258 367.779 155.258C367.213 155.258 366.748 155.057 366.385 154.654C366.021 154.252 365.82 153.723 365.781 153.066C365.742 152.496 365.857 151.908 366.127 151.303C366.396 150.693 366.756 150.219 367.205 149.879C367.658 149.535 368.156 149.359 368.699 149.352C369.172 149.352 369.572 149.453 369.9 149.656C370.232 149.859 370.48 150.16 370.645 150.559C370.809 150.953 370.891 151.398 370.891 151.895C370.883 152.328 370.803 152.973 370.65 153.828C370.404 155.188 369.902 156.238 369.145 156.98C368.387 157.723 367.436 158.102 366.291 158.117H366.033L366.08 157.801H366.221C367.287 157.801 368.176 157.461 368.887 156.781C369.602 156.098 370.094 155.104 370.363 153.799ZM367.779 154.941C368.342 154.941 368.889 154.76 369.42 154.396C369.951 154.029 370.295 153.59 370.451 153.078C370.525 152.621 370.566 152.264 370.574 152.006C370.59 151.549 370.527 151.137 370.387 150.77C370.25 150.398 370.041 150.123 369.76 149.943C369.479 149.76 369.133 149.668 368.723 149.668C368.227 149.676 367.773 149.844 367.363 150.172C366.953 150.5 366.627 150.947 366.385 151.514C366.174 152.01 366.076 152.496 366.092 152.973C366.104 153.551 366.262 154.023 366.566 154.391C366.875 154.758 367.279 154.941 367.779 154.941ZM375.941 155.357H377.365L377.324 155.674H375.889L375.484 158H375.174L375.572 155.674L371.564 155.668L371.588 155.498L376.568 149.475L376.955 149.469L375.941 155.357ZM372.115 155.357H375.625L376.574 149.896L375.977 150.676L372.115 155.357Z" fill="black"/>
<path id="1907" d="M457.146 158H456.83L458.236 149.885L455.711 150.781L455.758 150.441L458.535 149.445H458.611L457.146 158ZM465.93 153.799L465.936 153.752C465.639 154.225 465.262 154.594 464.805 154.859C464.352 155.125 463.865 155.258 463.346 155.258C462.779 155.258 462.314 155.057 461.951 154.654C461.588 154.252 461.387 153.723 461.348 153.066C461.309 152.496 461.424 151.908 461.693 151.303C461.963 150.693 462.322 150.219 462.771 149.879C463.225 149.535 463.723 149.359 464.266 149.352C464.738 149.352 465.139 149.453 465.467 149.656C465.799 149.859 466.047 150.16 466.211 150.559C466.375 150.953 466.457 151.398 466.457 151.895C466.449 152.328 466.369 152.973 466.217 153.828C465.971 155.188 465.469 156.238 464.711 156.98C463.953 157.723 463.002 158.102 461.857 158.117H461.6L461.646 157.801H461.787C462.854 157.801 463.742 157.461 464.453 156.781C465.168 156.098 465.66 155.104 465.93 153.799ZM463.346 154.941C463.908 154.941 464.455 154.76 464.986 154.396C465.518 154.029 465.861 153.59 466.018 153.078C466.092 152.621 466.133 152.264 466.141 152.006C466.156 151.549 466.094 151.137 465.953 150.77C465.816 150.398 465.607 150.123 465.326 149.943C465.045 149.76 464.699 149.668 464.289 149.668C463.793 149.676 463.34 149.844 462.93 150.172C462.52 150.5 462.193 150.947 461.951 151.514C461.74 152.01 461.643 152.496 461.658 152.973C461.67 153.551 461.828 154.023 462.133 154.391C462.441 154.758 462.846 154.941 463.346 154.941ZM469.48 158.117C469.035 158.117 468.66 158.006 468.355 157.783C468.051 157.561 467.826 157.232 467.682 156.799C467.541 156.361 467.482 155.863 467.506 155.305L467.553 154.742L467.834 153.078C468.033 151.918 468.398 151.006 468.93 150.342C469.461 149.678 470.127 149.346 470.928 149.346C471.381 149.346 471.76 149.459 472.064 149.686C472.369 149.908 472.592 150.24 472.732 150.682C472.873 151.123 472.93 151.617 472.902 152.164L472.844 152.797L472.557 154.461C472.354 155.613 471.986 156.512 471.455 157.156C470.924 157.797 470.266 158.117 469.48 158.117ZM472.586 151.52C472.535 150.902 472.369 150.439 472.088 150.131C471.807 149.818 471.422 149.662 470.934 149.662C470.23 149.662 469.637 149.963 469.152 150.564C468.672 151.162 468.336 152.012 468.145 153.113L467.875 154.695L467.828 155.193C467.789 155.678 467.822 156.125 467.928 156.535C468.033 156.945 468.217 157.26 468.479 157.479C468.74 157.693 469.072 157.801 469.475 157.801C470.174 157.801 470.762 157.506 471.238 156.916C471.719 156.322 472.053 155.498 472.24 154.443L472.486 153.049C472.588 152.475 472.621 151.965 472.586 151.52ZM479.781 149.668L474.848 158H474.52L479.395 149.785H474.473L474.514 149.469H479.805L479.781 149.668Z" fill="black"/>
<path id="1914" d="M525.146 158H524.83L526.236 149.885L523.711 150.781L523.758 150.441L526.535 149.445H526.611L525.146 158ZM533.93 153.799L533.936 153.752C533.639 154.225 533.262 154.594 532.805 154.859C532.352 155.125 531.865 155.258 531.346 155.258C530.779 155.258 530.314 155.057 529.951 154.654C529.588 154.252 529.387 153.723 529.348 153.066C529.309 152.496 529.424 151.908 529.693 151.303C529.963 150.693 530.322 150.219 530.771 149.879C531.225 149.535 531.723 149.359 532.266 149.352C532.738 149.352 533.139 149.453 533.467 149.656C533.799 149.859 534.047 150.16 534.211 150.559C534.375 150.953 534.457 151.398 534.457 151.895C534.449 152.328 534.369 152.973 534.217 153.828C533.971 155.188 533.469 156.238 532.711 156.98C531.953 157.723 531.002 158.102 529.857 158.117H529.6L529.646 157.801H529.787C530.854 157.801 531.742 157.461 532.453 156.781C533.168 156.098 533.66 155.104 533.93 153.799ZM531.346 154.941C531.908 154.941 532.455 154.76 532.986 154.396C533.518 154.029 533.861 153.59 534.018 153.078C534.092 152.621 534.133 152.264 534.141 152.006C534.156 151.549 534.094 151.137 533.953 150.77C533.816 150.398 533.607 150.123 533.326 149.943C533.045 149.76 532.699 149.668 532.289 149.668C531.793 149.676 531.34 149.844 530.93 150.172C530.52 150.5 530.193 150.947 529.951 151.514C529.74 152.01 529.643 152.496 529.658 152.973C529.67 153.551 529.828 154.023 530.133 154.391C530.441 154.758 530.846 154.941 531.346 154.941ZM538.014 158H537.697L539.104 149.885L536.578 150.781L536.625 150.441L539.402 149.445H539.479L538.014 158ZM545.941 155.357H547.365L547.324 155.674H545.889L545.484 158H545.174L545.572 155.674L541.564 155.668L541.588 155.498L546.568 149.475L546.955 149.469L545.941 155.357ZM542.115 155.357H545.625L546.574 149.896L545.977 150.676L542.115 155.357Z" fill="black"/>
<line id="Line 14" x1="53.5" y1="139.5" x2="180.5" y2="139.5" stroke="#CECCCE" stroke-linecap="round"/>
<line id="Line 15" x1="238.5" y1="139.5" x2="273.5" y2="139.5" stroke="#CECCCE" stroke-linecap="round"/>
<line id="Line 19" x1="196.5" y1="139.5" x2="222.5" y2="139.5" stroke="#CECCCE" stroke-linecap="round"/>
<line id="Line 16" x1="288.5" y1="139.5" x2="356.5" y2="139.5" stroke="#CECCCE" stroke-linecap="round"/>
<line id="Line 17" x1="372.5" y1="139.5" x2="458.5" y2="139.5" stroke="#CECCCE" stroke-linecap="round"/>
<line id="Line 18" x1="473.5" y1="139.5" x2="532.5" y2="139.5" stroke="#CECCCE" stroke-linecap="round"/>
<g id="Group 43">
<circle id="Ellipse 51" cx="188.5" cy="139.5" r="4.5" fill="#52A1FF"/>
<path id="Three Emperors" d="M180.725 106.893H178.193L176.963 114H175.246L176.477 106.893H173.975L174.227 105.469H180.977L180.725 106.893ZM182.934 108.363C183.43 107.809 184.002 107.535 184.65 107.543C185.279 107.559 185.74 107.785 186.033 108.223C186.33 108.656 186.441 109.25 186.367 110.004L185.699 114H184.047L184.721 109.986C184.74 109.834 184.744 109.693 184.732 109.564C184.693 109.143 184.447 108.926 183.994 108.914C183.549 108.898 183.158 109.09 182.822 109.488L182.025 114H180.373L181.932 105H183.59L182.934 108.363ZM191.33 109.248C191.104 109.209 190.918 109.189 190.773 109.189C190.184 109.174 189.717 109.395 189.373 109.852L188.641 114H186.988L188.09 107.66L189.643 107.654L189.49 108.428C189.889 107.83 190.381 107.531 190.967 107.531C191.131 107.531 191.322 107.559 191.541 107.613L191.33 109.248ZM194.195 114.117C193.641 114.113 193.148 113.979 192.719 113.713C192.293 113.443 191.975 113.076 191.764 112.611C191.553 112.143 191.471 111.627 191.518 111.064L191.535 110.83C191.594 110.213 191.773 109.646 192.074 109.131C192.375 108.615 192.762 108.219 193.234 107.941C193.707 107.66 194.23 107.527 194.805 107.543C195.621 107.559 196.238 107.859 196.656 108.445C197.078 109.027 197.238 109.766 197.137 110.66L197.043 111.381H193.158C193.143 111.791 193.242 112.119 193.457 112.365C193.672 112.611 193.965 112.738 194.336 112.746C194.938 112.762 195.465 112.529 195.918 112.049L196.674 112.986C196.436 113.346 196.092 113.627 195.643 113.83C195.193 114.029 194.711 114.125 194.195 114.117ZM194.723 108.908C194.418 108.9 194.146 108.996 193.908 109.195C193.674 109.395 193.463 109.74 193.275 110.232H195.549L195.584 110.08C195.607 109.924 195.609 109.775 195.59 109.635C195.551 109.408 195.455 109.232 195.303 109.107C195.15 108.979 194.957 108.912 194.723 108.908ZM200.547 114.117C199.992 114.113 199.5 113.979 199.07 113.713C198.645 113.443 198.326 113.076 198.115 112.611C197.904 112.143 197.822 111.627 197.869 111.064L197.887 110.83C197.945 110.213 198.125 109.646 198.426 109.131C198.727 108.615 199.113 108.219 199.586 107.941C200.059 107.66 200.582 107.527 201.156 107.543C201.973 107.559 202.59 107.859 203.008 108.445C203.43 109.027 203.59 109.766 203.488 110.66L203.395 111.381H199.51C199.494 111.791 199.594 112.119 199.809 112.365C200.023 112.611 200.316 112.738 200.688 112.746C201.289 112.762 201.816 112.529 202.27 112.049L203.025 112.986C202.787 113.346 202.443 113.627 201.994 113.83C201.545 114.029 201.062 114.125 200.547 114.117ZM201.074 108.908C200.77 108.9 200.498 108.996 200.26 109.195C200.025 109.395 199.814 109.74 199.627 110.232H201.9L201.936 110.08C201.959 109.924 201.961 109.775 201.941 109.635C201.902 109.408 201.807 109.232 201.654 109.107C201.502 108.979 201.309 108.912 201.074 108.908ZM168.848 124.303H165.578L165.18 126.588H169.023L168.777 128H163.217L164.699 119.469H170.248L169.996 120.893H166.17L165.812 122.926H169.094L168.848 124.303ZM172.357 121.654L172.223 122.375C172.734 121.805 173.354 121.527 174.08 121.543C174.471 121.551 174.795 121.641 175.053 121.812C175.311 121.984 175.484 122.217 175.574 122.51C176.133 121.85 176.789 121.527 177.543 121.543C178.125 121.555 178.562 121.754 178.855 122.141C179.152 122.527 179.277 123.086 179.23 123.816L179.219 123.963L178.545 128H176.887L177.561 123.951C177.576 123.807 177.582 123.672 177.578 123.547C177.551 123.137 177.316 122.926 176.875 122.914C176.422 122.914 176.033 123.156 175.709 123.641L175.691 123.775L174.953 128H173.301L173.975 123.963C173.99 123.818 173.996 123.684 173.992 123.559C173.965 123.145 173.732 122.932 173.295 122.92C172.877 122.908 172.5 123.105 172.164 123.512L171.373 128H169.721L170.816 121.66L172.357 121.654ZM185.945 124.848C185.863 125.512 185.689 126.102 185.424 126.617C185.158 127.133 184.828 127.516 184.434 127.766C184.039 128.016 183.602 128.135 183.121 128.123C182.508 128.107 182.023 127.879 181.668 127.438L181.088 130.438H179.436L180.953 121.66L182.477 121.654L182.365 122.293C182.822 121.777 183.361 121.527 183.982 121.543C184.604 121.559 185.086 121.785 185.43 122.223C185.773 122.656 185.957 123.246 185.98 123.992C185.988 124.234 185.977 124.52 185.945 124.848ZM184.305 124.725L184.34 124.162C184.348 123.783 184.277 123.482 184.129 123.26C183.984 123.037 183.771 122.922 183.49 122.914C183.01 122.898 182.613 123.102 182.301 123.523L181.826 126.137C181.971 126.531 182.281 126.736 182.758 126.752C183.156 126.764 183.488 126.609 183.754 126.289C184.02 125.969 184.203 125.447 184.305 124.725ZM189.479 128.117C188.924 128.113 188.432 127.979 188.002 127.713C187.576 127.443 187.258 127.076 187.047 126.611C186.836 126.143 186.754 125.627 186.801 125.064L186.818 124.83C186.877 124.213 187.057 123.646 187.357 123.131C187.658 122.615 188.045 122.219 188.518 121.941C188.99 121.66 189.514 121.527 190.088 121.543C190.904 121.559 191.521 121.859 191.939 122.445C192.361 123.027 192.521 123.766 192.42 124.66L192.326 125.381H188.441C188.426 125.791 188.525 126.119 188.74 126.365C188.955 126.611 189.248 126.738 189.619 126.746C190.221 126.762 190.748 126.529 191.201 126.049L191.957 126.986C191.719 127.346 191.375 127.627 190.926 127.83C190.477 128.029 189.994 128.125 189.479 128.117ZM190.006 122.908C189.701 122.9 189.43 122.996 189.191 123.195C188.957 123.395 188.746 123.74 188.559 124.232H190.832L190.867 124.08C190.891 123.924 190.893 123.775 190.873 123.635C190.834 123.408 190.738 123.232 190.586 123.107C190.434 122.979 190.24 122.912 190.006 122.908ZM197.16 123.248C196.934 123.209 196.748 123.189 196.604 123.189C196.014 123.174 195.547 123.395 195.203 123.852L194.471 128H192.818L193.92 121.66L195.473 121.654L195.32 122.428C195.719 121.83 196.211 121.531 196.797 121.531C196.961 121.531 197.152 121.559 197.371 121.613L197.16 123.248ZM200.547 121.543C201.105 121.551 201.586 121.695 201.988 121.977C202.395 122.254 202.691 122.639 202.879 123.131C203.07 123.619 203.139 124.162 203.084 124.76C202.994 125.768 202.643 126.584 202.029 127.209C201.42 127.83 200.666 128.133 199.768 128.117C199.217 128.109 198.74 127.969 198.338 127.695C197.936 127.418 197.639 127.035 197.447 126.547C197.256 126.059 197.188 125.52 197.242 124.93C197.344 123.883 197.699 123.051 198.309 122.434C198.918 121.816 199.664 121.52 200.547 121.543ZM198.877 125.533C198.885 125.908 198.973 126.205 199.141 126.424C199.309 126.639 199.545 126.75 199.85 126.758C200.357 126.773 200.756 126.541 201.045 126.061C201.334 125.576 201.469 124.941 201.449 124.156C201.434 123.781 201.342 123.482 201.174 123.26C201.01 123.033 200.773 122.916 200.465 122.908C199.973 122.893 199.578 123.125 199.281 123.605C198.988 124.082 198.854 124.725 198.877 125.533ZM207.906 123.248C207.68 123.209 207.494 123.189 207.35 123.189C206.76 123.174 206.293 123.395 205.949 123.852L205.217 128H203.564L204.666 121.66L206.219 121.654L206.066 122.428C206.465 121.83 206.957 121.531 207.543 121.531C207.707 121.531 207.898 121.559 208.117 121.613L207.906 123.248ZM211.551 126.213C211.613 125.9 211.396 125.674 210.9 125.533L210.367 125.398C209.105 125.051 208.492 124.438 208.527 123.559C208.547 122.961 208.811 122.475 209.318 122.1C209.83 121.721 210.445 121.535 211.164 121.543C211.879 121.551 212.457 121.74 212.898 122.111C213.34 122.482 213.564 122.977 213.572 123.594L211.932 123.588C211.939 123.045 211.67 122.77 211.123 122.762C210.865 122.762 210.641 122.826 210.449 122.955C210.262 123.084 210.146 123.258 210.104 123.477C210.045 123.789 210.281 124.01 210.812 124.139L211.047 124.191C211.586 124.32 211.998 124.469 212.283 124.637C212.568 124.801 212.787 125.006 212.939 125.252C213.096 125.498 213.168 125.793 213.156 126.137C213.145 126.539 213.014 126.891 212.764 127.191C212.518 127.492 212.178 127.725 211.744 127.889C211.314 128.053 210.861 128.129 210.385 128.117C209.682 128.109 209.096 127.908 208.627 127.514C208.158 127.115 207.92 126.602 207.912 125.973L209.471 125.984C209.486 126.59 209.811 126.896 210.443 126.904C210.748 126.904 210.998 126.842 211.193 126.717C211.393 126.592 211.512 126.424 211.551 126.213Z" fill="#DEAF69"/>
</g>
<g id="Group 71">
<circle id="Ellipse 47" cx="281.5" cy="139.5" r="4.5" fill="#52A1FF"/>
<path id="1882" d="M272.146 158H271.83L273.236 149.885L270.711 150.781L270.758 150.441L273.535 149.445H273.611L272.146 158ZM281.562 151.637C281.484 152.102 281.279 152.51 280.947 152.861C280.615 153.209 280.191 153.469 279.676 153.641C280.168 153.805 280.543 154.08 280.801 154.467C281.062 154.85 281.156 155.287 281.082 155.779C280.973 156.479 280.637 157.043 280.074 157.473C279.512 157.902 278.844 158.117 278.07 158.117C277.574 158.117 277.137 158.02 276.758 157.824C276.383 157.625 276.109 157.35 275.938 156.998C275.766 156.643 275.719 156.236 275.797 155.779C275.883 155.271 276.109 154.832 276.477 154.461C276.844 154.086 277.324 153.809 277.918 153.629C277.484 153.461 277.162 153.197 276.951 152.838C276.744 152.479 276.676 152.078 276.746 151.637C276.852 150.969 277.162 150.422 277.678 149.996C278.193 149.566 278.803 149.352 279.506 149.352C279.947 149.352 280.34 149.451 280.684 149.65C281.031 149.846 281.281 150.119 281.434 150.471C281.59 150.818 281.633 151.207 281.562 151.637ZM280.754 155.809C280.824 155.434 280.785 155.094 280.637 154.789C280.492 154.484 280.254 154.242 279.922 154.062C279.59 153.883 279.219 153.793 278.809 153.793C278.152 153.793 277.564 153.98 277.045 154.355C276.529 154.73 276.217 155.215 276.107 155.809C276.002 156.398 276.135 156.879 276.506 157.25C276.881 157.617 277.4 157.801 278.064 157.801C278.736 157.801 279.324 157.617 279.828 157.25C280.336 156.879 280.645 156.398 280.754 155.809ZM281.252 151.607C281.35 151.064 281.225 150.605 280.877 150.23C280.529 149.855 280.074 149.668 279.512 149.668C278.906 149.668 278.373 149.852 277.912 150.219C277.455 150.582 277.174 151.045 277.068 151.607C276.967 152.146 277.084 152.594 277.42 152.949C277.76 153.301 278.221 153.477 278.803 153.477C279.396 153.477 279.926 153.303 280.391 152.955C280.859 152.607 281.146 152.158 281.252 151.607ZM287.996 151.637C287.918 152.102 287.713 152.51 287.381 152.861C287.049 153.209 286.625 153.469 286.109 153.641C286.602 153.805 286.977 154.08 287.234 154.467C287.496 154.85 287.59 155.287 287.516 155.779C287.406 156.479 287.07 157.043 286.508 157.473C285.945 157.902 285.277 158.117 284.504 158.117C284.008 158.117 283.57 158.02 283.191 157.824C282.816 157.625 282.543 157.35 282.371 156.998C282.199 156.643 282.152 156.236 282.23 155.779C282.316 155.271 282.543 154.832 282.91 154.461C283.277 154.086 283.758 153.809 284.352 153.629C283.918 153.461 283.596 153.197 283.385 152.838C283.178 152.479 283.109 152.078 283.18 151.637C283.285 150.969 283.596 150.422 284.111 149.996C284.627 149.566 285.236 149.352 285.939 149.352C286.381 149.352 286.773 149.451 287.117 149.65C287.465 149.846 287.715 150.119 287.867 150.471C288.023 150.818 288.066 151.207 287.996 151.637ZM287.188 155.809C287.258 155.434 287.219 155.094 287.07 154.789C286.926 154.484 286.688 154.242 286.355 154.062C286.023 153.883 285.652 153.793 285.242 153.793C284.586 153.793 283.998 153.98 283.479 154.355C282.963 154.73 282.65 155.215 282.541 155.809C282.436 156.398 282.568 156.879 282.939 157.25C283.314 157.617 283.834 157.801 284.498 157.801C285.17 157.801 285.758 157.617 286.262 157.25C286.77 156.879 287.078 156.398 287.188 155.809ZM287.686 151.607C287.783 151.064 287.658 150.605 287.311 150.23C286.963 149.855 286.508 149.668 285.945 149.668C285.34 149.668 284.807 149.852 284.346 150.219C283.889 150.582 283.607 151.045 283.502 151.607C283.4 152.146 283.518 152.594 283.854 152.949C284.193 153.301 284.654 153.477 285.236 153.477C285.83 153.477 286.359 153.303 286.824 152.955C287.293 152.607 287.58 152.158 287.686 151.607ZM293.58 158H288.629L288.664 157.684L292.49 153.822C293.256 153.033 293.693 152.307 293.803 151.643C293.904 151.064 293.803 150.592 293.498 150.225C293.193 149.854 292.736 149.668 292.127 149.668C291.533 149.668 291.01 149.879 290.557 150.301C290.104 150.719 289.814 151.244 289.689 151.877H289.373C289.498 151.15 289.818 150.549 290.334 150.072C290.854 149.592 291.449 149.352 292.121 149.352C292.816 149.352 293.35 149.562 293.721 149.984C294.096 150.402 294.232 150.955 294.131 151.643C294.029 152.342 293.576 153.115 292.771 153.963L289.098 157.684H293.621L293.58 158Z" fill="black"/>
<path id="Triple Alliance" d="M273.865 106.893H271.334L270.104 114H268.387L269.617 106.893H267.115L267.367 105.469H274.117L273.865 106.893ZM277.51 109.248C277.283 109.209 277.098 109.189 276.953 109.189C276.363 109.174 275.896 109.395 275.553 109.852L274.82 114H273.168L274.27 107.66L275.822 107.654L275.67 108.428C276.068 107.83 276.561 107.531 277.146 107.531C277.311 107.531 277.502 107.559 277.721 107.613L277.51 109.248ZM279.227 114H277.562L278.664 107.66H280.328L279.227 114ZM278.857 106.049C278.85 105.787 278.936 105.57 279.115 105.398C279.295 105.227 279.512 105.141 279.766 105.141C280.016 105.133 280.232 105.209 280.416 105.369C280.6 105.529 280.695 105.736 280.703 105.99C280.711 106.232 280.629 106.443 280.457 106.623C280.289 106.803 280.068 106.896 279.795 106.904C279.549 106.912 279.332 106.838 279.145 106.682C278.961 106.525 278.865 106.314 278.857 106.049ZM286.721 110.848C286.639 111.512 286.465 112.102 286.199 112.617C285.934 113.133 285.604 113.516 285.209 113.766C284.814 114.016 284.377 114.135 283.896 114.123C283.283 114.107 282.799 113.879 282.443 113.438L281.863 116.438H280.211L281.729 107.66L283.252 107.654L283.141 108.293C283.598 107.777 284.137 107.527 284.758 107.543C285.379 107.559 285.861 107.785 286.205 108.223C286.549 108.656 286.732 109.246 286.756 109.992C286.764 110.234 286.752 110.52 286.721 110.848ZM285.08 110.725L285.115 110.162C285.123 109.783 285.053 109.482 284.904 109.26C284.76 109.037 284.547 108.922 284.266 108.914C283.785 108.898 283.389 109.102 283.076 109.523L282.602 112.137C282.746 112.531 283.057 112.736 283.533 112.752C283.932 112.764 284.264 112.609 284.529 112.289C284.795 111.969 284.979 111.447 285.08 110.725ZM288.988 114H287.324L288.889 105H290.547L288.988 114ZM293.406 114.117C292.852 114.113 292.359 113.979 291.93 113.713C291.504 113.443 291.186 113.076 290.975 112.611C290.764 112.143 290.682 111.627 290.729 111.064L290.746 110.83C290.805 110.213 290.984 109.646 291.285 109.131C291.586 108.615 291.973 108.219 292.445 107.941C292.918 107.66 293.441 107.527 294.016 107.543C294.832 107.559 295.449 107.859 295.867 108.445C296.289 109.027 296.449 109.766 296.348 110.66L296.254 111.381H292.369C292.354 111.791 292.453 112.119 292.668 112.365C292.883 112.611 293.176 112.738 293.547 112.746C294.148 112.762 294.676 112.529 295.129 112.049L295.885 112.986C295.646 113.346 295.303 113.627 294.854 113.83C294.404 114.029 293.922 114.125 293.406 114.117ZM293.934 108.908C293.629 108.9 293.357 108.996 293.119 109.195C292.885 109.395 292.674 109.74 292.486 110.232H294.76L294.795 110.08C294.818 109.924 294.82 109.775 294.801 109.635C294.762 109.408 294.666 109.232 294.514 109.107C294.361 108.979 294.168 108.912 293.934 108.908ZM265.275 126.242H262.299L261.42 128H259.527L264.086 119.469H265.674L267.297 128H265.545L265.275 126.242ZM263.002 124.818H265.059L264.578 121.643L263.002 124.818ZM269.799 128H268.135L269.699 119H271.357L269.799 128ZM272.951 128H271.287L272.852 119H274.51L272.951 128ZM276.104 128H274.439L275.541 121.66H277.205L276.104 128ZM275.734 120.049C275.727 119.787 275.812 119.57 275.992 119.398C276.172 119.227 276.389 119.141 276.643 119.141C276.893 119.133 277.109 119.209 277.293 119.369C277.477 119.529 277.572 119.736 277.58 119.99C277.588 120.232 277.506 120.443 277.334 120.623C277.166 120.803 276.945 120.896 276.672 120.904C276.426 120.912 276.209 120.838 276.021 120.682C275.838 120.525 275.742 120.314 275.734 120.049ZM281.178 128C281.127 127.84 281.105 127.648 281.113 127.426C280.637 127.902 280.098 128.133 279.496 128.117C278.941 128.109 278.48 127.93 278.113 127.578C277.75 127.223 277.58 126.785 277.604 126.266C277.631 125.574 277.92 125.045 278.471 124.678C279.025 124.307 279.768 124.121 280.697 124.121L281.471 124.133L281.553 123.752C281.576 123.623 281.582 123.5 281.57 123.383C281.551 123.199 281.48 123.057 281.359 122.955C281.242 122.85 281.086 122.795 280.891 122.791C280.633 122.783 280.414 122.848 280.234 122.984C280.055 123.117 279.939 123.311 279.889 123.564L278.23 123.57C278.258 122.965 278.535 122.475 279.062 122.1C279.594 121.721 280.248 121.535 281.025 121.543C281.744 121.559 282.307 121.773 282.713 122.188C283.119 122.598 283.289 123.127 283.223 123.775L282.736 126.811L282.707 127.186C282.699 127.463 282.732 127.697 282.807 127.889L282.801 128H281.178ZM279.906 126.834C280.383 126.85 280.799 126.643 281.154 126.213L281.359 125.117L280.785 125.111C280.176 125.127 279.736 125.312 279.467 125.668C279.369 125.797 279.309 125.955 279.285 126.143C279.254 126.354 279.297 126.521 279.414 126.646C279.535 126.768 279.699 126.83 279.906 126.834ZM286.428 121.654L286.287 122.404C286.795 121.814 287.41 121.527 288.133 121.543C288.73 121.555 289.172 121.773 289.457 122.199C289.742 122.625 289.846 123.215 289.768 123.969L289.1 128H287.447L288.127 123.951C288.146 123.799 288.15 123.66 288.139 123.535C288.088 123.137 287.838 122.932 287.389 122.92C286.955 122.904 286.566 123.105 286.223 123.523L285.432 128H283.779L284.881 121.66L286.428 121.654ZM293.178 126.758C293.482 126.766 293.736 126.684 293.939 126.512C294.143 126.336 294.275 126.104 294.338 125.814L295.891 125.809C295.863 126.254 295.723 126.654 295.469 127.01C295.219 127.365 294.883 127.643 294.461 127.842C294.043 128.041 293.602 128.135 293.137 128.123C292.367 128.111 291.758 127.846 291.309 127.326C290.859 126.807 290.643 126.115 290.658 125.252L290.676 124.93L290.682 124.865C290.787 123.834 291.135 123.018 291.725 122.416C292.314 121.811 293.043 121.52 293.91 121.543C294.625 121.559 295.191 121.793 295.609 122.246C296.031 122.695 296.238 123.289 296.23 124.027H294.689C294.689 123.688 294.615 123.42 294.467 123.225C294.318 123.029 294.096 122.924 293.799 122.908C293.01 122.885 292.531 123.461 292.363 124.637C292.305 125.062 292.283 125.422 292.299 125.715C292.338 126.398 292.631 126.746 293.178 126.758ZM299.541 128.117C298.986 128.113 298.494 127.979 298.064 127.713C297.639 127.443 297.32 127.076 297.109 126.611C296.898 126.143 296.816 125.627 296.863 125.064L296.881 124.83C296.939 124.213 297.119 123.646 297.42 123.131C297.721 122.615 298.107 122.219 298.58 121.941C299.053 121.66 299.576 121.527 300.15 121.543C300.967 121.559 301.584 121.859 302.002 122.445C302.424 123.027 302.584 123.766 302.482 124.66L302.389 125.381H298.504C298.488 125.791 298.588 126.119 298.803 126.365C299.018 126.611 299.311 126.738 299.682 126.746C300.283 126.762 300.811 126.529 301.264 126.049L302.02 126.986C301.781 127.346 301.438 127.627 300.988 127.83C300.539 128.029 300.057 128.125 299.541 128.117ZM300.068 122.908C299.764 122.9 299.492 122.996 299.254 123.195C299.02 123.395 298.809 123.74 298.621 124.232H300.895L300.93 124.08C300.953 123.924 300.955 123.775 300.936 123.635C300.896 123.408 300.801 123.232 300.648 123.107C300.496 122.979 300.303 122.912 300.068 122.908Z" fill="#6FB5DC"/>
</g>
<g id="Group 42">
<circle id="Ellipse 49" cx="466.5" cy="139.5" r="4.5" fill="#52A1FF"/>
<path id="Triple Entente" d="M458.865 106.893H456.334L455.104 114H453.387L454.617 106.893H452.115L452.367 105.469H459.117L458.865 106.893ZM462.51 109.248C462.283 109.209 462.098 109.189 461.953 109.189C461.363 109.174 460.896 109.395 460.553 109.852L459.82 114H458.168L459.27 107.66L460.822 107.654L460.67 108.428C461.068 107.83 461.561 107.531 462.146 107.531C462.311 107.531 462.502 107.559 462.721 107.613L462.51 109.248ZM464.227 114H462.562L463.664 107.66H465.328L464.227 114ZM463.857 106.049C463.85 105.787 463.936 105.57 464.115 105.398C464.295 105.227 464.512 105.141 464.766 105.141C465.016 105.133 465.232 105.209 465.416 105.369C465.6 105.529 465.695 105.736 465.703 105.99C465.711 106.232 465.629 106.443 465.457 106.623C465.289 106.803 465.068 106.896 464.795 106.904C464.549 106.912 464.332 106.838 464.145 106.682C463.961 106.525 463.865 106.314 463.857 106.049ZM471.721 110.848C471.639 111.512 471.465 112.102 471.199 112.617C470.934 113.133 470.604 113.516 470.209 113.766C469.814 114.016 469.377 114.135 468.896 114.123C468.283 114.107 467.799 113.879 467.443 113.438L466.863 116.438H465.211L466.729 107.66L468.252 107.654L468.141 108.293C468.598 107.777 469.137 107.527 469.758 107.543C470.379 107.559 470.861 107.785 471.205 108.223C471.549 108.656 471.732 109.246 471.756 109.992C471.764 110.234 471.752 110.52 471.721 110.848ZM470.08 110.725L470.115 110.162C470.123 109.783 470.053 109.482 469.904 109.26C469.76 109.037 469.547 108.922 469.266 108.914C468.785 108.898 468.389 109.102 468.076 109.523L467.602 112.137C467.746 112.531 468.057 112.736 468.533 112.752C468.932 112.764 469.264 112.609 469.529 112.289C469.795 111.969 469.979 111.447 470.08 110.725ZM473.988 114H472.324L473.889 105H475.547L473.988 114ZM478.406 114.117C477.852 114.113 477.359 113.979 476.93 113.713C476.504 113.443 476.186 113.076 475.975 112.611C475.764 112.143 475.682 111.627 475.729 111.064L475.746 110.83C475.805 110.213 475.984 109.646 476.285 109.131C476.586 108.615 476.973 108.219 477.445 107.941C477.918 107.66 478.441 107.527 479.016 107.543C479.832 107.559 480.449 107.859 480.867 108.445C481.289 109.027 481.449 109.766 481.348 110.66L481.254 111.381H477.369C477.354 111.791 477.453 112.119 477.668 112.365C477.883 112.611 478.176 112.738 478.547 112.746C479.148 112.762 479.676 112.529 480.129 112.049L480.885 112.986C480.646 113.346 480.303 113.627 479.854 113.83C479.404 114.029 478.922 114.125 478.406 114.117ZM478.934 108.908C478.629 108.9 478.357 108.996 478.119 109.195C477.885 109.395 477.674 109.74 477.486 110.232H479.76L479.795 110.08C479.818 109.924 479.82 109.775 479.801 109.635C479.762 109.408 479.666 109.232 479.514 109.107C479.361 108.979 479.168 108.912 478.934 108.908ZM452.016 124.303H448.746L448.348 126.588H452.191L451.945 128H446.385L447.867 119.469H453.416L453.164 120.893H449.338L448.98 122.926H452.262L452.016 124.303ZM455.502 121.654L455.361 122.404C455.869 121.814 456.484 121.527 457.207 121.543C457.805 121.555 458.246 121.773 458.531 122.199C458.816 122.625 458.92 123.215 458.842 123.969L458.174 128H456.521L457.201 123.951C457.221 123.799 457.225 123.66 457.213 123.535C457.162 123.137 456.912 122.932 456.463 122.92C456.029 122.904 455.641 123.105 455.297 123.523L454.506 128H452.854L453.955 121.66L455.502 121.654ZM462.826 120.102L462.551 121.66H463.605L463.389 122.902H462.334L461.795 126.078C461.771 126.277 461.787 126.43 461.842 126.535C461.896 126.641 462.029 126.697 462.24 126.705C462.303 126.709 462.471 126.699 462.744 126.676L462.627 127.971C462.334 128.068 462.018 128.113 461.678 128.105C461.135 128.098 460.73 127.928 460.465 127.596C460.199 127.264 460.09 126.814 460.137 126.248L460.682 122.902H459.785L460.002 121.66H460.898L461.168 120.102H462.826ZM466.482 128.117C465.928 128.113 465.436 127.979 465.006 127.713C464.58 127.443 464.262 127.076 464.051 126.611C463.84 126.143 463.758 125.627 463.805 125.064L463.822 124.83C463.881 124.213 464.061 123.646 464.361 123.131C464.662 122.615 465.049 122.219 465.521 121.941C465.994 121.66 466.518 121.527 467.092 121.543C467.908 121.559 468.525 121.859 468.943 122.445C469.365 123.027 469.525 123.766 469.424 124.66L469.33 125.381H465.445C465.43 125.791 465.529 126.119 465.744 126.365C465.959 126.611 466.252 126.738 466.623 126.746C467.225 126.762 467.752 126.529 468.205 126.049L468.961 126.986C468.723 127.346 468.379 127.627 467.93 127.83C467.48 128.029 466.998 128.125 466.482 128.117ZM467.01 122.908C466.705 122.9 466.434 122.996 466.195 123.195C465.961 123.395 465.75 123.74 465.562 124.232H467.836L467.871 124.08C467.895 123.924 467.896 123.775 467.877 123.635C467.838 123.408 467.742 123.232 467.59 123.107C467.438 122.979 467.244 122.912 467.01 122.908ZM472.436 121.654L472.295 122.404C472.803 121.814 473.418 121.527 474.141 121.543C474.738 121.555 475.18 121.773 475.465 122.199C475.75 122.625 475.854 123.215 475.775 123.969L475.107 128H473.455L474.135 123.951C474.154 123.799 474.158 123.66 474.146 123.535C474.096 123.137 473.846 122.932 473.396 122.92C472.963 122.904 472.574 123.105 472.23 123.523L471.439 128H469.787L470.889 121.66L472.436 121.654ZM479.76 120.102L479.484 121.66H480.539L480.322 122.902H479.268L478.729 126.078C478.705 126.277 478.721 126.43 478.775 126.535C478.83 126.641 478.963 126.697 479.174 126.705C479.236 126.709 479.404 126.699 479.678 126.676L479.561 127.971C479.268 128.068 478.951 128.113 478.611 128.105C478.068 128.098 477.664 127.928 477.398 127.596C477.133 127.264 477.023 126.814 477.07 126.248L477.615 122.902H476.719L476.936 121.66H477.832L478.102 120.102H479.76ZM483.416 128.117C482.861 128.113 482.369 127.979 481.939 127.713C481.514 127.443 481.195 127.076 480.984 126.611C480.773 126.143 480.691 125.627 480.738 125.064L480.756 124.83C480.814 124.213 480.994 123.646 481.295 123.131C481.596 122.615 481.982 122.219 482.455 121.941C482.928 121.66 483.451 121.527 484.025 121.543C484.842 121.559 485.459 121.859 485.877 122.445C486.299 123.027 486.459 123.766 486.357 124.66L486.264 125.381H482.379C482.363 125.791 482.463 126.119 482.678 126.365C482.893 126.611 483.186 126.738 483.557 126.746C484.158 126.762 484.686 126.529 485.139 126.049L485.895 126.986C485.656 127.346 485.312 127.627 484.863 127.83C484.414 128.029 483.932 128.125 483.416 128.117ZM483.943 122.908C483.639 122.9 483.367 122.996 483.129 123.195C482.895 123.395 482.684 123.74 482.496 124.232H484.77L484.805 124.08C484.828 123.924 484.83 123.775 484.811 123.635C484.771 123.408 484.676 123.232 484.523 123.107C484.371 122.979 484.178 122.912 483.943 122.908Z" fill="#ADC981"/>
</g>
<path id="War" d="M537.172 125.521L539.229 119.469H540.98L537.811 128H536.082L535.631 122.316L533.398 128H531.67L531.166 119.469H532.842L533.012 125.492L535.309 119.469H536.768L537.172 125.521ZM543.898 128C543.848 127.84 543.826 127.648 543.834 127.426C543.357 127.902 542.818 128.133 542.217 128.117C541.662 128.109 541.201 127.93 540.834 127.578C540.471 127.223 540.301 126.785 540.324 126.266C540.352 125.574 540.641 125.045 541.191 124.678C541.746 124.307 542.488 124.121 543.418 124.121L544.191 124.133L544.273 123.752C544.297 123.623 544.303 123.5 544.291 123.383C544.271 123.199 544.201 123.057 544.08 122.955C543.963 122.85 543.807 122.795 543.611 122.791C543.354 122.783 543.135 122.848 542.955 122.984C542.775 123.117 542.66 123.311 542.609 123.564L540.951 123.57C540.979 122.965 541.256 122.475 541.783 122.1C542.314 121.721 542.969 121.535 543.746 121.543C544.465 121.559 545.027 121.773 545.434 122.188C545.84 122.598 546.01 123.127 545.943 123.775L545.457 126.811L545.428 127.186C545.42 127.463 545.453 127.697 545.527 127.889L545.521 128H543.898ZM542.627 126.834C543.104 126.85 543.52 126.643 543.875 126.213L544.08 125.117L543.506 125.111C542.896 125.127 542.457 125.312 542.188 125.668C542.09 125.797 542.029 125.955 542.006 126.143C541.975 126.354 542.018 126.521 542.135 126.646C542.256 126.768 542.42 126.83 542.627 126.834ZM550.877 123.248C550.65 123.209 550.465 123.189 550.32 123.189C549.73 123.174 549.264 123.395 548.92 123.852L548.188 128H546.535L547.637 121.66L549.189 121.654L549.037 122.428C549.436 121.83 549.928 121.531 550.514 121.531C550.678 121.531 550.869 121.559 551.088 121.613L550.877 123.248Z" fill="#CF1717"/>
<g id="Group 34">
<rect id="Rectangle 61" x="873.5" y="120.5" width="7" height="7" fill="#E5E5E5" stroke="#52A1FF"/>
<rect id="Rectangle 62" x="873.5" y="130.5" width="7" height="7" fill="#E5E5E5" stroke="#52A1FF"/>
<rect id="Rectangle 67" x="873.5" y="140.5" width="7" height="7" fill="#E5E5E5" stroke="#52A1FF"/>
<rect id="Rectangle 63" x="883.5" y="120.5" width="7" height="7" fill="#E5E5E5" stroke="#52A1FF"/>
<rect id="Rectangle 65" x="893.5" y="120.5" width="7" height="7" fill="#E5E5E5" stroke="#52A1FF"/>
<rect id="Rectangle 64" x="883.5" y="130.5" width="7" height="7" fill="#E5E5E5" stroke="#52A1FF"/>
<rect id="Rectangle 68" x="883.5" y="140.5" width="7" height="7" fill="#E5E5E5" stroke="#52A1FF"/>
<rect id="Rectangle 66" x="893.5" y="130.5" width="7" height="7" fill="#E5E5E5" stroke="#52A1FF"/>
<rect id="Rectangle 69" x="893.5" y="140.5" width="7" height="7" fill="#E5E5E5" stroke="#52A1FF"/>
<path id="text_2" d="M873.664 163H872.219V151H873.664V163ZM875.602 158.695C875.602 157.867 875.763 157.122 876.086 156.461C876.414 155.799 876.867 155.289 877.445 154.93C878.029 154.57 878.693 154.391 879.438 154.391C880.589 154.391 881.518 154.789 882.227 155.586C882.94 156.383 883.297 157.443 883.297 158.766V158.867C883.297 159.69 883.138 160.43 882.82 161.086C882.508 161.737 882.057 162.245 881.469 162.609C880.885 162.974 880.214 163.156 879.453 163.156C878.307 163.156 877.378 162.758 876.664 161.961C875.956 161.164 875.602 160.109 875.602 158.797V158.695ZM877.055 158.867C877.055 159.805 877.271 160.557 877.703 161.125C878.141 161.693 878.724 161.977 879.453 161.977C880.188 161.977 880.771 161.69 881.203 161.117C881.635 160.539 881.852 159.732 881.852 158.695C881.852 157.768 881.63 157.018 881.188 156.445C880.75 155.867 880.167 155.578 879.438 155.578C878.724 155.578 878.148 155.862 877.711 156.43C877.273 156.997 877.055 157.81 877.055 158.867ZM886.477 154.547L886.523 155.609C887.169 154.797 888.013 154.391 889.055 154.391C890.841 154.391 891.742 155.398 891.758 157.414V163H890.312V157.406C890.307 156.797 890.167 156.346 889.891 156.055C889.62 155.763 889.195 155.617 888.617 155.617C888.148 155.617 887.737 155.742 887.383 155.992C887.029 156.242 886.753 156.57 886.555 156.977V163H885.109V154.547H886.477ZM893.594 158.703C893.594 157.385 893.898 156.339 894.508 155.562C895.117 154.781 895.924 154.391 896.93 154.391C897.961 154.391 898.766 154.755 899.344 155.484L899.414 154.547H900.734V162.797C900.734 163.891 900.409 164.753 899.758 165.383C899.112 166.013 898.242 166.328 897.148 166.328C896.539 166.328 895.943 166.198 895.359 165.938C894.776 165.677 894.331 165.32 894.023 164.867L894.773 164C895.393 164.766 896.151 165.148 897.047 165.148C897.75 165.148 898.297 164.951 898.688 164.555C899.083 164.159 899.281 163.602 899.281 162.883V162.156C898.703 162.823 897.914 163.156 896.914 163.156C895.924 163.156 895.122 162.758 894.508 161.961C893.898 161.164 893.594 160.078 893.594 158.703ZM895.047 158.867C895.047 159.82 895.242 160.57 895.633 161.117C896.023 161.659 896.57 161.93 897.273 161.93C898.185 161.93 898.854 161.516 899.281 160.688V156.828C898.839 156.021 898.174 155.617 897.289 155.617C896.586 155.617 896.036 155.891 895.641 156.438C895.245 156.984 895.047 157.794 895.047 158.867Z" fill="#52A1FF"/>
</g>
<g id="Group 103">
<g id="Group 36">
<rect id="Rectangle 55" x="687.5" y="124.5" width="12" height="12" fill="#E5E5E5" stroke="#52A1FF" stroke-width="3"/>
<rect id="Rectangle 56" x="705.5" y="124.5" width="12" height="12" fill="#E5E5E5" stroke="#52A1FF" stroke-width="3"/>
<path id="text_3" d="M690.016 155.758C690.016 155.367 689.867 155.065 689.57 154.852C689.279 154.633 688.766 154.445 688.031 154.289C687.302 154.133 686.721 153.945 686.289 153.727C685.862 153.508 685.544 153.247 685.336 152.945C685.133 152.643 685.031 152.284 685.031 151.867C685.031 151.174 685.323 150.589 685.906 150.109C686.495 149.63 687.245 149.391 688.156 149.391C689.115 149.391 689.891 149.638 690.484 150.133C691.083 150.628 691.383 151.26 691.383 152.031H689.93C689.93 151.635 689.76 151.294 689.422 151.008C689.089 150.721 688.667 150.578 688.156 150.578C687.63 150.578 687.219 150.693 686.922 150.922C686.625 151.151 686.477 151.451 686.477 151.82C686.477 152.169 686.615 152.432 686.891 152.609C687.167 152.786 687.664 152.956 688.383 153.117C689.107 153.279 689.693 153.471 690.141 153.695C690.589 153.919 690.919 154.19 691.133 154.508C691.352 154.82 691.461 155.203 691.461 155.656C691.461 156.411 691.159 157.018 690.555 157.477C689.951 157.93 689.167 158.156 688.203 158.156C687.526 158.156 686.927 158.036 686.406 157.797C685.885 157.557 685.477 157.224 685.18 156.797C684.888 156.365 684.742 155.898 684.742 155.398H686.188C686.214 155.883 686.406 156.268 686.766 156.555C687.13 156.836 687.609 156.977 688.203 156.977C688.75 156.977 689.188 156.867 689.516 156.648C689.849 156.424 690.016 156.128 690.016 155.758ZM694.789 150.57C695.43 149.784 696.263 149.391 697.289 149.391C699.076 149.391 699.977 150.398 699.992 152.414V158H698.547V152.406C698.542 151.797 698.401 151.346 698.125 151.055C697.854 150.763 697.43 150.617 696.852 150.617C696.383 150.617 695.971 150.742 695.617 150.992C695.263 151.242 694.987 151.57 694.789 151.977V158H693.344V146H694.789V150.57ZM701.773 153.695C701.773 152.867 701.935 152.122 702.258 151.461C702.586 150.799 703.039 150.289 703.617 149.93C704.201 149.57 704.865 149.391 705.609 149.391C706.76 149.391 707.69 149.789 708.398 150.586C709.112 151.383 709.469 152.443 709.469 153.766V153.867C709.469 154.69 709.31 155.43 708.992 156.086C708.68 156.737 708.229 157.245 707.641 157.609C707.057 157.974 706.385 158.156 705.625 158.156C704.479 158.156 703.549 157.758 702.836 156.961C702.128 156.164 701.773 155.109 701.773 153.797V153.695ZM703.227 153.867C703.227 154.805 703.443 155.557 703.875 156.125C704.312 156.693 704.896 156.977 705.625 156.977C706.359 156.977 706.943 156.69 707.375 156.117C707.807 155.539 708.023 154.732 708.023 153.695C708.023 152.768 707.802 152.018 707.359 151.445C706.922 150.867 706.339 150.578 705.609 150.578C704.896 150.578 704.32 150.862 703.883 151.43C703.445 151.997 703.227 152.81 703.227 153.867ZM715.367 150.844C715.148 150.807 714.911 150.789 714.656 150.789C713.708 150.789 713.065 151.193 712.727 152V158H711.281V149.547H712.688L712.711 150.523C713.185 149.768 713.857 149.391 714.727 149.391C715.008 149.391 715.221 149.427 715.367 149.5V150.844ZM719.055 147.5V149.547H720.633V150.664H719.055V155.906C719.055 156.245 719.125 156.5 719.266 156.672C719.406 156.839 719.646 156.922 719.984 156.922C720.151 156.922 720.38 156.891 720.672 156.828V158C720.292 158.104 719.922 158.156 719.562 158.156C718.917 158.156 718.43 157.961 718.102 157.57C717.773 157.18 717.609 156.625 717.609 155.906V150.664H716.07V149.547H717.609V147.5H719.055Z" fill="#52A1FF"/>
</g>
<circle id="short" opacity="0.1" cx="702.5" cy="139.5" r="39.5" fill="#C4C4C4"/>
</g>
<circle id="three-emperors" opacity="0.1" cx="188.5" cy="120.5" r="25.5" fill="#C4C4C4"/>
<circle id="triple-alliance" opacity="0.1" cx="280.5" cy="120.5" r="25.5" fill="#C4C4C4"/>
<circle id="triple-entente" opacity="0.1" cx="467.5" cy="120.5" r="25.5" fill="#C4C4C4"/>
<circle id="war" opacity="0.1" cx="540.5" cy="118.5" r="25.5" fill="#C4C4C4"/>
<circle id="long" opacity="0.1" cx="887.5" cy="139.5" r="39.5" fill="#C4C4C4"/>
<circle id="medium" opacity="0.1" cx="791.5" cy="138.5" r="39.5" fill="#C4C4C4"/>
</g>
</svg>
