<svg width="397" height="430" viewBox="0 0 397 430" fill="none" xmlns="http://www.w3.org/2000/svg">
<g id="Group 4" filter="url(#filter0_d)">
<g id="Rectangle 83" filter="url(#filter1_d)">
<path d="M4 0H393V422H4V0Z" fill="#F3F3F3"/>
<path d="M4 0H393V422H4V0Z" fill="#F3F3F3"/>
</g>
<rect id="a" x="121" y="145" width="46" height="200" fill="#C4C4C4"/>
<rect id="b" x="176" y="215" width="46" height="130" fill="#C4C4C4"/>
<rect id="c" x="231" y="275" width="46" height="70" fill="#C4C4C4"/>
<path id="Arrow 1" d="M106.354 118.646C106.158 118.451 105.842 118.451 105.646 118.646L102.464 121.828C102.269 122.024 102.269 122.34 102.464 122.536C102.66 122.731 102.976 122.731 103.172 122.536L106 119.707L108.828 122.536C109.024 122.731 109.34 122.731 109.536 122.536C109.731 122.34 109.731 122.024 109.536 121.828L106.354 118.646ZM106.5 349L106.5 119L105.5 119L105.5 349L106.5 349Z" fill="black"/>
<line id="Line 1" x1="104" y1="348.5" x2="308" y2="348.5" stroke="black"/>
<path id="A B C" d="M146.972 376.528H139.636L138.46 380H133.448L140.56 360.344H146.104L153.216 380H148.148L146.972 376.528ZM145.74 372.832L143.304 365.636L140.896 372.832H145.74ZM202.882 369.92C204.021 370.163 204.935 370.732 205.626 371.628C206.317 372.505 206.662 373.513 206.662 374.652C206.662 376.295 206.083 377.601 204.926 378.572C203.787 379.524 202.191 380 200.138 380H190.982V360.344H199.83C201.827 360.344 203.386 360.801 204.506 361.716C205.645 362.631 206.214 363.872 206.214 365.44C206.214 366.597 205.906 367.559 205.29 368.324C204.693 369.089 203.89 369.621 202.882 369.92ZM195.77 368.296H198.906C199.69 368.296 200.287 368.128 200.698 367.792C201.127 367.437 201.342 366.924 201.342 366.252C201.342 365.58 201.127 365.067 200.698 364.712C200.287 364.357 199.69 364.18 198.906 364.18H195.77V368.296ZM199.298 376.136C200.101 376.136 200.717 375.959 201.146 375.604C201.594 375.231 201.818 374.699 201.818 374.008C201.818 373.317 201.585 372.776 201.118 372.384C200.67 371.992 200.045 371.796 199.242 371.796H195.77V376.136H199.298ZM244.229 370.144C244.229 368.203 244.649 366.476 245.489 364.964C246.329 363.433 247.495 362.248 248.989 361.408C250.501 360.549 252.209 360.12 254.113 360.12C256.446 360.12 258.443 360.736 260.105 361.968C261.766 363.2 262.877 364.88 263.437 367.008H258.173C257.781 366.187 257.221 365.561 256.493 365.132C255.783 364.703 254.971 364.488 254.057 364.488C252.582 364.488 251.387 365.001 250.473 366.028C249.558 367.055 249.101 368.427 249.101 370.144C249.101 371.861 249.558 373.233 250.473 374.26C251.387 375.287 252.582 375.8 254.057 375.8C254.971 375.8 255.783 375.585 256.493 375.156C257.221 374.727 257.781 374.101 258.173 373.28H263.437C262.877 375.408 261.766 377.088 260.105 378.32C258.443 379.533 256.446 380.14 254.113 380.14C252.209 380.14 250.501 379.72 248.989 378.88C247.495 378.021 246.329 376.836 245.489 375.324C244.649 373.812 244.229 372.085 244.229 370.144Z" fill="black"/>
<path id="PRICE" d="M174.716 48.672C174.716 49.8107 174.455 50.856 173.932 51.808C173.409 52.7413 172.607 53.4973 171.524 54.076C170.441 54.6547 169.097 54.944 167.492 54.944H164.524V62H159.736V42.344H167.492C169.06 42.344 170.385 42.6147 171.468 43.156C172.551 43.6973 173.363 44.444 173.904 45.396C174.445 46.348 174.716 47.44 174.716 48.672ZM167.128 51.136C168.043 51.136 168.724 50.9213 169.172 50.492C169.62 50.0627 169.844 49.456 169.844 48.672C169.844 47.888 169.62 47.2813 169.172 46.852C168.724 46.4227 168.043 46.208 167.128 46.208H164.524V51.136H167.128ZM187.233 62L183.145 54.58H181.997V62H177.209V42.344H185.245C186.794 42.344 188.11 42.6147 189.193 43.156C190.294 43.6973 191.115 44.444 191.657 45.396C192.198 46.3293 192.469 47.3747 192.469 48.532C192.469 49.8387 192.095 51.0053 191.349 52.032C190.621 53.0587 189.538 53.7867 188.101 54.216L192.637 62H187.233ZM181.997 51.192H184.965C185.842 51.192 186.495 50.9773 186.925 50.548C187.373 50.1187 187.597 49.512 187.597 48.728C187.597 47.9813 187.373 47.3933 186.925 46.964C186.495 46.5347 185.842 46.32 184.965 46.32H181.997V51.192ZM200.262 42.344V62H195.474V42.344H200.262ZM202.92 52.144C202.92 50.2027 203.34 48.476 204.18 46.964C205.02 45.4333 206.187 44.248 207.68 43.408C209.192 42.5493 210.9 42.12 212.804 42.12C215.137 42.12 217.135 42.736 218.796 43.968C220.457 45.2 221.568 46.88 222.128 49.008H216.864C216.472 48.1867 215.912 47.5613 215.184 47.132C214.475 46.7027 213.663 46.488 212.748 46.488C211.273 46.488 210.079 47.0013 209.164 48.028C208.249 49.0547 207.792 50.4267 207.792 52.144C207.792 53.8613 208.249 55.2333 209.164 56.26C210.079 57.2867 211.273 57.8 212.748 57.8C213.663 57.8 214.475 57.5853 215.184 57.156C215.912 56.7267 216.472 56.1013 216.864 55.28H222.128C221.568 57.408 220.457 59.088 218.796 60.32C217.135 61.5333 215.137 62.14 212.804 62.14C210.9 62.14 209.192 61.72 207.68 60.88C206.187 60.0213 205.02 58.836 204.18 57.324C203.34 55.812 202.92 54.0853 202.92 52.144ZM229.848 46.18V50.156H236.26V53.852H229.848V58.164H237.1V62H225.06V42.344H237.1V46.18H229.848Z" fill="black"/>
</g>
<defs>
<filter id="filter0_d" x="0" y="0" width="397" height="430" filterUnits="userSpaceOnUse" color-interpolation-filters="sRGB">
<feFlood flood-opacity="0" result="BackgroundImageFix"/>
<feColorMatrix in="SourceAlpha" type="matrix" values="0 0 0 0 0 0 0 0 0 0 0 0 0 0 0 0 0 0 127 0"/>
<feOffset dy="4"/>
<feGaussianBlur stdDeviation="2"/>
<feColorMatrix type="matrix" values="0 0 0 0 0 0 0 0 0 0 0 0 0 0 0 0 0 0 0.25 0"/>
<feBlend mode="normal" in2="BackgroundImageFix" result="effect1_dropShadow"/>
<feBlend mode="normal" in="SourceGraphic" in2="effect1_dropShadow" result="shape"/>
</filter>
<filter id="filter1_d" x="0" y="0" width="397" height="430" filterUnits="userSpaceOnUse" color-interpolation-filters="sRGB">
<feFlood flood-opacity="0" result="BackgroundImageFix"/>
<feColorMatrix in="SourceAlpha" type="matrix" values="0 0 0 0 0 0 0 0 0 0 0 0 0 0 0 0 0 0 127 0"/>
<feOffset dy="4"/>
<feGaussianBlur stdDeviation="2"/>
<feColorMatrix type="matrix" values="0 0 0 0 0 0 0 0 0 0 0 0 0 0 0 0 0 0 0.25 0"/>
<feBlend mode="normal" in2="BackgroundImageFix" result="effect1_dropShadow"/>
<feBlend mode="normal" in="SourceGraphic" in2="effect1_dropShadow" result="shape"/>
</filter>
</defs>
</svg>
