<svg width="389" height="422" viewBox="0 0 389 422" fill="none" xmlns="http://www.w3.org/2000/svg">
<g id="price">
<g id="Rectangle 83">
<path d="M0 0H389V422H0V0Z" fill="#F3F3F3"/>
<path d="M0 0H389V422H0V0Z" fill="#F3F3F3"/>
</g>
<rect id="a" x="117" y="145" width="46" height="200" fill="#C4C4C4"/>
<rect id="b" x="172" y="215" width="46" height="130" fill="#C4C4C4"/>
<rect id="c" x="227" y="275" width="46" height="70" fill="#C4C4C4"/>
<path id="Arrow 1" d="M102.354 118.646C102.158 118.451 101.842 118.451 101.646 118.646L98.4645 121.828C98.2692 122.024 98.2692 122.34 98.4645 122.536C98.6597 122.731 98.9763 122.731 99.1716 122.536L102 119.707L104.828 122.536C105.024 122.731 105.34 122.731 105.536 122.536C105.731 122.34 105.731 122.024 105.536 121.828L102.354 118.646ZM102.5 349L102.5 119L101.5 119L101.5 349L102.5 349Z" fill="black"/>
<line id="Line 1" x1="100" y1="348.5" x2="304" y2="348.5" stroke="black"/>
<path id="A B C" d="M142.972 376.528H135.636L134.46 380H129.448L136.56 360.344H142.104L149.216 380H144.148L142.972 376.528ZM141.74 372.832L139.304 365.636L136.896 372.832H141.74ZM198.882 369.92C200.021 370.163 200.935 370.732 201.626 371.628C202.317 372.505 202.662 373.513 202.662 374.652C202.662 376.295 202.083 377.601 200.926 378.572C199.787 379.524 198.191 380 196.138 380H186.982V360.344H195.83C197.827 360.344 199.386 360.801 200.506 361.716C201.645 362.631 202.214 363.872 202.214 365.44C202.214 366.597 201.906 367.559 201.29 368.324C200.693 369.089 199.89 369.621 198.882 369.92ZM191.77 368.296H194.906C195.69 368.296 196.287 368.128 196.698 367.792C197.127 367.437 197.342 366.924 197.342 366.252C197.342 365.58 197.127 365.067 196.698 364.712C196.287 364.357 195.69 364.18 194.906 364.18H191.77V368.296ZM195.298 376.136C196.101 376.136 196.717 375.959 197.146 375.604C197.594 375.231 197.818 374.699 197.818 374.008C197.818 373.317 197.585 372.776 197.118 372.384C196.67 371.992 196.045 371.796 195.242 371.796H191.77V376.136H195.298ZM240.229 370.144C240.229 368.203 240.649 366.476 241.489 364.964C242.329 363.433 243.495 362.248 244.989 361.408C246.501 360.549 248.209 360.12 250.113 360.12C252.446 360.12 254.443 360.736 256.105 361.968C257.766 363.2 258.877 364.88 259.437 367.008H254.173C253.781 366.187 253.221 365.561 252.493 365.132C251.783 364.703 250.971 364.488 250.057 364.488C248.582 364.488 247.387 365.001 246.473 366.028C245.558 367.055 245.101 368.427 245.101 370.144C245.101 371.861 245.558 373.233 246.473 374.26C247.387 375.287 248.582 375.8 250.057 375.8C250.971 375.8 251.783 375.585 252.493 375.156C253.221 374.727 253.781 374.101 254.173 373.28H259.437C258.877 375.408 257.766 377.088 256.105 378.32C254.443 379.533 252.446 380.14 250.113 380.14C248.209 380.14 246.501 379.72 244.989 378.88C243.495 378.021 242.329 376.836 241.489 375.324C240.649 373.812 240.229 372.085 240.229 370.144Z" fill="black"/>
<path id="PRICE" d="M170.716 48.672C170.716 49.8107 170.455 50.856 169.932 51.808C169.409 52.7413 168.607 53.4973 167.524 54.076C166.441 54.6547 165.097 54.944 163.492 54.944H160.524V62H155.736V42.344H163.492C165.06 42.344 166.385 42.6147 167.468 43.156C168.551 43.6973 169.363 44.444 169.904 45.396C170.445 46.348 170.716 47.44 170.716 48.672ZM163.128 51.136C164.043 51.136 164.724 50.9213 165.172 50.492C165.62 50.0627 165.844 49.456 165.844 48.672C165.844 47.888 165.62 47.2813 165.172 46.852C164.724 46.4227 164.043 46.208 163.128 46.208H160.524V51.136H163.128ZM183.233 62L179.145 54.58H177.997V62H173.209V42.344H181.245C182.794 42.344 184.11 42.6147 185.193 43.156C186.294 43.6973 187.115 44.444 187.657 45.396C188.198 46.3293 188.469 47.3747 188.469 48.532C188.469 49.8387 188.095 51.0053 187.349 52.032C186.621 53.0587 185.538 53.7867 184.101 54.216L188.637 62H183.233ZM177.997 51.192H180.965C181.842 51.192 182.495 50.9773 182.925 50.548C183.373 50.1187 183.597 49.512 183.597 48.728C183.597 47.9813 183.373 47.3933 182.925 46.964C182.495 46.5347 181.842 46.32 180.965 46.32H177.997V51.192ZM196.262 42.344V62H191.474V42.344H196.262ZM198.92 52.144C198.92 50.2027 199.34 48.476 200.18 46.964C201.02 45.4333 202.187 44.248 203.68 43.408C205.192 42.5493 206.9 42.12 208.804 42.12C211.137 42.12 213.135 42.736 214.796 43.968C216.457 45.2 217.568 46.88 218.128 49.008H212.864C212.472 48.1867 211.912 47.5613 211.184 47.132C210.475 46.7027 209.663 46.488 208.748 46.488C207.273 46.488 206.079 47.0013 205.164 48.028C204.249 49.0547 203.792 50.4267 203.792 52.144C203.792 53.8613 204.249 55.2333 205.164 56.26C206.079 57.2867 207.273 57.8 208.748 57.8C209.663 57.8 210.475 57.5853 211.184 57.156C211.912 56.7267 212.472 56.1013 212.864 55.28H218.128C217.568 57.408 216.457 59.088 214.796 60.32C213.135 61.5333 211.137 62.14 208.804 62.14C206.9 62.14 205.192 61.72 203.68 60.88C202.187 60.0213 201.02 58.836 200.18 57.324C199.34 55.812 198.92 54.0853 198.92 52.144ZM225.848 46.18V50.156H232.26V53.852H225.848V58.164H233.1V62H221.06V42.344H233.1V46.18H225.848Z" fill="black"/>
</g>
</svg>
