<svg width="326" height="430" viewBox="0 0 326 430" fill="none" xmlns="http://www.w3.org/2000/svg">
<g filter="url(#filter0_d)">
<path d="M4 0H322V422H4V0Z" fill="#F3F3F3"/>
<path d="M4 0H322V422H4V0Z" fill="#F3F3F3"/>
</g>
<path d="M116.422 64.196C114.985 64.196 113.697 63.9627 112.558 63.496C111.42 63.0293 110.505 62.3387 109.814 61.424C109.142 60.5093 108.788 59.408 108.75 58.12H113.846C113.921 58.848 114.173 59.408 114.602 59.8C115.032 60.1733 115.592 60.36 116.282 60.36C116.992 60.36 117.552 60.2013 117.962 59.884C118.373 59.548 118.578 59.0907 118.578 58.512C118.578 58.0267 118.41 57.6253 118.074 57.308C117.757 56.9907 117.356 56.7293 116.87 56.524C116.404 56.3187 115.732 56.0853 114.854 55.824C113.585 55.432 112.549 55.04 111.746 54.648C110.944 54.256 110.253 53.6773 109.674 52.912C109.096 52.1467 108.806 51.148 108.806 49.916C108.806 48.0867 109.469 46.6587 110.794 45.632C112.12 44.5867 113.846 44.064 115.974 44.064C118.14 44.064 119.885 44.5867 121.21 45.632C122.536 46.6587 123.245 48.096 123.338 49.944H118.158C118.121 49.3093 117.888 48.8147 117.458 48.46C117.029 48.0867 116.478 47.9 115.806 47.9C115.228 47.9 114.761 48.0587 114.406 48.376C114.052 48.6747 113.874 49.1133 113.874 49.692C113.874 50.3267 114.173 50.8213 114.77 51.176C115.368 51.5307 116.301 51.9133 117.57 52.324C118.84 52.7533 119.866 53.164 120.65 53.556C121.453 53.948 122.144 54.5173 122.722 55.264C123.301 56.0107 123.59 56.972 123.59 58.148C123.59 59.268 123.301 60.2853 122.722 61.2C122.162 62.1147 121.341 62.8427 120.258 63.384C119.176 63.9253 117.897 64.196 116.422 64.196ZM138.773 60.528H131.437L130.261 64H125.249L132.361 44.344H137.905L145.017 64H139.949L138.773 60.528ZM137.541 56.832L135.105 49.636L132.697 56.832H137.541ZM151.969 60.304H158.241V64H147.181V44.344H151.969V60.304ZM165.313 48.18V52.156H171.725V55.852H165.313V60.164H172.565V64H160.525V44.344H172.565V48.18H165.313ZM182.786 64.196C181.348 64.196 180.06 63.9627 178.922 63.496C177.783 63.0293 176.868 62.3387 176.178 61.424C175.506 60.5093 175.151 59.408 175.114 58.12H180.21C180.284 58.848 180.536 59.408 180.966 59.8C181.395 60.1733 181.955 60.36 182.646 60.36C183.355 60.36 183.915 60.2013 184.326 59.884C184.736 59.548 184.942 59.0907 184.942 58.512C184.942 58.0267 184.774 57.6253 184.438 57.308C184.12 56.9907 183.719 56.7293 183.234 56.524C182.767 56.3187 182.095 56.0853 181.218 55.824C179.948 55.432 178.912 55.04 178.11 54.648C177.307 54.256 176.616 53.6773 176.038 52.912C175.459 52.1467 175.17 51.148 175.17 49.916C175.17 48.0867 175.832 46.6587 177.158 45.632C178.483 44.5867 180.21 44.064 182.338 44.064C184.503 44.064 186.248 44.5867 187.574 45.632C188.899 46.6587 189.608 48.096 189.702 49.944H184.522C184.484 49.3093 184.251 48.8147 183.822 48.46C183.392 48.0867 182.842 47.9 182.169 47.9C181.591 47.9 181.124 48.0587 180.77 48.376C180.415 48.6747 180.238 49.1133 180.238 49.692C180.238 50.3267 180.536 50.8213 181.133 51.176C181.731 51.5307 182.664 51.9133 183.934 52.324C185.203 52.7533 186.23 53.164 187.014 53.556C187.816 53.948 188.507 54.5173 189.086 55.264C189.664 56.0107 189.954 56.972 189.954 58.148C189.954 59.268 189.664 60.2853 189.086 61.2C188.526 62.1147 187.704 62.8427 186.622 63.384C185.539 63.9253 184.26 64.196 182.786 64.196ZM198.022 54.144C198.022 52.2027 198.442 50.476 199.282 48.964C200.122 47.4333 201.288 46.248 202.782 45.408C204.294 44.5493 206.002 44.12 207.906 44.12C210.239 44.12 212.236 44.736 213.898 45.968C215.559 47.2 216.67 48.88 217.23 51.008H211.966C211.574 50.1867 211.014 49.5613 210.286 49.132C209.576 48.7027 208.764 48.488 207.85 48.488C206.375 48.488 205.18 49.0013 204.266 50.028C203.351 51.0547 202.894 52.4267 202.894 54.144C202.894 55.8613 203.351 57.2333 204.266 58.26C205.18 59.2867 206.375 59.8 207.85 59.8C208.764 59.8 209.576 59.5853 210.286 59.156C211.014 58.7267 211.574 58.1013 211.966 57.28H217.23C216.67 59.408 215.559 61.088 213.898 62.32C212.236 63.5333 210.239 64.14 207.906 64.14C206.002 64.14 204.294 63.72 202.782 62.88C201.288 62.0213 200.122 60.836 199.282 59.324C198.442 57.812 198.022 56.0853 198.022 54.144Z" fill="black"/>
<path d="M271.354 378.354C271.549 378.158 271.549 377.842 271.354 377.646L268.172 374.464C267.976 374.269 267.66 374.269 267.464 374.464C267.269 374.66 267.269 374.976 267.464 375.172L270.293 378L267.464 380.828C267.269 381.024 267.269 381.34 267.464 381.536C267.66 381.731 267.976 381.731 268.172 381.536L271.354 378.354ZM56 378.5L271 378.5V377.5L56 377.5V378.5Z" fill="black"/>
<line x1="56.5" y1="93" x2="56.5" y2="378" stroke="black"/>
<path d="M82 320L113.827 286.311L144.455 141.727L178.279 178.224L199.452 122.075L219.028 94L241 155.764" stroke="black" stroke-width="3"/>
<defs>
<filter id="filter0_d" x="0" y="0" width="326" height="430" filterUnits="userSpaceOnUse" color-interpolation-filters="sRGB">
<feFlood flood-opacity="0" result="BackgroundImageFix"/>
<feColorMatrix in="SourceAlpha" type="matrix" values="0 0 0 0 0 0 0 0 0 0 0 0 0 0 0 0 0 0 127 0"/>
<feOffset dy="4"/>
<feGaussianBlur stdDeviation="2"/>
<feColorMatrix type="matrix" values="0 0 0 0 0 0 0 0 0 0 0 0 0 0 0 0 0 0 0.25 0"/>
<feBlend mode="normal" in2="BackgroundImageFix" result="effect1_dropShadow"/>
<feBlend mode="normal" in="SourceGraphic" in2="effect1_dropShadow" result="shape"/>
</filter>
</defs>
</svg>
