<svg width="326" height="430" viewBox="0 0 326 430" fill="none" xmlns="http://www.w3.org/2000/svg">
<g filter="url(#filter0_d)">
<path d="M4 0H322V422H4V0Z" fill="#F3F3F3"/>
<path d="M4 0H322V422H4V0Z" fill="#F3F3F3"/>
</g>
<path d="M117.858 61.196C116.42 61.196 115.132 60.9627 113.994 60.496C112.855 60.0293 111.94 59.3387 111.25 58.424C110.578 57.5093 110.223 56.408 110.186 55.12H115.282C115.356 55.848 115.608 56.408 116.038 56.8C116.467 57.1733 117.027 57.36 117.718 57.36C118.427 57.36 118.987 57.2013 119.398 56.884C119.808 56.548 120.014 56.0907 120.014 55.512C120.014 55.0267 119.846 54.6253 119.51 54.308C119.192 53.9907 118.791 53.7293 118.306 53.524C117.839 53.3187 117.167 53.0853 116.29 52.824C115.02 52.432 113.984 52.04 113.182 51.648C112.379 51.256 111.688 50.6773 111.11 49.912C110.531 49.1467 110.242 48.148 110.242 46.916C110.242 45.0867 110.904 43.6587 112.23 42.632C113.555 41.5867 115.282 41.064 117.41 41.064C119.575 41.064 121.32 41.5867 122.646 42.632C123.971 43.6587 124.68 45.096 124.774 46.944H119.594C119.556 46.3093 119.323 45.8147 118.894 45.46C118.464 45.0867 117.914 44.9 117.242 44.9C116.663 44.9 116.196 45.0587 115.842 45.376C115.487 45.6747 115.31 46.1133 115.31 46.692C115.31 47.3267 115.608 47.8213 116.206 48.176C116.803 48.5307 117.736 48.9133 119.006 49.324C120.275 49.7533 121.302 50.164 122.086 50.556C122.888 50.948 123.579 51.5173 124.158 52.264C124.736 53.0107 125.026 53.972 125.026 55.148C125.026 56.268 124.736 57.2853 124.158 58.2C123.598 59.1147 122.776 59.8427 121.694 60.384C120.611 60.9253 119.332 61.196 117.858 61.196ZM140.208 57.528H132.872L131.696 61H126.684L133.796 41.344H139.34L146.452 61H141.384L140.208 57.528ZM138.976 53.832L136.54 46.636L134.132 53.832H138.976ZM153.405 57.304H159.677V61H148.617V41.344H153.405V57.304ZM166.749 45.18V49.156H173.161V52.852H166.749V57.164H174.001V61H161.961V41.344H174.001V45.18H166.749ZM184.221 61.196C182.784 61.196 181.496 60.9627 180.357 60.496C179.218 60.0293 178.304 59.3387 177.613 58.424C176.941 57.5093 176.586 56.408 176.549 55.12H181.645C181.72 55.848 181.972 56.408 182.401 56.8C182.83 57.1733 183.39 57.36 184.081 57.36C184.79 57.36 185.35 57.2013 185.761 56.884C186.172 56.548 186.377 56.0907 186.377 55.512C186.377 55.0267 186.209 54.6253 185.873 54.308C185.556 53.9907 185.154 53.7293 184.669 53.524C184.202 53.3187 183.53 53.0853 182.653 52.824C181.384 52.432 180.348 52.04 179.545 51.648C178.742 51.256 178.052 50.6773 177.473 49.912C176.894 49.1467 176.605 48.148 176.605 46.916C176.605 45.0867 177.268 43.6587 178.593 42.632C179.918 41.5867 181.645 41.064 183.773 41.064C185.938 41.064 187.684 41.5867 189.009 42.632C190.334 43.6587 191.044 45.096 191.137 46.944H185.957C185.92 46.3093 185.686 45.8147 185.257 45.46C184.828 45.0867 184.277 44.9 183.605 44.9C183.026 44.9 182.56 45.0587 182.205 45.376C181.85 45.6747 181.673 46.1133 181.673 46.692C181.673 47.3267 181.972 47.8213 182.569 48.176C183.166 48.5307 184.1 48.9133 185.369 49.324C186.638 49.7533 187.665 50.164 188.449 50.556C189.252 50.948 189.942 51.5173 190.521 52.264C191.1 53.0107 191.389 53.972 191.389 55.148C191.389 56.268 191.1 57.2853 190.521 58.2C189.961 59.1147 189.14 59.8427 188.057 60.384C186.974 60.9253 185.696 61.196 184.221 61.196ZM212.169 50.92C213.308 51.1627 214.223 51.732 214.913 52.628C215.604 53.5053 215.949 54.5133 215.949 55.652C215.949 57.2947 215.371 58.6013 214.213 59.572C213.075 60.524 211.479 61 209.425 61H200.269V41.344H209.117C211.115 41.344 212.673 41.8013 213.793 42.716C214.932 43.6307 215.501 44.872 215.501 46.44C215.501 47.5973 215.193 48.5587 214.577 49.324C213.98 50.0893 213.177 50.6213 212.169 50.92ZM205.057 49.296H208.193C208.977 49.296 209.575 49.128 209.985 48.792C210.415 48.4373 210.629 47.924 210.629 47.252C210.629 46.58 210.415 46.0667 209.985 45.712C209.575 45.3573 208.977 45.18 208.193 45.18H205.057V49.296ZM208.585 57.136C209.388 57.136 210.004 56.9587 210.433 56.604C210.881 56.2307 211.105 55.6987 211.105 55.008C211.105 54.3173 210.872 53.776 210.405 53.384C209.957 52.992 209.332 52.796 208.529 52.796H205.057V57.136H208.585Z" fill="black"/>
<path d="M281.354 378.354C281.549 378.158 281.549 377.842 281.354 377.646L278.172 374.464C277.976 374.269 277.66 374.269 277.464 374.464C277.269 374.66 277.269 374.976 277.464 375.172L280.293 378L277.464 380.828C277.269 381.024 277.269 381.34 277.464 381.536C277.66 381.731 277.976 381.731 278.172 381.536L281.354 378.354ZM44 378.5L281 378.5V377.5L44 377.5L44 378.5Z" fill="black"/>
<path id="b" d="M60 146.28L96.6421 244.79L130.047 176.804L169.632 310L192 208.022L213.632 268.376L236 122" stroke="black" stroke-width="3"/>
<line x1="44.5" y1="94" x2="44.5" y2="378" stroke="black"/>
<defs>
<filter id="filter0_d" x="0" y="0" width="326" height="430" filterUnits="userSpaceOnUse" color-interpolation-filters="sRGB">
<feFlood flood-opacity="0" result="BackgroundImageFix"/>
<feColorMatrix in="SourceAlpha" type="matrix" values="0 0 0 0 0 0 0 0 0 0 0 0 0 0 0 0 0 0 127 0"/>
<feOffset dy="4"/>
<feGaussianBlur stdDeviation="2"/>
<feColorMatrix type="matrix" values="0 0 0 0 0 0 0 0 0 0 0 0 0 0 0 0 0 0 0.25 0"/>
<feBlend mode="normal" in2="BackgroundImageFix" result="effect1_dropShadow"/>
<feBlend mode="normal" in="SourceGraphic" in2="effect1_dropShadow" result="shape"/>
</filter>
</defs>
</svg>
