<svg width="318" height="422" viewBox="0 0 318 422" fill="none" xmlns="http://www.w3.org/2000/svg">
<path d="M0 0H318V422H0V0Z" fill="#F3F3F3"/>
<path d="M0 0H318V422H0V0Z" fill="#F3F3F3"/>
<path d="M113.858 61.196C112.42 61.196 111.132 60.9627 109.994 60.496C108.855 60.0293 107.94 59.3387 107.25 58.424C106.578 57.5093 106.223 56.408 106.186 55.12H111.282C111.356 55.848 111.608 56.408 112.038 56.8C112.467 57.1733 113.027 57.36 113.718 57.36C114.427 57.36 114.987 57.2013 115.398 56.884C115.808 56.548 116.014 56.0907 116.014 55.512C116.014 55.0267 115.846 54.6253 115.51 54.308C115.192 53.9907 114.791 53.7293 114.306 53.524C113.839 53.3187 113.167 53.0853 112.29 52.824C111.02 52.432 109.984 52.04 109.182 51.648C108.379 51.256 107.688 50.6773 107.11 49.912C106.531 49.1467 106.242 48.148 106.242 46.916C106.242 45.0867 106.904 43.6587 108.23 42.632C109.555 41.5867 111.282 41.064 113.41 41.064C115.575 41.064 117.32 41.5867 118.646 42.632C119.971 43.6587 120.68 45.096 120.774 46.944H115.594C115.556 46.3093 115.323 45.8147 114.894 45.46C114.464 45.0867 113.914 44.9 113.242 44.9C112.663 44.9 112.196 45.0587 111.842 45.376C111.487 45.6747 111.31 46.1133 111.31 46.692C111.31 47.3267 111.608 47.8213 112.206 48.176C112.803 48.5307 113.736 48.9133 115.006 49.324C116.275 49.7533 117.302 50.164 118.086 50.556C118.888 50.948 119.579 51.5173 120.158 52.264C120.736 53.0107 121.026 53.972 121.026 55.148C121.026 56.268 120.736 57.2853 120.158 58.2C119.598 59.1147 118.776 59.8427 117.694 60.384C116.611 60.9253 115.332 61.196 113.858 61.196ZM136.208 57.528H128.872L127.696 61H122.684L129.796 41.344H135.34L142.452 61H137.384L136.208 57.528ZM134.976 53.832L132.54 46.636L130.132 53.832H134.976ZM149.405 57.304H155.677V61H144.617V41.344H149.405V57.304ZM162.749 45.18V49.156H169.161V52.852H162.749V57.164H170.001V61H157.961V41.344H170.001V45.18H162.749ZM180.221 61.196C178.784 61.196 177.496 60.9627 176.357 60.496C175.218 60.0293 174.304 59.3387 173.613 58.424C172.941 57.5093 172.586 56.408 172.549 55.12H177.645C177.72 55.848 177.972 56.408 178.401 56.8C178.83 57.1733 179.39 57.36 180.081 57.36C180.79 57.36 181.35 57.2013 181.761 56.884C182.172 56.548 182.377 56.0907 182.377 55.512C182.377 55.0267 182.209 54.6253 181.873 54.308C181.556 53.9907 181.154 53.7293 180.669 53.524C180.202 53.3187 179.53 53.0853 178.653 52.824C177.384 52.432 176.348 52.04 175.545 51.648C174.742 51.256 174.052 50.6773 173.473 49.912C172.894 49.1467 172.605 48.148 172.605 46.916C172.605 45.0867 173.268 43.6587 174.593 42.632C175.918 41.5867 177.645 41.064 179.773 41.064C181.938 41.064 183.684 41.5867 185.009 42.632C186.334 43.6587 187.044 45.096 187.137 46.944H181.957C181.92 46.3093 181.686 45.8147 181.257 45.46C180.828 45.0867 180.277 44.9 179.605 44.9C179.026 44.9 178.56 45.0587 178.205 45.376C177.85 45.6747 177.673 46.1133 177.673 46.692C177.673 47.3267 177.972 47.8213 178.569 48.176C179.166 48.5307 180.1 48.9133 181.369 49.324C182.638 49.7533 183.665 50.164 184.449 50.556C185.252 50.948 185.942 51.5173 186.521 52.264C187.1 53.0107 187.389 53.972 187.389 55.148C187.389 56.268 187.1 57.2853 186.521 58.2C185.961 59.1147 185.14 59.8427 184.057 60.384C182.974 60.9253 181.696 61.196 180.221 61.196ZM208.169 50.92C209.308 51.1627 210.223 51.732 210.913 52.628C211.604 53.5053 211.949 54.5133 211.949 55.652C211.949 57.2947 211.371 58.6013 210.213 59.572C209.075 60.524 207.479 61 205.425 61H196.269V41.344H205.117C207.115 41.344 208.673 41.8013 209.793 42.716C210.932 43.6307 211.501 44.872 211.501 46.44C211.501 47.5973 211.193 48.5587 210.577 49.324C209.98 50.0893 209.177 50.6213 208.169 50.92ZM201.057 49.296H204.193C204.977 49.296 205.575 49.128 205.985 48.792C206.415 48.4373 206.629 47.924 206.629 47.252C206.629 46.58 206.415 46.0667 205.985 45.712C205.575 45.3573 204.977 45.18 204.193 45.18H201.057V49.296ZM204.585 57.136C205.388 57.136 206.004 56.9587 206.433 56.604C206.881 56.2307 207.105 55.6987 207.105 55.008C207.105 54.3173 206.872 53.776 206.405 53.384C205.957 52.992 205.332 52.796 204.529 52.796H201.057V57.136H204.585Z" fill="black"/>
<path d="M277.354 378.354C277.549 378.158 277.549 377.842 277.354 377.646L274.172 374.464C273.976 374.269 273.66 374.269 273.464 374.464C273.269 374.66 273.269 374.976 273.464 375.172L276.293 378L273.464 380.828C273.269 381.024 273.269 381.34 273.464 381.536C273.66 381.731 273.976 381.731 274.172 381.536L277.354 378.354ZM40 378.5L277 378.5V377.5L40 377.5L40 378.5Z" fill="black"/>
<path fill-rule="evenodd" clip-rule="evenodd" d="M233.483 122.227L211.115 268.603L208.22 268.883L188.348 213.438L167.097 310.321L164.194 310.427L125.702 180.908L92.4514 248.579L54.5941 146.803L57.4059 145.758L92.8329 241L126.392 172.701L165.413 303.998L187.652 202.606L209.045 262.291L230.517 121.773L233.483 122.227Z" fill="black"/>
<line x1="40.5" y1="94" x2="40.5" y2="378" stroke="black"/>
</svg>
