<svg width="1018" height="422" viewBox="0 0 1018 422" fill="none" xmlns="http://www.w3.org/2000/svg">
<g id="sales-b">
<g id="Rectangle 84">
<path d="M0 0H1018V422H0V0Z" fill="#F3F3F3"/>
<path d="M0 0H1018V422H0V0Z" fill="#F3F3F3"/>
</g>
<path id="Arrow 2" d="M909.354 336.354C909.549 336.158 909.549 335.842 909.354 335.646L906.172 332.464C905.976 332.269 905.66 332.269 905.464 332.464C905.269 332.66 905.269 332.976 905.464 333.172L908.293 336L905.464 338.828C905.269 339.024 905.269 339.34 905.464 339.536C905.66 339.731 905.976 339.731 906.172 339.536L909.354 336.354ZM147 336.5L909 336.5V335.5L147 335.5V336.5Z" fill="black"/>
<path id="b" fill-rule="evenodd" clip-rule="evenodd" d="M839.717 152.877L762.916 259.489L689.22 215.874L613.145 289.446L478.317 193.213L364.907 242.174L239.757 170.803L241.243 168.197L365.093 238.826L478.683 189.787L612.855 285.554L688.78 212.127L762.084 255.511L837.283 151.123L839.717 152.877Z" fill="black"/>
<line id="Line 2" x1="147.5" y1="132" x2="147.5" y2="336" stroke="black"/>
<path id="SALES B" d="M459.848 62.196C458.411 62.196 457.123 61.9627 455.984 61.496C454.845 61.0293 453.931 60.3387 453.24 59.424C452.568 58.5093 452.213 57.408 452.176 56.12H457.272C457.347 56.848 457.599 57.408 458.028 57.8C458.457 58.1733 459.017 58.36 459.708 58.36C460.417 58.36 460.977 58.2013 461.388 57.884C461.799 57.548 462.004 57.0907 462.004 56.512C462.004 56.0267 461.836 55.6253 461.5 55.308C461.183 54.9907 460.781 54.7293 460.296 54.524C459.829 54.3187 459.157 54.0853 458.28 53.824C457.011 53.432 455.975 53.04 455.172 52.648C454.369 52.256 453.679 51.6773 453.1 50.912C452.521 50.1467 452.232 49.148 452.232 47.916C452.232 46.0867 452.895 44.6587 454.22 43.632C455.545 42.5867 457.272 42.064 459.4 42.064C461.565 42.064 463.311 42.5867 464.636 43.632C465.961 44.6587 466.671 46.096 466.764 47.944H461.584C461.547 47.3093 461.313 46.8147 460.884 46.46C460.455 46.0867 459.904 45.9 459.232 45.9C458.653 45.9 458.187 46.0587 457.832 46.376C457.477 46.6747 457.3 47.1133 457.3 47.692C457.3 48.3267 457.599 48.8213 458.196 49.176C458.793 49.5307 459.727 49.9133 460.996 50.324C462.265 50.7533 463.292 51.164 464.076 51.556C464.879 51.948 465.569 52.5173 466.148 53.264C466.727 54.0107 467.016 54.972 467.016 56.148C467.016 57.268 466.727 58.2853 466.148 59.2C465.588 60.1147 464.767 60.8427 463.684 61.384C462.601 61.9253 461.323 62.196 459.848 62.196ZM482.199 58.528H474.863L473.687 62H468.675L475.787 42.344H481.331L488.443 62H483.375L482.199 58.528ZM480.967 54.832L478.531 47.636L476.123 54.832H480.967ZM495.395 58.304H501.667V62H490.607V42.344H495.395V58.304ZM508.739 46.18V50.156H515.151V53.852H508.739V58.164H515.991V62H503.951V42.344H515.991V46.18H508.739ZM526.211 62.196C524.774 62.196 523.486 61.9627 522.347 61.496C521.209 61.0293 520.294 60.3387 519.603 59.424C518.931 58.5093 518.577 57.408 518.539 56.12H523.635C523.71 56.848 523.962 57.408 524.391 57.8C524.821 58.1733 525.381 58.36 526.071 58.36C526.781 58.36 527.341 58.2013 527.751 57.884C528.162 57.548 528.367 57.0907 528.367 56.512C528.367 56.0267 528.199 55.6253 527.863 55.308C527.546 54.9907 527.145 54.7293 526.659 54.524C526.193 54.3187 525.521 54.0853 524.643 53.824C523.374 53.432 522.338 53.04 521.535 52.648C520.733 52.256 520.042 51.6773 519.463 50.912C518.885 50.1467 518.595 49.148 518.595 47.916C518.595 46.0867 519.258 44.6587 520.583 43.632C521.909 42.5867 523.635 42.064 525.763 42.064C527.929 42.064 529.674 42.5867 530.999 43.632C532.325 44.6587 533.034 46.096 533.127 47.944H527.947C527.91 47.3093 527.677 46.8147 527.247 46.46C526.818 46.0867 526.267 45.9 525.595 45.9C525.017 45.9 524.55 46.0587 524.195 46.376C523.841 46.6747 523.663 47.1133 523.663 47.692C523.663 48.3267 523.962 48.8213 524.559 49.176C525.157 49.5307 526.09 49.9133 527.359 50.324C528.629 50.7533 529.655 51.164 530.439 51.556C531.242 51.948 531.933 52.5173 532.511 53.264C533.09 54.0107 533.379 54.972 533.379 56.148C533.379 57.268 533.09 58.2853 532.511 59.2C531.951 60.1147 531.13 60.8427 530.047 61.384C528.965 61.9253 527.686 62.196 526.211 62.196ZM554.159 51.92C555.298 52.1627 556.213 52.732 556.903 53.628C557.594 54.5053 557.939 55.5133 557.939 56.652C557.939 58.2947 557.361 59.6013 556.203 60.572C555.065 61.524 553.469 62 551.415 62H542.259V42.344H551.107C553.105 42.344 554.663 42.8013 555.783 43.716C556.922 44.6307 557.491 45.872 557.491 47.44C557.491 48.5973 557.183 49.5587 556.567 50.324C555.97 51.0893 555.167 51.6213 554.159 51.92ZM547.047 50.296H550.183C550.967 50.296 551.565 50.128 551.975 49.792C552.405 49.4373 552.619 48.924 552.619 48.252C552.619 47.58 552.405 47.0667 551.975 46.712C551.565 46.3573 550.967 46.18 550.183 46.18H547.047V50.296ZM550.575 58.136C551.378 58.136 551.994 57.9587 552.423 57.604C552.871 57.2307 553.095 56.6987 553.095 56.008C553.095 55.3173 552.862 54.776 552.395 54.384C551.947 53.992 551.322 53.796 550.519 53.796H547.047V58.136H550.575Z" fill="black"/>
<path id="Time" d="M852.876 357.344V361.18H847.668V377H842.88V361.18H837.672V357.344H852.876ZM857.687 359.752C856.847 359.752 856.156 359.509 855.615 359.024C855.092 358.52 854.831 357.904 854.831 357.176C854.831 356.429 855.092 355.813 855.615 355.328C856.156 354.824 856.847 354.572 857.687 354.572C858.508 354.572 859.18 354.824 859.703 355.328C860.244 355.813 860.515 356.429 860.515 357.176C860.515 357.904 860.244 358.52 859.703 359.024C859.18 359.509 858.508 359.752 857.687 359.752ZM860.067 361.376V377H855.279V361.376H860.067ZM883.473 361.208C885.414 361.208 886.954 361.796 888.093 362.972C889.25 364.148 889.829 365.781 889.829 367.872V377H885.069V368.516C885.069 367.508 884.798 366.733 884.257 366.192C883.734 365.632 883.006 365.352 882.073 365.352C881.139 365.352 880.402 365.632 879.861 366.192C879.338 366.733 879.077 367.508 879.077 368.516V377H874.317V368.516C874.317 367.508 874.046 366.733 873.505 366.192C872.982 365.632 872.254 365.352 871.321 365.352C870.387 365.352 869.65 365.632 869.109 366.192C868.586 366.733 868.325 367.508 868.325 368.516V377H863.537V361.376H868.325V363.336C868.81 362.683 869.445 362.169 870.229 361.796C871.013 361.404 871.899 361.208 872.889 361.208C874.065 361.208 875.11 361.46 876.025 361.964C876.958 362.468 877.686 363.187 878.209 364.12C878.75 363.261 879.487 362.561 880.421 362.02C881.354 361.479 882.371 361.208 883.473 361.208ZM907.905 368.936C907.905 369.384 907.877 369.851 907.821 370.336H896.985C897.06 371.307 897.368 372.053 897.909 372.576C898.469 373.08 899.151 373.332 899.953 373.332C901.148 373.332 901.979 372.828 902.445 371.82H907.541C907.28 372.847 906.804 373.771 906.113 374.592C905.441 375.413 904.592 376.057 903.565 376.524C902.539 376.991 901.391 377.224 900.121 377.224C898.591 377.224 897.228 376.897 896.033 376.244C894.839 375.591 893.905 374.657 893.233 373.444C892.561 372.231 892.225 370.812 892.225 369.188C892.225 367.564 892.552 366.145 893.205 364.932C893.877 363.719 894.811 362.785 896.005 362.132C897.2 361.479 898.572 361.152 900.121 361.152C901.633 361.152 902.977 361.469 904.153 362.104C905.329 362.739 906.244 363.644 906.897 364.82C907.569 365.996 907.905 367.368 907.905 368.936ZM903.005 367.676C903.005 366.855 902.725 366.201 902.165 365.716C901.605 365.231 900.905 364.988 900.065 364.988C899.263 364.988 898.581 365.221 898.021 365.688C897.48 366.155 897.144 366.817 897.013 367.676H903.005Z" fill="black"/>
<path id="Value" d="M65.188 136.344L58.216 156H52.224L45.252 136.344H50.348L55.22 151.184L60.12 136.344H65.188ZM66.2371 148.16C66.2371 146.555 66.5358 145.145 67.1331 143.932C67.7491 142.719 68.5798 141.785 69.6251 141.132C70.6705 140.479 71.8371 140.152 73.1251 140.152C74.2265 140.152 75.1878 140.376 76.0091 140.824C76.8491 141.272 77.4931 141.86 77.9411 142.588V140.376H82.7291V156H77.9411V153.788C77.4745 154.516 76.8211 155.104 75.9811 155.552C75.1598 156 74.1985 156.224 73.0971 156.224C71.8278 156.224 70.6705 155.897 69.6251 155.244C68.5798 154.572 67.7491 153.629 67.1331 152.416C66.5358 151.184 66.2371 149.765 66.2371 148.16ZM77.9411 148.188C77.9411 146.993 77.6051 146.051 76.9331 145.36C76.2798 144.669 75.4771 144.324 74.5251 144.324C73.5731 144.324 72.7611 144.669 72.0891 145.36C71.4358 146.032 71.1091 146.965 71.1091 148.16C71.1091 149.355 71.4358 150.307 72.0891 151.016C72.7611 151.707 73.5731 152.052 74.5251 152.052C75.4771 152.052 76.2798 151.707 76.9331 151.016C77.6051 150.325 77.9411 149.383 77.9411 148.188ZM90.981 135.28V156H86.193V135.28H90.981ZM109.879 140.376V156H105.091V153.872C104.606 154.563 103.943 155.123 103.103 155.552C102.282 155.963 101.367 156.168 100.359 156.168C99.1642 156.168 98.1095 155.907 97.1948 155.384C96.2802 154.843 95.5708 154.068 95.0668 153.06C94.5628 152.052 94.3108 150.867 94.3108 149.504V140.376H99.0708V148.86C99.0708 149.905 99.3415 150.717 99.8828 151.296C100.424 151.875 101.152 152.164 102.067 152.164C103 152.164 103.738 151.875 104.279 151.296C104.82 150.717 105.091 149.905 105.091 148.86V140.376H109.879ZM128.046 147.936C128.046 148.384 128.018 148.851 127.962 149.336H117.126C117.201 150.307 117.509 151.053 118.05 151.576C118.61 152.08 119.291 152.332 120.094 152.332C121.289 152.332 122.119 151.828 122.586 150.82H127.682C127.421 151.847 126.945 152.771 126.254 153.592C125.582 154.413 124.733 155.057 123.706 155.524C122.679 155.991 121.531 156.224 120.262 156.224C118.731 156.224 117.369 155.897 116.174 155.244C114.979 154.591 114.046 153.657 113.374 152.444C112.702 151.231 112.366 149.812 112.366 148.188C112.366 146.564 112.693 145.145 113.346 143.932C114.018 142.719 114.951 141.785 116.146 141.132C117.341 140.479 118.713 140.152 120.262 140.152C121.774 140.152 123.118 140.469 124.294 141.104C125.47 141.739 126.385 142.644 127.038 143.82C127.71 144.996 128.046 146.368 128.046 147.936ZM123.146 146.676C123.146 145.855 122.866 145.201 122.306 144.716C121.746 144.231 121.046 143.988 120.206 143.988C119.403 143.988 118.722 144.221 118.162 144.688C117.621 145.155 117.285 145.817 117.154 146.676H123.146Z" fill="black"/>
<g id="compare">
<rect id="Rectangle 91" x="819" y="28" width="179" height="45" rx="8" fill="#C4C4C4"/>
<path id="Compare all" d="M841.008 50.322C841.008 48.826 841.345 47.484 842.02 46.296C842.694 45.0933 843.611 44.1547 844.77 43.48C845.943 42.8053 847.241 42.468 848.664 42.468C850.336 42.468 851.795 42.8713 853.042 43.678C854.288 44.4847 855.198 45.6287 855.77 47.11H853.372C852.946 46.186 852.33 45.4747 851.524 44.976C850.732 44.4773 849.778 44.228 848.664 44.228C847.593 44.228 846.632 44.4773 845.782 44.976C844.931 45.4747 844.264 46.186 843.78 47.11C843.296 48.0193 843.054 49.09 843.054 50.322C843.054 51.5393 843.296 52.61 843.78 53.534C844.264 54.4433 844.931 55.1473 845.782 55.646C846.632 56.1447 847.593 56.394 848.664 56.394C849.778 56.394 850.732 56.152 851.524 55.668C852.33 55.1693 852.946 54.458 853.372 53.534H855.77C855.198 55.0007 854.288 56.1373 853.042 56.944C851.795 57.736 850.336 58.132 848.664 58.132C847.241 58.132 845.943 57.802 844.77 57.142C843.611 56.4673 842.694 55.536 842.02 54.348C841.345 53.16 841.008 51.818 841.008 50.322ZM864.008 58.198C862.878 58.198 861.852 57.9413 860.928 57.428C860.018 56.9147 859.3 56.1887 858.772 55.25C858.258 54.2967 858.002 53.1967 858.002 51.95C858.002 50.718 858.266 49.6327 858.794 48.694C859.336 47.7407 860.07 47.0147 860.994 46.516C861.918 46.0027 862.952 45.746 864.096 45.746C865.24 45.746 866.274 46.0027 867.198 46.516C868.122 47.0147 868.848 47.7333 869.376 48.672C869.918 49.6107 870.19 50.7033 870.19 51.95C870.19 53.1967 869.911 54.2967 869.354 55.25C868.811 56.1887 868.07 56.9147 867.132 57.428C866.193 57.9413 865.152 58.198 864.008 58.198ZM864.008 56.438C864.726 56.438 865.401 56.2693 866.032 55.932C866.662 55.5947 867.168 55.0887 867.55 54.414C867.946 53.7393 868.144 52.918 868.144 51.95C868.144 50.982 867.953 50.1607 867.572 49.486C867.19 48.8113 866.692 48.3127 866.076 47.99C865.46 47.6527 864.792 47.484 864.074 47.484C863.34 47.484 862.666 47.6527 862.05 47.99C861.448 48.3127 860.964 48.8113 860.598 49.486C860.231 50.1607 860.048 50.982 860.048 51.95C860.048 52.9327 860.224 53.7613 860.576 54.436C860.942 55.1107 861.426 55.6167 862.028 55.954C862.629 56.2767 863.289 56.438 864.008 56.438ZM887.32 45.724C888.259 45.724 889.095 45.922 889.828 46.318C890.561 46.6993 891.141 47.2787 891.566 48.056C891.991 48.8333 892.204 49.7793 892.204 50.894V58H890.224V51.18C890.224 49.9773 889.923 49.0607 889.322 48.43C888.735 47.7847 887.936 47.462 886.924 47.462C885.883 47.462 885.054 47.7993 884.438 48.474C883.822 49.134 883.514 50.0947 883.514 51.356V58H881.534V51.18C881.534 49.9773 881.233 49.0607 880.632 48.43C880.045 47.7847 879.246 47.462 878.234 47.462C877.193 47.462 876.364 47.7993 875.748 48.474C875.132 49.134 874.824 50.0947 874.824 51.356V58H872.822V45.944H874.824V47.682C875.22 47.0513 875.748 46.5673 876.408 46.23C877.083 45.8927 877.823 45.724 878.63 45.724C879.642 45.724 880.537 45.9513 881.314 46.406C882.091 46.8607 882.671 47.528 883.052 48.408C883.389 47.5573 883.947 46.8973 884.724 46.428C885.501 45.9587 886.367 45.724 887.32 45.724ZM897.49 48.166C897.886 47.4767 898.473 46.9047 899.25 46.45C900.042 45.9807 900.959 45.746 902 45.746C903.071 45.746 904.039 46.0027 904.904 46.516C905.784 47.0293 906.473 47.7553 906.972 48.694C907.471 49.618 907.72 50.696 907.72 51.928C907.72 53.1453 907.471 54.2307 906.972 55.184C906.473 56.1373 905.784 56.878 904.904 57.406C904.039 57.934 903.071 58.198 902 58.198C900.973 58.198 900.064 57.9707 899.272 57.516C898.495 57.0467 897.901 56.4673 897.49 55.778V63.72H895.488V45.944H897.49V48.166ZM905.674 51.928C905.674 51.0187 905.491 50.2267 905.124 49.552C904.757 48.8773 904.259 48.364 903.628 48.012C903.012 47.66 902.33 47.484 901.582 47.484C900.849 47.484 900.167 47.6673 899.536 48.034C898.92 48.386 898.421 48.9067 898.04 49.596C897.673 50.2707 897.49 51.0553 897.49 51.95C897.49 52.8593 897.673 53.6587 898.04 54.348C898.421 55.0227 898.92 55.5433 899.536 55.91C900.167 56.262 900.849 56.438 901.582 56.438C902.33 56.438 903.012 56.262 903.628 55.91C904.259 55.5433 904.757 55.0227 905.124 54.348C905.491 53.6587 905.674 52.852 905.674 51.928ZM909.607 51.928C909.607 50.696 909.856 49.618 910.355 48.694C910.854 47.7553 911.536 47.0293 912.401 46.516C913.281 46.0027 914.256 45.746 915.327 45.746C916.383 45.746 917.3 45.9733 918.077 46.428C918.854 46.8827 919.434 47.4547 919.815 48.144V45.944H921.839V58H919.815V55.756C919.419 56.46 918.825 57.0467 918.033 57.516C917.256 57.9707 916.346 58.198 915.305 58.198C914.234 58.198 913.266 57.934 912.401 57.406C911.536 56.878 910.854 56.1373 910.355 55.184C909.856 54.2307 909.607 53.1453 909.607 51.928ZM919.815 51.95C919.815 51.0407 919.632 50.2487 919.265 49.574C918.898 48.8993 918.4 48.386 917.769 48.034C917.153 47.6673 916.471 47.484 915.723 47.484C914.975 47.484 914.293 47.66 913.677 48.012C913.061 48.364 912.57 48.8773 912.203 49.552C911.836 50.2267 911.653 51.0187 911.653 51.928C911.653 52.852 911.836 53.6587 912.203 54.348C912.57 55.0227 913.061 55.5433 913.677 55.91C914.293 56.262 914.975 56.438 915.723 56.438C916.471 56.438 917.153 56.262 917.769 55.91C918.4 55.5433 918.898 55.0227 919.265 54.348C919.632 53.6587 919.815 52.8593 919.815 51.95ZM927.224 47.902C927.576 47.2127 928.075 46.6773 928.72 46.296C929.38 45.9147 930.18 45.724 931.118 45.724V47.792H930.59C928.346 47.792 927.224 49.0093 927.224 51.444V58H925.222V45.944H927.224V47.902ZM944.429 51.51C944.429 51.8913 944.407 52.2947 944.363 52.72H934.727C934.801 53.908 935.204 54.8393 935.937 55.514C936.685 56.174 937.587 56.504 938.643 56.504C939.509 56.504 940.227 56.306 940.799 55.91C941.386 55.4993 941.797 54.9567 942.031 54.282H944.187C943.865 55.4407 943.219 56.3867 942.251 57.12C941.283 57.8387 940.081 58.198 938.643 58.198C937.499 58.198 936.473 57.9413 935.563 57.428C934.669 56.9147 933.965 56.1887 933.451 55.25C932.938 54.2967 932.681 53.1967 932.681 51.95C932.681 50.7033 932.931 49.6107 933.429 48.672C933.928 47.7333 934.625 47.0147 935.519 46.516C936.429 46.0027 937.47 45.746 938.643 45.746C939.787 45.746 940.799 45.9953 941.679 46.494C942.559 46.9927 943.234 47.682 943.703 48.562C944.187 49.4273 944.429 50.41 944.429 51.51ZM942.361 51.092C942.361 50.3293 942.193 49.6767 941.855 49.134C941.518 48.5767 941.056 48.1587 940.469 47.88C939.897 47.5867 939.259 47.44 938.555 47.44C937.543 47.44 936.678 47.7627 935.959 48.408C935.255 49.0533 934.852 49.948 934.749 51.092H942.361ZM952.189 51.928C952.189 50.696 952.438 49.618 952.937 48.694C953.436 47.7553 954.118 47.0293 954.983 46.516C955.863 46.0027 956.838 45.746 957.909 45.746C958.965 45.746 959.882 45.9733 960.659 46.428C961.436 46.8827 962.016 47.4547 962.397 48.144V45.944H964.421V58H962.397V55.756C962.001 56.46 961.407 57.0467 960.615 57.516C959.838 57.9707 958.928 58.198 957.887 58.198C956.816 58.198 955.848 57.934 954.983 57.406C954.118 56.878 953.436 56.1373 952.937 55.184C952.438 54.2307 952.189 53.1453 952.189 51.928ZM962.397 51.95C962.397 51.0407 962.214 50.2487 961.847 49.574C961.48 48.8993 960.982 48.386 960.351 48.034C959.735 47.6673 959.053 47.484 958.305 47.484C957.557 47.484 956.875 47.66 956.259 48.012C955.643 48.364 955.152 48.8773 954.785 49.552C954.418 50.2267 954.235 51.0187 954.235 51.928C954.235 52.852 954.418 53.6587 954.785 54.348C955.152 55.0227 955.643 55.5433 956.259 55.91C956.875 56.262 957.557 56.438 958.305 56.438C959.053 56.438 959.735 56.262 960.351 55.91C960.982 55.5433 961.48 55.0227 961.847 54.348C962.214 53.6587 962.397 52.8593 962.397 51.95ZM969.806 41.72V58H967.804V41.72H969.806ZM975.22 41.72V58H973.218V41.72H975.22Z" fill="white"/>
</g>
</g>
</svg>
