<svg width="318" height="422" viewBox="0 0 318 422" fill="none" xmlns="http://www.w3.org/2000/svg">
<g id="sales-a-small">
<g id="Rectangle 84">
<path d="M0 0H318V422H0V0Z" fill="#F3F3F3"/>
<path d="M0 0H318V422H0V0Z" fill="#F3F3F3"/>
</g>
<path id="SALES A" d="M112.764 61.196C111.327 61.196 110.039 60.9627 108.9 60.496C107.761 60.0293 106.847 59.3387 106.156 58.424C105.484 57.5093 105.129 56.408 105.092 55.12H110.188C110.263 55.848 110.515 56.408 110.944 56.8C111.373 57.1733 111.933 57.36 112.624 57.36C113.333 57.36 113.893 57.2013 114.304 56.884C114.715 56.548 114.92 56.0907 114.92 55.512C114.92 55.0267 114.752 54.6253 114.416 54.308C114.099 53.9907 113.697 53.7293 113.212 53.524C112.745 53.3187 112.073 53.0853 111.196 52.824C109.927 52.432 108.891 52.04 108.088 51.648C107.285 51.256 106.595 50.6773 106.016 49.912C105.437 49.1467 105.148 48.148 105.148 46.916C105.148 45.0867 105.811 43.6587 107.136 42.632C108.461 41.5867 110.188 41.064 112.316 41.064C114.481 41.064 116.227 41.5867 117.552 42.632C118.877 43.6587 119.587 45.096 119.68 46.944H114.5C114.463 46.3093 114.229 45.8147 113.8 45.46C113.371 45.0867 112.82 44.9 112.148 44.9C111.569 44.9 111.103 45.0587 110.748 45.376C110.393 45.6747 110.216 46.1133 110.216 46.692C110.216 47.3267 110.515 47.8213 111.112 48.176C111.709 48.5307 112.643 48.9133 113.912 49.324C115.181 49.7533 116.208 50.164 116.992 50.556C117.795 50.948 118.485 51.5173 119.064 52.264C119.643 53.0107 119.932 53.972 119.932 55.148C119.932 56.268 119.643 57.2853 119.064 58.2C118.504 59.1147 117.683 59.8427 116.6 60.384C115.517 60.9253 114.239 61.196 112.764 61.196ZM135.115 57.528H127.779L126.603 61H121.591L128.703 41.344H134.247L141.359 61H136.291L135.115 57.528ZM133.883 53.832L131.447 46.636L129.039 53.832H133.883ZM148.311 57.304H154.583V61H143.523V41.344H148.311V57.304ZM161.655 45.18V49.156H168.067V52.852H161.655V57.164H168.907V61H156.867V41.344H168.907V45.18H161.655ZM179.127 61.196C177.69 61.196 176.402 60.9627 175.263 60.496C174.125 60.0293 173.21 59.3387 172.519 58.424C171.847 57.5093 171.493 56.408 171.455 55.12H176.551C176.626 55.848 176.878 56.408 177.307 56.8C177.737 57.1733 178.297 57.36 178.987 57.36C179.697 57.36 180.257 57.2013 180.667 56.884C181.078 56.548 181.283 56.0907 181.283 55.512C181.283 55.0267 181.115 54.6253 180.779 54.308C180.462 53.9907 180.061 53.7293 179.575 53.524C179.109 53.3187 178.437 53.0853 177.559 52.824C176.29 52.432 175.254 52.04 174.451 51.648C173.649 51.256 172.958 50.6773 172.379 49.912C171.801 49.1467 171.511 48.148 171.511 46.916C171.511 45.0867 172.174 43.6587 173.499 42.632C174.825 41.5867 176.551 41.064 178.679 41.064C180.845 41.064 182.59 41.5867 183.915 42.632C185.241 43.6587 185.95 45.096 186.043 46.944H180.863C180.826 46.3093 180.593 45.8147 180.163 45.46C179.734 45.0867 179.183 44.9 178.511 44.9C177.933 44.9 177.466 45.0587 177.111 45.376C176.757 45.6747 176.579 46.1133 176.579 46.692C176.579 47.3267 176.878 47.8213 177.475 48.176C178.073 48.5307 179.006 48.9133 180.275 49.324C181.545 49.7533 182.571 50.164 183.355 50.556C184.158 50.948 184.849 51.5173 185.427 52.264C186.006 53.0107 186.295 53.972 186.295 55.148C186.295 56.268 186.006 57.2853 185.427 58.2C184.867 59.1147 184.046 59.8427 182.963 60.384C181.881 60.9253 180.602 61.196 179.127 61.196ZM207.411 57.528H200.075L198.899 61H193.887L200.999 41.344H206.543L213.655 61H208.587L207.411 57.528ZM206.179 53.832L203.743 46.636L201.335 53.832H206.179Z" fill="black"/>
<path id="Arrow 2" d="M259.354 378.354C259.549 378.158 259.549 377.842 259.354 377.646L256.172 374.464C255.976 374.269 255.66 374.269 255.464 374.464C255.269 374.66 255.269 374.976 255.464 375.172L258.293 378L255.464 380.828C255.269 381.024 255.269 381.34 255.464 381.536C255.66 381.731 255.976 381.731 256.172 381.536L259.354 378.354ZM32 378.5L259 378.5V377.5L32 377.5L32 378.5Z" fill="black"/>
<path id="a" fill-rule="evenodd" clip-rule="evenodd" d="M92.9496 264.189L57.9376 229.059L60.0624 226.941L95.1457 262.142L124.436 295.774L163.219 329.926L185.41 306.865L204.667 295.73L224.715 262.392L227.285 263.938L206.839 297.939L187.279 309.25L163.391 334.074L122.305 297.895L92.9496 264.189Z" fill="black"/>
<line id="Line 2" x1="32.5" y1="93" x2="32.5" y2="378" stroke="black"/>
</g>
</svg>
