<svg width="326" height="430" viewBox="0 0 326 430" fill="none" xmlns="http://www.w3.org/2000/svg">
<g id="Group 11">
<g id="Rectangle 84" filter="url(#filter0_d)">
<path d="M4 0H322V422H4V0Z" fill="#F3F3F3"/>
<path d="M4 0H322V422H4V0Z" fill="#F3F3F3"/>
</g>
<path id="SALES A" d="M116.764 61.196C115.327 61.196 114.039 60.9627 112.9 60.496C111.761 60.0293 110.847 59.3387 110.156 58.424C109.484 57.5093 109.129 56.408 109.092 55.12H114.188C114.263 55.848 114.515 56.408 114.944 56.8C115.373 57.1733 115.933 57.36 116.624 57.36C117.333 57.36 117.893 57.2013 118.304 56.884C118.715 56.548 118.92 56.0907 118.92 55.512C118.92 55.0267 118.752 54.6253 118.416 54.308C118.099 53.9907 117.697 53.7293 117.212 53.524C116.745 53.3187 116.073 53.0853 115.196 52.824C113.927 52.432 112.891 52.04 112.088 51.648C111.285 51.256 110.595 50.6773 110.016 49.912C109.437 49.1467 109.148 48.148 109.148 46.916C109.148 45.0867 109.811 43.6587 111.136 42.632C112.461 41.5867 114.188 41.064 116.316 41.064C118.481 41.064 120.227 41.5867 121.552 42.632C122.877 43.6587 123.587 45.096 123.68 46.944H118.5C118.463 46.3093 118.229 45.8147 117.8 45.46C117.371 45.0867 116.82 44.9 116.148 44.9C115.569 44.9 115.103 45.0587 114.748 45.376C114.393 45.6747 114.216 46.1133 114.216 46.692C114.216 47.3267 114.515 47.8213 115.112 48.176C115.709 48.5307 116.643 48.9133 117.912 49.324C119.181 49.7533 120.208 50.164 120.992 50.556C121.795 50.948 122.485 51.5173 123.064 52.264C123.643 53.0107 123.932 53.972 123.932 55.148C123.932 56.268 123.643 57.2853 123.064 58.2C122.504 59.1147 121.683 59.8427 120.6 60.384C119.517 60.9253 118.239 61.196 116.764 61.196ZM139.115 57.528H131.779L130.603 61H125.591L132.703 41.344H138.247L145.359 61H140.291L139.115 57.528ZM137.883 53.832L135.447 46.636L133.039 53.832H137.883ZM152.311 57.304H158.583V61H147.523V41.344H152.311V57.304ZM165.655 45.18V49.156H172.067V52.852H165.655V57.164H172.907V61H160.867V41.344H172.907V45.18H165.655ZM183.127 61.196C181.69 61.196 180.402 60.9627 179.263 60.496C178.125 60.0293 177.21 59.3387 176.519 58.424C175.847 57.5093 175.493 56.408 175.455 55.12H180.551C180.626 55.848 180.878 56.408 181.307 56.8C181.737 57.1733 182.297 57.36 182.987 57.36C183.697 57.36 184.257 57.2013 184.667 56.884C185.078 56.548 185.283 56.0907 185.283 55.512C185.283 55.0267 185.115 54.6253 184.779 54.308C184.462 53.9907 184.061 53.7293 183.575 53.524C183.109 53.3187 182.437 53.0853 181.559 52.824C180.29 52.432 179.254 52.04 178.451 51.648C177.649 51.256 176.958 50.6773 176.379 49.912C175.801 49.1467 175.511 48.148 175.511 46.916C175.511 45.0867 176.174 43.6587 177.499 42.632C178.825 41.5867 180.551 41.064 182.679 41.064C184.845 41.064 186.59 41.5867 187.915 42.632C189.241 43.6587 189.95 45.096 190.043 46.944H184.863C184.826 46.3093 184.593 45.8147 184.163 45.46C183.734 45.0867 183.183 44.9 182.511 44.9C181.933 44.9 181.466 45.0587 181.111 45.376C180.757 45.6747 180.579 46.1133 180.579 46.692C180.579 47.3267 180.878 47.8213 181.475 48.176C182.073 48.5307 183.006 48.9133 184.275 49.324C185.545 49.7533 186.571 50.164 187.355 50.556C188.158 50.948 188.849 51.5173 189.427 52.264C190.006 53.0107 190.295 53.972 190.295 55.148C190.295 56.268 190.006 57.2853 189.427 58.2C188.867 59.1147 188.046 59.8427 186.963 60.384C185.881 60.9253 184.602 61.196 183.127 61.196ZM211.411 57.528H204.075L202.899 61H197.887L204.999 41.344H210.543L217.655 61H212.587L211.411 57.528ZM210.179 53.832L207.743 46.636L205.335 53.832H210.179Z" fill="black"/>
<path id="Arrow 2" d="M263.354 378.354C263.549 378.158 263.549 377.842 263.354 377.646L260.172 374.464C259.976 374.269 259.66 374.269 259.464 374.464C259.269 374.66 259.269 374.976 259.464 375.172L262.293 378L259.464 380.828C259.269 381.024 259.269 381.34 259.464 381.536C259.66 381.731 259.976 381.731 260.172 381.536L263.354 378.354ZM36 378.5L263 378.5V377.5L36 377.5V378.5Z" fill="black"/>
<path id="a" d="M63 228L98.0477 263.165L127.37 296.835L167.305 332L190.344 308.058L209.753 296.835L230 263.165" stroke="black" stroke-width="3"/>
<line id="Line 2" x1="36.5" y1="93" x2="36.5" y2="378" stroke="black"/>
</g>
<defs>
<filter id="filter0_d" x="0" y="0" width="326" height="430" filterUnits="userSpaceOnUse" color-interpolation-filters="sRGB">
<feFlood flood-opacity="0" result="BackgroundImageFix"/>
<feColorMatrix in="SourceAlpha" type="matrix" values="0 0 0 0 0 0 0 0 0 0 0 0 0 0 0 0 0 0 127 0"/>
<feOffset dy="4"/>
<feGaussianBlur stdDeviation="2"/>
<feColorMatrix type="matrix" values="0 0 0 0 0 0 0 0 0 0 0 0 0 0 0 0 0 0 0.25 0"/>
<feBlend mode="normal" in2="BackgroundImageFix" result="effect1_dropShadow"/>
<feBlend mode="normal" in="SourceGraphic" in2="effect1_dropShadow" result="shape"/>
</filter>
</defs>
</svg>
