<svg width="318" height="422" viewBox="0 0 318 422" fill="none" xmlns="http://www.w3.org/2000/svg">
<path d="M0 0H318V422H0V0Z" fill="#F3F3F3"/>
<path d="M0 0H318V422H0V0Z" fill="#F3F3F3"/>
<path d="M112.422 64.196C110.985 64.196 109.697 63.9627 108.558 63.496C107.42 63.0293 106.505 62.3387 105.814 61.424C105.142 60.5093 104.788 59.408 104.75 58.12H109.846C109.921 58.848 110.173 59.408 110.602 59.8C111.032 60.1733 111.592 60.36 112.282 60.36C112.992 60.36 113.552 60.2013 113.962 59.884C114.373 59.548 114.578 59.0907 114.578 58.512C114.578 58.0267 114.41 57.6253 114.074 57.308C113.757 56.9907 113.356 56.7293 112.87 56.524C112.404 56.3187 111.732 56.0853 110.854 55.824C109.585 55.432 108.549 55.04 107.746 54.648C106.944 54.256 106.253 53.6773 105.674 52.912C105.096 52.1467 104.806 51.148 104.806 49.916C104.806 48.0867 105.469 46.6587 106.794 45.632C108.12 44.5867 109.846 44.064 111.974 44.064C114.14 44.064 115.885 44.5867 117.21 45.632C118.536 46.6587 119.245 48.096 119.338 49.944H114.158C114.121 49.3093 113.888 48.8147 113.458 48.46C113.029 48.0867 112.478 47.9 111.806 47.9C111.228 47.9 110.761 48.0587 110.406 48.376C110.052 48.6747 109.874 49.1133 109.874 49.692C109.874 50.3267 110.173 50.8213 110.77 51.176C111.368 51.5307 112.301 51.9133 113.57 52.324C114.84 52.7533 115.866 53.164 116.65 53.556C117.453 53.948 118.144 54.5173 118.722 55.264C119.301 56.0107 119.59 56.972 119.59 58.148C119.59 59.268 119.301 60.2853 118.722 61.2C118.162 62.1147 117.341 62.8427 116.258 63.384C115.176 63.9253 113.897 64.196 112.422 64.196ZM134.773 60.528H127.437L126.261 64H121.249L128.361 44.344H133.905L141.017 64H135.949L134.773 60.528ZM133.541 56.832L131.105 49.636L128.697 56.832H133.541ZM147.969 60.304H154.241V64H143.181V44.344H147.969V60.304ZM161.313 48.18V52.156H167.725V55.852H161.313V60.164H168.565V64H156.525V44.344H168.565V48.18H161.313ZM178.786 64.196C177.348 64.196 176.06 63.9627 174.922 63.496C173.783 63.0293 172.868 62.3387 172.178 61.424C171.506 60.5093 171.151 59.408 171.114 58.12H176.21C176.284 58.848 176.536 59.408 176.966 59.8C177.395 60.1733 177.955 60.36 178.646 60.36C179.355 60.36 179.915 60.2013 180.326 59.884C180.736 59.548 180.942 59.0907 180.942 58.512C180.942 58.0267 180.774 57.6253 180.438 57.308C180.12 56.9907 179.719 56.7293 179.234 56.524C178.767 56.3187 178.095 56.0853 177.218 55.824C175.948 55.432 174.912 55.04 174.11 54.648C173.307 54.256 172.616 53.6773 172.038 52.912C171.459 52.1467 171.17 51.148 171.17 49.916C171.17 48.0867 171.832 46.6587 173.158 45.632C174.483 44.5867 176.21 44.064 178.338 44.064C180.503 44.064 182.248 44.5867 183.574 45.632C184.899 46.6587 185.608 48.096 185.702 49.944H180.522C180.484 49.3093 180.251 48.8147 179.822 48.46C179.392 48.0867 178.842 47.9 178.169 47.9C177.591 47.9 177.124 48.0587 176.77 48.376C176.415 48.6747 176.238 49.1133 176.238 49.692C176.238 50.3267 176.536 50.8213 177.133 51.176C177.731 51.5307 178.664 51.9133 179.934 52.324C181.203 52.7533 182.23 53.164 183.014 53.556C183.816 53.948 184.507 54.5173 185.086 55.264C185.664 56.0107 185.954 56.972 185.954 58.148C185.954 59.268 185.664 60.2853 185.086 61.2C184.526 62.1147 183.704 62.8427 182.622 63.384C181.539 63.9253 180.26 64.196 178.786 64.196ZM194.022 54.144C194.022 52.2027 194.442 50.476 195.282 48.964C196.122 47.4333 197.288 46.248 198.782 45.408C200.294 44.5493 202.002 44.12 203.906 44.12C206.239 44.12 208.236 44.736 209.898 45.968C211.559 47.2 212.67 48.88 213.23 51.008H207.966C207.574 50.1867 207.014 49.5613 206.286 49.132C205.576 48.7027 204.764 48.488 203.85 48.488C202.375 48.488 201.18 49.0013 200.266 50.028C199.351 51.0547 198.894 52.4267 198.894 54.144C198.894 55.8613 199.351 57.2333 200.266 58.26C201.18 59.2867 202.375 59.8 203.85 59.8C204.764 59.8 205.576 59.5853 206.286 59.156C207.014 58.7267 207.574 58.1013 207.966 57.28H213.23C212.67 59.408 211.559 61.088 209.898 62.32C208.236 63.5333 206.239 64.14 203.906 64.14C202.002 64.14 200.294 63.72 198.782 62.88C197.288 62.0213 196.122 60.836 195.282 59.324C194.442 57.812 194.022 56.0853 194.022 54.144Z" fill="black"/>
<path d="M267.354 378.354C267.549 378.158 267.549 377.842 267.354 377.646L264.172 374.464C263.976 374.269 263.66 374.269 263.464 374.464C263.269 374.66 263.269 374.976 263.464 375.172L266.293 378L263.464 380.828C263.269 381.024 263.269 381.34 263.464 381.536C263.66 381.731 263.976 381.731 264.172 381.536L267.354 378.354ZM52 378.5L267 378.5V377.5L52 377.5V378.5Z" fill="black"/>
<line x1="52.5" y1="93" x2="52.5" y2="378" stroke="black"/>
<path fill-rule="evenodd" clip-rule="evenodd" d="M215.464 90.7515L238.413 155.261L235.587 156.267L214.591 97.2485L196.79 122.779L174.827 181.022L141.322 144.869L111.207 287.034L79.0904 321.03L76.9096 318.97L108.447 285.587L139.587 138.584L173.731 175.426L194.115 121.37L215.464 90.7515Z" fill="black"/>
</svg>
