<svg width="1026" height="430" viewBox="0 0 1026 430" fill="none" xmlns="http://www.w3.org/2000/svg">
<g id="Group 6">
<g id="Rectangle 84" filter="url(#filter0_d)">
<path d="M4 0H1022V422H4V0Z" fill="#F3F3F3"/>
<path d="M4 0H1022V422H4V0Z" fill="#F3F3F3"/>
</g>
<path id="Arrow 2" d="M913.354 336.354C913.549 336.158 913.549 335.842 913.354 335.646L910.172 332.464C909.976 332.269 909.66 332.269 909.464 332.464C909.269 332.66 909.269 332.976 909.464 333.172L912.293 336L909.464 338.828C909.269 339.024 909.269 339.34 909.464 339.536C909.66 339.731 909.976 339.731 910.172 339.536L913.354 336.354ZM151 336.5L913 336.5V335.5L151 335.5V336.5Z" fill="black"/>
<path id="a" d="M244.5 235.5L370 259L475 281.5L618 305L700.5 289L770 281.5L842.5 259" stroke="black" stroke-width="3"/>
<line id="Line 2" x1="151.5" y1="132" x2="151.5" y2="336" stroke="black"/>
<path id="SALES A" d="M463.848 62.196C462.411 62.196 461.123 61.9627 459.984 61.496C458.845 61.0293 457.931 60.3387 457.24 59.424C456.568 58.5093 456.213 57.408 456.176 56.12H461.272C461.347 56.848 461.599 57.408 462.028 57.8C462.457 58.1733 463.017 58.36 463.708 58.36C464.417 58.36 464.977 58.2013 465.388 57.884C465.799 57.548 466.004 57.0907 466.004 56.512C466.004 56.0267 465.836 55.6253 465.5 55.308C465.183 54.9907 464.781 54.7293 464.296 54.524C463.829 54.3187 463.157 54.0853 462.28 53.824C461.011 53.432 459.975 53.04 459.172 52.648C458.369 52.256 457.679 51.6773 457.1 50.912C456.521 50.1467 456.232 49.148 456.232 47.916C456.232 46.0867 456.895 44.6587 458.22 43.632C459.545 42.5867 461.272 42.064 463.4 42.064C465.565 42.064 467.311 42.5867 468.636 43.632C469.961 44.6587 470.671 46.096 470.764 47.944H465.584C465.547 47.3093 465.313 46.8147 464.884 46.46C464.455 46.0867 463.904 45.9 463.232 45.9C462.653 45.9 462.187 46.0587 461.832 46.376C461.477 46.6747 461.3 47.1133 461.3 47.692C461.3 48.3267 461.599 48.8213 462.196 49.176C462.793 49.5307 463.727 49.9133 464.996 50.324C466.265 50.7533 467.292 51.164 468.076 51.556C468.879 51.948 469.569 52.5173 470.148 53.264C470.727 54.0107 471.016 54.972 471.016 56.148C471.016 57.268 470.727 58.2853 470.148 59.2C469.588 60.1147 468.767 60.8427 467.684 61.384C466.601 61.9253 465.323 62.196 463.848 62.196ZM486.199 58.528H478.863L477.687 62H472.675L479.787 42.344H485.331L492.443 62H487.375L486.199 58.528ZM484.967 54.832L482.531 47.636L480.123 54.832H484.967ZM499.395 58.304H505.667V62H494.607V42.344H499.395V58.304ZM512.739 46.18V50.156H519.151V53.852H512.739V58.164H519.991V62H507.951V42.344H519.991V46.18H512.739ZM530.211 62.196C528.774 62.196 527.486 61.9627 526.347 61.496C525.209 61.0293 524.294 60.3387 523.603 59.424C522.931 58.5093 522.577 57.408 522.539 56.12H527.635C527.71 56.848 527.962 57.408 528.391 57.8C528.821 58.1733 529.381 58.36 530.071 58.36C530.781 58.36 531.341 58.2013 531.751 57.884C532.162 57.548 532.367 57.0907 532.367 56.512C532.367 56.0267 532.199 55.6253 531.863 55.308C531.546 54.9907 531.145 54.7293 530.659 54.524C530.193 54.3187 529.521 54.0853 528.643 53.824C527.374 53.432 526.338 53.04 525.535 52.648C524.733 52.256 524.042 51.6773 523.463 50.912C522.885 50.1467 522.595 49.148 522.595 47.916C522.595 46.0867 523.258 44.6587 524.583 43.632C525.909 42.5867 527.635 42.064 529.763 42.064C531.929 42.064 533.674 42.5867 534.999 43.632C536.325 44.6587 537.034 46.096 537.127 47.944H531.947C531.91 47.3093 531.677 46.8147 531.247 46.46C530.818 46.0867 530.267 45.9 529.595 45.9C529.017 45.9 528.55 46.0587 528.195 46.376C527.841 46.6747 527.663 47.1133 527.663 47.692C527.663 48.3267 527.962 48.8213 528.559 49.176C529.157 49.5307 530.09 49.9133 531.359 50.324C532.629 50.7533 533.655 51.164 534.439 51.556C535.242 51.948 535.933 52.5173 536.511 53.264C537.09 54.0107 537.379 54.972 537.379 56.148C537.379 57.268 537.09 58.2853 536.511 59.2C535.951 60.1147 535.13 60.8427 534.047 61.384C532.965 61.9253 531.686 62.196 530.211 62.196ZM558.495 58.528H551.159L549.983 62H544.971L552.083 42.344H557.627L564.739 62H559.671L558.495 58.528ZM557.263 54.832L554.827 47.636L552.419 54.832H557.263Z" fill="black"/>
<path id="Time" d="M856.876 357.344V361.18H851.668V377H846.88V361.18H841.672V357.344H856.876ZM861.687 359.752C860.847 359.752 860.156 359.509 859.615 359.024C859.092 358.52 858.831 357.904 858.831 357.176C858.831 356.429 859.092 355.813 859.615 355.328C860.156 354.824 860.847 354.572 861.687 354.572C862.508 354.572 863.18 354.824 863.703 355.328C864.244 355.813 864.515 356.429 864.515 357.176C864.515 357.904 864.244 358.52 863.703 359.024C863.18 359.509 862.508 359.752 861.687 359.752ZM864.067 361.376V377H859.279V361.376H864.067ZM887.473 361.208C889.414 361.208 890.954 361.796 892.093 362.972C893.25 364.148 893.829 365.781 893.829 367.872V377H889.069V368.516C889.069 367.508 888.798 366.733 888.257 366.192C887.734 365.632 887.006 365.352 886.073 365.352C885.139 365.352 884.402 365.632 883.861 366.192C883.338 366.733 883.077 367.508 883.077 368.516V377H878.317V368.516C878.317 367.508 878.046 366.733 877.505 366.192C876.982 365.632 876.254 365.352 875.321 365.352C874.387 365.352 873.65 365.632 873.109 366.192C872.586 366.733 872.325 367.508 872.325 368.516V377H867.537V361.376H872.325V363.336C872.81 362.683 873.445 362.169 874.229 361.796C875.013 361.404 875.899 361.208 876.889 361.208C878.065 361.208 879.11 361.46 880.025 361.964C880.958 362.468 881.686 363.187 882.209 364.12C882.75 363.261 883.487 362.561 884.421 362.02C885.354 361.479 886.371 361.208 887.473 361.208ZM911.905 368.936C911.905 369.384 911.877 369.851 911.821 370.336H900.985C901.06 371.307 901.368 372.053 901.909 372.576C902.469 373.08 903.151 373.332 903.953 373.332C905.148 373.332 905.979 372.828 906.445 371.82H911.541C911.28 372.847 910.804 373.771 910.113 374.592C909.441 375.413 908.592 376.057 907.565 376.524C906.539 376.991 905.391 377.224 904.121 377.224C902.591 377.224 901.228 376.897 900.033 376.244C898.839 375.591 897.905 374.657 897.233 373.444C896.561 372.231 896.225 370.812 896.225 369.188C896.225 367.564 896.552 366.145 897.205 364.932C897.877 363.719 898.811 362.785 900.005 362.132C901.2 361.479 902.572 361.152 904.121 361.152C905.633 361.152 906.977 361.469 908.153 362.104C909.329 362.739 910.244 363.644 910.897 364.82C911.569 365.996 911.905 367.368 911.905 368.936ZM907.005 367.676C907.005 366.855 906.725 366.201 906.165 365.716C905.605 365.231 904.905 364.988 904.065 364.988C903.263 364.988 902.581 365.221 902.021 365.688C901.48 366.155 901.144 366.817 901.013 367.676H907.005Z" fill="black"/>
<path id="Value" d="M69.188 136.344L62.216 156H56.224L49.252 136.344H54.348L59.22 151.184L64.12 136.344H69.188ZM70.2371 148.16C70.2371 146.555 70.5358 145.145 71.1331 143.932C71.7491 142.719 72.5798 141.785 73.6251 141.132C74.6705 140.479 75.8371 140.152 77.1251 140.152C78.2265 140.152 79.1878 140.376 80.0091 140.824C80.8491 141.272 81.4931 141.86 81.9411 142.588V140.376H86.7291V156H81.9411V153.788C81.4745 154.516 80.8211 155.104 79.9811 155.552C79.1598 156 78.1985 156.224 77.0971 156.224C75.8278 156.224 74.6705 155.897 73.6251 155.244C72.5798 154.572 71.7491 153.629 71.1331 152.416C70.5358 151.184 70.2371 149.765 70.2371 148.16ZM81.9411 148.188C81.9411 146.993 81.6051 146.051 80.9331 145.36C80.2798 144.669 79.4771 144.324 78.5251 144.324C77.5731 144.324 76.7611 144.669 76.0891 145.36C75.4358 146.032 75.1091 146.965 75.1091 148.16C75.1091 149.355 75.4358 150.307 76.0891 151.016C76.7611 151.707 77.5731 152.052 78.5251 152.052C79.4771 152.052 80.2798 151.707 80.9331 151.016C81.6051 150.325 81.9411 149.383 81.9411 148.188ZM94.981 135.28V156H90.193V135.28H94.981ZM113.879 140.376V156H109.091V153.872C108.606 154.563 107.943 155.123 107.103 155.552C106.282 155.963 105.367 156.168 104.359 156.168C103.164 156.168 102.11 155.907 101.195 155.384C100.28 154.843 99.5708 154.068 99.0668 153.06C98.5628 152.052 98.3108 150.867 98.3108 149.504V140.376H103.071V148.86C103.071 149.905 103.342 150.717 103.883 151.296C104.424 151.875 105.152 152.164 106.067 152.164C107 152.164 107.738 151.875 108.279 151.296C108.82 150.717 109.091 149.905 109.091 148.86V140.376H113.879ZM132.046 147.936C132.046 148.384 132.018 148.851 131.962 149.336H121.126C121.201 150.307 121.509 151.053 122.05 151.576C122.61 152.08 123.291 152.332 124.094 152.332C125.289 152.332 126.119 151.828 126.586 150.82H131.682C131.421 151.847 130.945 152.771 130.254 153.592C129.582 154.413 128.733 155.057 127.706 155.524C126.679 155.991 125.531 156.224 124.262 156.224C122.731 156.224 121.369 155.897 120.174 155.244C118.979 154.591 118.046 153.657 117.374 152.444C116.702 151.231 116.366 149.812 116.366 148.188C116.366 146.564 116.693 145.145 117.346 143.932C118.018 142.719 118.951 141.785 120.146 141.132C121.341 140.479 122.713 140.152 124.262 140.152C125.774 140.152 127.118 140.469 128.294 141.104C129.47 141.739 130.385 142.644 131.038 143.82C131.71 144.996 132.046 146.368 132.046 147.936ZM127.146 146.676C127.146 145.855 126.866 145.201 126.306 144.716C125.746 144.231 125.046 143.988 124.206 143.988C123.403 143.988 122.722 144.221 122.162 144.688C121.621 145.155 121.285 145.817 121.154 146.676H127.146Z" fill="black"/>
<g id="compare">
<rect id="Rectangle 91" x="823" y="28" width="179" height="45" rx="8" fill="#C4C4C4"/>
<path id="Compare all" d="M845.008 50.322C845.008 48.826 845.345 47.484 846.02 46.296C846.694 45.0933 847.611 44.1547 848.77 43.48C849.943 42.8053 851.241 42.468 852.664 42.468C854.336 42.468 855.795 42.8713 857.042 43.678C858.288 44.4847 859.198 45.6287 859.77 47.11H857.372C856.946 46.186 856.33 45.4747 855.524 44.976C854.732 44.4773 853.778 44.228 852.664 44.228C851.593 44.228 850.632 44.4773 849.782 44.976C848.931 45.4747 848.264 46.186 847.78 47.11C847.296 48.0193 847.054 49.09 847.054 50.322C847.054 51.5393 847.296 52.61 847.78 53.534C848.264 54.4433 848.931 55.1473 849.782 55.646C850.632 56.1447 851.593 56.394 852.664 56.394C853.778 56.394 854.732 56.152 855.524 55.668C856.33 55.1693 856.946 54.458 857.372 53.534H859.77C859.198 55.0007 858.288 56.1373 857.042 56.944C855.795 57.736 854.336 58.132 852.664 58.132C851.241 58.132 849.943 57.802 848.77 57.142C847.611 56.4673 846.694 55.536 846.02 54.348C845.345 53.16 845.008 51.818 845.008 50.322ZM868.008 58.198C866.878 58.198 865.852 57.9413 864.928 57.428C864.018 56.9147 863.3 56.1887 862.772 55.25C862.258 54.2967 862.002 53.1967 862.002 51.95C862.002 50.718 862.266 49.6327 862.794 48.694C863.336 47.7407 864.07 47.0147 864.994 46.516C865.918 46.0027 866.952 45.746 868.096 45.746C869.24 45.746 870.274 46.0027 871.198 46.516C872.122 47.0147 872.848 47.7333 873.376 48.672C873.918 49.6107 874.19 50.7033 874.19 51.95C874.19 53.1967 873.911 54.2967 873.354 55.25C872.811 56.1887 872.07 56.9147 871.132 57.428C870.193 57.9413 869.152 58.198 868.008 58.198ZM868.008 56.438C868.726 56.438 869.401 56.2693 870.032 55.932C870.662 55.5947 871.168 55.0887 871.55 54.414C871.946 53.7393 872.144 52.918 872.144 51.95C872.144 50.982 871.953 50.1607 871.572 49.486C871.19 48.8113 870.692 48.3127 870.076 47.99C869.46 47.6527 868.792 47.484 868.074 47.484C867.34 47.484 866.666 47.6527 866.05 47.99C865.448 48.3127 864.964 48.8113 864.598 49.486C864.231 50.1607 864.048 50.982 864.048 51.95C864.048 52.9327 864.224 53.7613 864.576 54.436C864.942 55.1107 865.426 55.6167 866.028 55.954C866.629 56.2767 867.289 56.438 868.008 56.438ZM891.32 45.724C892.259 45.724 893.095 45.922 893.828 46.318C894.561 46.6993 895.141 47.2787 895.566 48.056C895.991 48.8333 896.204 49.7793 896.204 50.894V58H894.224V51.18C894.224 49.9773 893.923 49.0607 893.322 48.43C892.735 47.7847 891.936 47.462 890.924 47.462C889.883 47.462 889.054 47.7993 888.438 48.474C887.822 49.134 887.514 50.0947 887.514 51.356V58H885.534V51.18C885.534 49.9773 885.233 49.0607 884.632 48.43C884.045 47.7847 883.246 47.462 882.234 47.462C881.193 47.462 880.364 47.7993 879.748 48.474C879.132 49.134 878.824 50.0947 878.824 51.356V58H876.822V45.944H878.824V47.682C879.22 47.0513 879.748 46.5673 880.408 46.23C881.083 45.8927 881.823 45.724 882.63 45.724C883.642 45.724 884.537 45.9513 885.314 46.406C886.091 46.8607 886.671 47.528 887.052 48.408C887.389 47.5573 887.947 46.8973 888.724 46.428C889.501 45.9587 890.367 45.724 891.32 45.724ZM901.49 48.166C901.886 47.4767 902.473 46.9047 903.25 46.45C904.042 45.9807 904.959 45.746 906 45.746C907.071 45.746 908.039 46.0027 908.904 46.516C909.784 47.0293 910.473 47.7553 910.972 48.694C911.471 49.618 911.72 50.696 911.72 51.928C911.72 53.1453 911.471 54.2307 910.972 55.184C910.473 56.1373 909.784 56.878 908.904 57.406C908.039 57.934 907.071 58.198 906 58.198C904.973 58.198 904.064 57.9707 903.272 57.516C902.495 57.0467 901.901 56.4673 901.49 55.778V63.72H899.488V45.944H901.49V48.166ZM909.674 51.928C909.674 51.0187 909.491 50.2267 909.124 49.552C908.757 48.8773 908.259 48.364 907.628 48.012C907.012 47.66 906.33 47.484 905.582 47.484C904.849 47.484 904.167 47.6673 903.536 48.034C902.92 48.386 902.421 48.9067 902.04 49.596C901.673 50.2707 901.49 51.0553 901.49 51.95C901.49 52.8593 901.673 53.6587 902.04 54.348C902.421 55.0227 902.92 55.5433 903.536 55.91C904.167 56.262 904.849 56.438 905.582 56.438C906.33 56.438 907.012 56.262 907.628 55.91C908.259 55.5433 908.757 55.0227 909.124 54.348C909.491 53.6587 909.674 52.852 909.674 51.928ZM913.607 51.928C913.607 50.696 913.856 49.618 914.355 48.694C914.854 47.7553 915.536 47.0293 916.401 46.516C917.281 46.0027 918.256 45.746 919.327 45.746C920.383 45.746 921.3 45.9733 922.077 46.428C922.854 46.8827 923.434 47.4547 923.815 48.144V45.944H925.839V58H923.815V55.756C923.419 56.46 922.825 57.0467 922.033 57.516C921.256 57.9707 920.346 58.198 919.305 58.198C918.234 58.198 917.266 57.934 916.401 57.406C915.536 56.878 914.854 56.1373 914.355 55.184C913.856 54.2307 913.607 53.1453 913.607 51.928ZM923.815 51.95C923.815 51.0407 923.632 50.2487 923.265 49.574C922.898 48.8993 922.4 48.386 921.769 48.034C921.153 47.6673 920.471 47.484 919.723 47.484C918.975 47.484 918.293 47.66 917.677 48.012C917.061 48.364 916.57 48.8773 916.203 49.552C915.836 50.2267 915.653 51.0187 915.653 51.928C915.653 52.852 915.836 53.6587 916.203 54.348C916.57 55.0227 917.061 55.5433 917.677 55.91C918.293 56.262 918.975 56.438 919.723 56.438C920.471 56.438 921.153 56.262 921.769 55.91C922.4 55.5433 922.898 55.0227 923.265 54.348C923.632 53.6587 923.815 52.8593 923.815 51.95ZM931.224 47.902C931.576 47.2127 932.075 46.6773 932.72 46.296C933.38 45.9147 934.18 45.724 935.118 45.724V47.792H934.59C932.346 47.792 931.224 49.0093 931.224 51.444V58H929.222V45.944H931.224V47.902ZM948.429 51.51C948.429 51.8913 948.407 52.2947 948.363 52.72H938.727C938.801 53.908 939.204 54.8393 939.937 55.514C940.685 56.174 941.587 56.504 942.643 56.504C943.509 56.504 944.227 56.306 944.799 55.91C945.386 55.4993 945.797 54.9567 946.031 54.282H948.187C947.865 55.4407 947.219 56.3867 946.251 57.12C945.283 57.8387 944.081 58.198 942.643 58.198C941.499 58.198 940.473 57.9413 939.563 57.428C938.669 56.9147 937.965 56.1887 937.451 55.25C936.938 54.2967 936.681 53.1967 936.681 51.95C936.681 50.7033 936.931 49.6107 937.429 48.672C937.928 47.7333 938.625 47.0147 939.519 46.516C940.429 46.0027 941.47 45.746 942.643 45.746C943.787 45.746 944.799 45.9953 945.679 46.494C946.559 46.9927 947.234 47.682 947.703 48.562C948.187 49.4273 948.429 50.41 948.429 51.51ZM946.361 51.092C946.361 50.3293 946.193 49.6767 945.855 49.134C945.518 48.5767 945.056 48.1587 944.469 47.88C943.897 47.5867 943.259 47.44 942.555 47.44C941.543 47.44 940.678 47.7627 939.959 48.408C939.255 49.0533 938.852 49.948 938.749 51.092H946.361ZM956.189 51.928C956.189 50.696 956.438 49.618 956.937 48.694C957.436 47.7553 958.118 47.0293 958.983 46.516C959.863 46.0027 960.838 45.746 961.909 45.746C962.965 45.746 963.882 45.9733 964.659 46.428C965.436 46.8827 966.016 47.4547 966.397 48.144V45.944H968.421V58H966.397V55.756C966.001 56.46 965.407 57.0467 964.615 57.516C963.838 57.9707 962.928 58.198 961.887 58.198C960.816 58.198 959.848 57.934 958.983 57.406C958.118 56.878 957.436 56.1373 956.937 55.184C956.438 54.2307 956.189 53.1453 956.189 51.928ZM966.397 51.95C966.397 51.0407 966.214 50.2487 965.847 49.574C965.48 48.8993 964.982 48.386 964.351 48.034C963.735 47.6673 963.053 47.484 962.305 47.484C961.557 47.484 960.875 47.66 960.259 48.012C959.643 48.364 959.152 48.8773 958.785 49.552C958.418 50.2267 958.235 51.0187 958.235 51.928C958.235 52.852 958.418 53.6587 958.785 54.348C959.152 55.0227 959.643 55.5433 960.259 55.91C960.875 56.262 961.557 56.438 962.305 56.438C963.053 56.438 963.735 56.262 964.351 55.91C964.982 55.5433 965.48 55.0227 965.847 54.348C966.214 53.6587 966.397 52.8593 966.397 51.95ZM973.806 41.72V58H971.804V41.72H973.806ZM979.22 41.72V58H977.218V41.72H979.22Z" fill="white"/>
</g>
</g>
<defs>
<filter id="filter0_d" x="0" y="0" width="1026" height="430" filterUnits="userSpaceOnUse" color-interpolation-filters="sRGB">
<feFlood flood-opacity="0" result="BackgroundImageFix"/>
<feColorMatrix in="SourceAlpha" type="matrix" values="0 0 0 0 0 0 0 0 0 0 0 0 0 0 0 0 0 0 127 0"/>
<feOffset dy="4"/>
<feGaussianBlur stdDeviation="2"/>
<feColorMatrix type="matrix" values="0 0 0 0 0 0 0 0 0 0 0 0 0 0 0 0 0 0 0.25 0"/>
<feBlend mode="normal" in2="BackgroundImageFix" result="effect1_dropShadow"/>
<feBlend mode="normal" in="SourceGraphic" in2="effect1_dropShadow" result="shape"/>
</filter>
</defs>
</svg>
