<svg width="606" height="422" viewBox="0 0 606 422" fill="none" xmlns="http://www.w3.org/2000/svg">
<g id="units">
<g id="Rectangle 84">
<path d="M0 0H606V422H0V0Z" fill="#F3F3F3"/>
<path d="M0 0H606V422H0V0Z" fill="#F3F3F3"/>
</g>
<rect id="a" x="253.928" y="149" width="46" height="109.049" transform="rotate(90 253.928 149)" fill="#C4C4C4"/>
<rect id="b" x="347.398" y="204" width="46" height="202.519" transform="rotate(90 347.398 204)" fill="#C4C4C4"/>
<rect id="c" x="325.589" y="259" width="46" height="180.71" transform="rotate(90 325.589 259)" fill="#C4C4C4"/>
<path id="Arrow 2" d="M497.305 134.354C497.5 134.158 497.5 133.842 497.305 133.646L494.123 130.464C493.928 130.269 493.611 130.269 493.416 130.464C493.22 130.66 493.22 130.976 493.416 131.172L496.244 134L493.416 136.828C493.22 137.024 493.22 137.34 493.416 137.536C493.611 137.731 493.928 137.731 494.123 137.536L497.305 134.354ZM138.648 134.5L496.951 134.5L496.951 133.5L138.648 133.5L138.648 134.5Z" fill="black"/>
<line id="Line 2" x1="139.148" y1="132" x2="139.148" y2="336" stroke="black"/>
<path id="A" d="M96.5374 176.528H89.2014L88.0254 180H83.0134L90.1254 160.344H95.6694L102.781 180H97.7134L96.5374 176.528ZM95.3054 172.832L92.8694 165.636L90.4614 172.832H95.3054Z" fill="black"/>
<path id="B" d="M96.2014 227.92C97.3401 228.163 98.2548 228.732 98.9454 229.628C99.6361 230.505 99.9814 231.513 99.9814 232.652C99.9814 234.295 99.4028 235.601 98.2454 236.572C97.1068 237.524 95.5108 238 93.4574 238H84.3014V218.344H93.1494C95.1468 218.344 96.7054 218.801 97.8254 219.716C98.9641 220.631 99.5334 221.872 99.5334 223.44C99.5334 224.597 99.2254 225.559 98.6094 226.324C98.0121 227.089 97.2094 227.621 96.2014 227.92ZM89.0894 226.296H92.2254C93.0094 226.296 93.6068 226.128 94.0174 225.792C94.4468 225.437 94.6614 224.924 94.6614 224.252C94.6614 223.58 94.4468 223.067 94.0174 222.712C93.6068 222.357 93.0094 222.18 92.2254 222.18H89.0894V226.296ZM92.6174 234.136C93.4201 234.136 94.0361 233.959 94.4654 233.604C94.9134 233.231 95.1374 232.699 95.1374 232.008C95.1374 231.317 94.9041 230.776 94.4374 230.384C93.9894 229.992 93.3641 229.796 92.5614 229.796H89.0894V234.136H92.6174Z" fill="black"/>
<path id="C" d="M83.4894 280.144C83.4894 278.203 83.9094 276.476 84.7494 274.964C85.5894 273.433 86.7561 272.248 88.2494 271.408C89.7614 270.549 91.4694 270.12 93.3734 270.12C95.7068 270.12 97.7041 270.736 99.3654 271.968C101.027 273.2 102.137 274.88 102.697 277.008H97.4334C97.0414 276.187 96.4814 275.561 95.7534 275.132C95.0441 274.703 94.2321 274.488 93.3174 274.488C91.8428 274.488 90.6481 275.001 89.7334 276.028C88.8188 277.055 88.3614 278.427 88.3614 280.144C88.3614 281.861 88.8188 283.233 89.7334 284.26C90.6481 285.287 91.8428 285.8 93.3174 285.8C94.2321 285.8 95.0441 285.585 95.7534 285.156C96.4814 284.727 97.0414 284.101 97.4334 283.28H102.697C102.137 285.408 101.027 287.088 99.3654 288.32C97.7041 289.533 95.7068 290.14 93.3734 290.14C91.4694 290.14 89.7614 289.72 88.2494 288.88C86.7561 288.021 85.5894 286.836 84.7494 285.324C83.9094 283.812 83.4894 282.085 83.4894 280.144Z" fill="black"/>
<path id="UNITS SOLD" d="M200.44 42.344V54.104C200.44 55.28 200.729 56.1853 201.308 56.82C201.887 57.4547 202.736 57.772 203.856 57.772C204.976 57.772 205.835 57.4547 206.432 56.82C207.029 56.1853 207.328 55.28 207.328 54.104V42.344H212.116V54.076C212.116 55.8307 211.743 57.3147 210.996 58.528C210.249 59.7413 209.241 60.656 207.972 61.272C206.721 61.888 205.321 62.196 203.772 62.196C202.223 62.196 200.832 61.8973 199.6 61.3C198.387 60.684 197.425 59.7693 196.716 58.556C196.007 57.324 195.652 55.8307 195.652 54.076V42.344H200.44ZM233.062 62H228.274L220.266 49.876V62H215.478V42.344H220.266L228.274 54.524V42.344H233.062V62ZM241.321 42.344V62H236.533V42.344H241.321ZM258.931 42.344V46.18H253.723V62H248.935V46.18H243.727V42.344H258.931ZM268.446 62.196C267.008 62.196 265.72 61.9627 264.582 61.496C263.443 61.0293 262.528 60.3387 261.838 59.424C261.166 58.5093 260.811 57.408 260.774 56.12H265.87C265.944 56.848 266.196 57.408 266.626 57.8C267.055 58.1733 267.615 58.36 268.306 58.36C269.015 58.36 269.575 58.2013 269.986 57.884C270.396 57.548 270.602 57.0907 270.602 56.512C270.602 56.0267 270.434 55.6253 270.098 55.308C269.78 54.9907 269.379 54.7293 268.894 54.524C268.427 54.3187 267.755 54.0853 266.878 53.824C265.608 53.432 264.572 53.04 263.77 52.648C262.967 52.256 262.276 51.6773 261.698 50.912C261.119 50.1467 260.83 49.148 260.83 47.916C260.83 46.0867 261.492 44.6587 262.818 43.632C264.143 42.5867 265.87 42.064 267.998 42.064C270.163 42.064 271.908 42.5867 273.234 43.632C274.559 44.6587 275.268 46.096 275.362 47.944H270.182C270.144 47.3093 269.911 46.8147 269.482 46.46C269.052 46.0867 268.502 45.9 267.83 45.9C267.251 45.9 266.784 46.0587 266.43 46.376C266.075 46.6747 265.898 47.1133 265.898 47.692C265.898 48.3267 266.196 48.8213 266.794 49.176C267.391 49.5307 268.324 49.9133 269.594 50.324C270.863 50.7533 271.89 51.164 272.674 51.556C273.476 51.948 274.167 52.5173 274.746 53.264C275.324 54.0107 275.614 54.972 275.614 56.148C275.614 57.268 275.324 58.2853 274.746 59.2C274.186 60.1147 273.364 60.8427 272.282 61.384C271.199 61.9253 269.92 62.196 268.446 62.196ZM291.606 62.196C290.168 62.196 288.88 61.9627 287.742 61.496C286.603 61.0293 285.688 60.3387 284.998 59.424C284.326 58.5093 283.971 57.408 283.934 56.12H289.03C289.104 56.848 289.356 57.408 289.786 57.8C290.215 58.1733 290.775 58.36 291.466 58.36C292.175 58.36 292.735 58.2013 293.146 57.884C293.556 57.548 293.762 57.0907 293.762 56.512C293.762 56.0267 293.594 55.6253 293.258 55.308C292.94 54.9907 292.539 54.7293 292.054 54.524C291.587 54.3187 290.915 54.0853 290.038 53.824C288.768 53.432 287.732 53.04 286.93 52.648C286.127 52.256 285.436 51.6773 284.858 50.912C284.279 50.1467 283.99 49.148 283.99 47.916C283.99 46.0867 284.652 44.6587 285.978 43.632C287.303 42.5867 289.03 42.064 291.158 42.064C293.323 42.064 295.068 42.5867 296.394 43.632C297.719 44.6587 298.428 46.096 298.522 47.944H293.342C293.304 47.3093 293.071 46.8147 292.642 46.46C292.212 46.0867 291.662 45.9 290.99 45.9C290.411 45.9 289.944 46.0587 289.59 46.376C289.235 46.6747 289.058 47.1133 289.058 47.692C289.058 48.3267 289.356 48.8213 289.954 49.176C290.551 49.5307 291.484 49.9133 292.754 50.324C294.023 50.7533 295.05 51.164 295.834 51.556C296.636 51.948 297.327 52.5173 297.906 53.264C298.484 54.0107 298.774 54.972 298.774 56.148C298.774 57.268 298.484 58.2853 297.906 59.2C297.346 60.1147 296.524 60.8427 295.442 61.384C294.359 61.9253 293.08 62.196 291.606 62.196ZM311.016 62.196C309.168 62.196 307.47 61.7667 305.92 60.908C304.39 60.0493 303.167 58.8547 302.252 57.324C301.356 55.7747 300.908 54.0387 300.908 52.116C300.908 50.1933 301.356 48.4667 302.252 46.936C303.167 45.4053 304.39 44.2107 305.92 43.352C307.47 42.4933 309.168 42.064 311.016 42.064C312.864 42.064 314.554 42.4933 316.084 43.352C317.634 44.2107 318.847 45.4053 319.724 46.936C320.62 48.4667 321.068 50.1933 321.068 52.116C321.068 54.0387 320.62 55.7747 319.724 57.324C318.828 58.8547 317.615 60.0493 316.084 60.908C314.554 61.7667 312.864 62.196 311.016 62.196ZM311.016 57.828C312.584 57.828 313.835 57.3053 314.768 56.26C315.72 55.2147 316.196 53.8333 316.196 52.116C316.196 50.38 315.72 48.9987 314.768 47.972C313.835 46.9267 312.584 46.404 311.016 46.404C309.43 46.404 308.16 46.9173 307.208 47.944C306.275 48.9707 305.808 50.3613 305.808 52.116C305.808 53.852 306.275 55.2427 307.208 56.288C308.16 57.3147 309.43 57.828 311.016 57.828ZM328.52 58.304H334.792V62H323.732V42.344H328.52V58.304ZM344.44 42.344C346.512 42.344 348.323 42.7547 349.872 43.576C351.421 44.3973 352.616 45.5547 353.456 47.048C354.315 48.5227 354.744 50.2307 354.744 52.172C354.744 54.0947 354.315 55.8027 353.456 57.296C352.616 58.7893 351.412 59.9467 349.844 60.768C348.295 61.5893 346.493 62 344.44 62H337.076V42.344H344.44ZM344.132 57.856C345.943 57.856 347.352 57.3613 348.36 56.372C349.368 55.3827 349.872 53.9827 349.872 52.172C349.872 50.3613 349.368 48.952 348.36 47.944C347.352 46.936 345.943 46.432 344.132 46.432H341.864V57.856H344.132Z" fill="black"/>
</g>
</svg>
