<svg width="614" height="430" viewBox="0 0 614 430" fill="none" xmlns="http://www.w3.org/2000/svg">
<g id="Group 5">
<g id="Rectangle 84" filter="url(#filter0_d)">
<path d="M4 0H610V422H4V0Z" fill="#F3F3F3"/>
<path d="M4 0H610V422H4V0Z" fill="#F3F3F3"/>
</g>
<rect id="a" x="257.928" y="149" width="46" height="109.049" transform="rotate(90 257.928 149)" fill="#C4C4C4"/>
<rect id="b" x="351.398" y="204" width="46" height="202.519" transform="rotate(90 351.398 204)" fill="#C4C4C4"/>
<rect id="c" x="329.589" y="259" width="46" height="180.71" transform="rotate(90 329.589 259)" fill="#C4C4C4"/>
<path id="Arrow 2" d="M501.305 134.354C501.5 134.158 501.5 133.842 501.305 133.646L498.123 130.464C497.928 130.269 497.611 130.269 497.416 130.464C497.22 130.66 497.22 130.976 497.416 131.172L500.244 134L497.416 136.828C497.22 137.024 497.22 137.34 497.416 137.536C497.611 137.731 497.928 137.731 498.123 137.536L501.305 134.354ZM142.648 134.5L500.951 134.5L500.951 133.5L142.648 133.5L142.648 134.5Z" fill="black"/>
<line id="Line 2" x1="143.148" y1="132" x2="143.148" y2="336" stroke="black"/>
<path id="A" d="M100.537 176.528H93.2014L92.0254 180H87.0134L94.1254 160.344H99.6694L106.781 180H101.713L100.537 176.528ZM99.3054 172.832L96.8694 165.636L94.4614 172.832H99.3054Z" fill="black"/>
<path id="B" d="M100.201 227.92C101.34 228.163 102.255 228.732 102.945 229.628C103.636 230.505 103.981 231.513 103.981 232.652C103.981 234.295 103.403 235.601 102.245 236.572C101.107 237.524 99.5108 238 97.4574 238H88.3014V218.344H97.1494C99.1468 218.344 100.705 218.801 101.825 219.716C102.964 220.631 103.533 221.872 103.533 223.44C103.533 224.597 103.225 225.559 102.609 226.324C102.012 227.089 101.209 227.621 100.201 227.92ZM93.0894 226.296H96.2254C97.0094 226.296 97.6068 226.128 98.0174 225.792C98.4468 225.437 98.6614 224.924 98.6614 224.252C98.6614 223.58 98.4468 223.067 98.0174 222.712C97.6068 222.357 97.0094 222.18 96.2254 222.18H93.0894V226.296ZM96.6174 234.136C97.4201 234.136 98.0361 233.959 98.4654 233.604C98.9134 233.231 99.1374 232.699 99.1374 232.008C99.1374 231.317 98.9041 230.776 98.4374 230.384C97.9894 229.992 97.3641 229.796 96.5614 229.796H93.0894V234.136H96.6174Z" fill="black"/>
<path id="C" d="M87.4894 280.144C87.4894 278.203 87.9094 276.476 88.7494 274.964C89.5894 273.433 90.7561 272.248 92.2494 271.408C93.7614 270.549 95.4694 270.12 97.3734 270.12C99.7068 270.12 101.704 270.736 103.365 271.968C105.027 273.2 106.137 274.88 106.697 277.008H101.433C101.041 276.187 100.481 275.561 99.7534 275.132C99.0441 274.703 98.2321 274.488 97.3174 274.488C95.8428 274.488 94.6481 275.001 93.7334 276.028C92.8188 277.055 92.3614 278.427 92.3614 280.144C92.3614 281.861 92.8188 283.233 93.7334 284.26C94.6481 285.287 95.8428 285.8 97.3174 285.8C98.2321 285.8 99.0441 285.585 99.7534 285.156C100.481 284.727 101.041 284.101 101.433 283.28H106.697C106.137 285.408 105.027 287.088 103.365 288.32C101.704 289.533 99.7068 290.14 97.3734 290.14C95.4694 290.14 93.7614 289.72 92.2494 288.88C90.7561 288.021 89.5894 286.836 88.7494 285.324C87.9094 283.812 87.4894 282.085 87.4894 280.144Z" fill="black"/>
<path id="UNITS SOLD" d="M204.44 42.344V54.104C204.44 55.28 204.729 56.1853 205.308 56.82C205.887 57.4547 206.736 57.772 207.856 57.772C208.976 57.772 209.835 57.4547 210.432 56.82C211.029 56.1853 211.328 55.28 211.328 54.104V42.344H216.116V54.076C216.116 55.8307 215.743 57.3147 214.996 58.528C214.249 59.7413 213.241 60.656 211.972 61.272C210.721 61.888 209.321 62.196 207.772 62.196C206.223 62.196 204.832 61.8973 203.6 61.3C202.387 60.684 201.425 59.7693 200.716 58.556C200.007 57.324 199.652 55.8307 199.652 54.076V42.344H204.44ZM237.062 62H232.274L224.266 49.876V62H219.478V42.344H224.266L232.274 54.524V42.344H237.062V62ZM245.321 42.344V62H240.533V42.344H245.321ZM262.931 42.344V46.18H257.723V62H252.935V46.18H247.727V42.344H262.931ZM272.446 62.196C271.008 62.196 269.72 61.9627 268.582 61.496C267.443 61.0293 266.528 60.3387 265.838 59.424C265.166 58.5093 264.811 57.408 264.774 56.12H269.87C269.944 56.848 270.196 57.408 270.626 57.8C271.055 58.1733 271.615 58.36 272.306 58.36C273.015 58.36 273.575 58.2013 273.986 57.884C274.396 57.548 274.602 57.0907 274.602 56.512C274.602 56.0267 274.434 55.6253 274.098 55.308C273.78 54.9907 273.379 54.7293 272.894 54.524C272.427 54.3187 271.755 54.0853 270.878 53.824C269.608 53.432 268.572 53.04 267.77 52.648C266.967 52.256 266.276 51.6773 265.698 50.912C265.119 50.1467 264.83 49.148 264.83 47.916C264.83 46.0867 265.492 44.6587 266.818 43.632C268.143 42.5867 269.87 42.064 271.998 42.064C274.163 42.064 275.908 42.5867 277.234 43.632C278.559 44.6587 279.268 46.096 279.362 47.944H274.182C274.144 47.3093 273.911 46.8147 273.482 46.46C273.052 46.0867 272.502 45.9 271.83 45.9C271.251 45.9 270.784 46.0587 270.43 46.376C270.075 46.6747 269.898 47.1133 269.898 47.692C269.898 48.3267 270.196 48.8213 270.794 49.176C271.391 49.5307 272.324 49.9133 273.594 50.324C274.863 50.7533 275.89 51.164 276.674 51.556C277.476 51.948 278.167 52.5173 278.746 53.264C279.324 54.0107 279.614 54.972 279.614 56.148C279.614 57.268 279.324 58.2853 278.746 59.2C278.186 60.1147 277.364 60.8427 276.282 61.384C275.199 61.9253 273.92 62.196 272.446 62.196ZM295.606 62.196C294.168 62.196 292.88 61.9627 291.742 61.496C290.603 61.0293 289.688 60.3387 288.998 59.424C288.326 58.5093 287.971 57.408 287.934 56.12H293.03C293.104 56.848 293.356 57.408 293.786 57.8C294.215 58.1733 294.775 58.36 295.466 58.36C296.175 58.36 296.735 58.2013 297.146 57.884C297.556 57.548 297.762 57.0907 297.762 56.512C297.762 56.0267 297.594 55.6253 297.258 55.308C296.94 54.9907 296.539 54.7293 296.054 54.524C295.587 54.3187 294.915 54.0853 294.038 53.824C292.768 53.432 291.732 53.04 290.93 52.648C290.127 52.256 289.436 51.6773 288.858 50.912C288.279 50.1467 287.99 49.148 287.99 47.916C287.99 46.0867 288.652 44.6587 289.978 43.632C291.303 42.5867 293.03 42.064 295.158 42.064C297.323 42.064 299.068 42.5867 300.394 43.632C301.719 44.6587 302.428 46.096 302.522 47.944H297.342C297.304 47.3093 297.071 46.8147 296.642 46.46C296.212 46.0867 295.662 45.9 294.99 45.9C294.411 45.9 293.944 46.0587 293.59 46.376C293.235 46.6747 293.058 47.1133 293.058 47.692C293.058 48.3267 293.356 48.8213 293.954 49.176C294.551 49.5307 295.484 49.9133 296.754 50.324C298.023 50.7533 299.05 51.164 299.834 51.556C300.636 51.948 301.327 52.5173 301.906 53.264C302.484 54.0107 302.774 54.972 302.774 56.148C302.774 57.268 302.484 58.2853 301.906 59.2C301.346 60.1147 300.524 60.8427 299.442 61.384C298.359 61.9253 297.08 62.196 295.606 62.196ZM315.016 62.196C313.168 62.196 311.47 61.7667 309.92 60.908C308.39 60.0493 307.167 58.8547 306.252 57.324C305.356 55.7747 304.908 54.0387 304.908 52.116C304.908 50.1933 305.356 48.4667 306.252 46.936C307.167 45.4053 308.39 44.2107 309.92 43.352C311.47 42.4933 313.168 42.064 315.016 42.064C316.864 42.064 318.554 42.4933 320.084 43.352C321.634 44.2107 322.847 45.4053 323.724 46.936C324.62 48.4667 325.068 50.1933 325.068 52.116C325.068 54.0387 324.62 55.7747 323.724 57.324C322.828 58.8547 321.615 60.0493 320.084 60.908C318.554 61.7667 316.864 62.196 315.016 62.196ZM315.016 57.828C316.584 57.828 317.835 57.3053 318.768 56.26C319.72 55.2147 320.196 53.8333 320.196 52.116C320.196 50.38 319.72 48.9987 318.768 47.972C317.835 46.9267 316.584 46.404 315.016 46.404C313.43 46.404 312.16 46.9173 311.208 47.944C310.275 48.9707 309.808 50.3613 309.808 52.116C309.808 53.852 310.275 55.2427 311.208 56.288C312.16 57.3147 313.43 57.828 315.016 57.828ZM332.52 58.304H338.792V62H327.732V42.344H332.52V58.304ZM348.44 42.344C350.512 42.344 352.323 42.7547 353.872 43.576C355.421 44.3973 356.616 45.5547 357.456 47.048C358.315 48.5227 358.744 50.2307 358.744 52.172C358.744 54.0947 358.315 55.8027 357.456 57.296C356.616 58.7893 355.412 59.9467 353.844 60.768C352.295 61.5893 350.493 62 348.44 62H341.076V42.344H348.44ZM348.132 57.856C349.943 57.856 351.352 57.3613 352.36 56.372C353.368 55.3827 353.872 53.9827 353.872 52.172C353.872 50.3613 353.368 48.952 352.36 47.944C351.352 46.936 349.943 46.432 348.132 46.432H345.864V57.856H348.132Z" fill="black"/>
</g>
<defs>
<filter id="filter0_d" x="0" y="0" width="614" height="430" filterUnits="userSpaceOnUse" color-interpolation-filters="sRGB">
<feFlood flood-opacity="0" result="BackgroundImageFix"/>
<feColorMatrix in="SourceAlpha" type="matrix" values="0 0 0 0 0 0 0 0 0 0 0 0 0 0 0 0 0 0 127 0"/>
<feOffset dy="4"/>
<feGaussianBlur stdDeviation="2"/>
<feColorMatrix type="matrix" values="0 0 0 0 0 0 0 0 0 0 0 0 0 0 0 0 0 0 0.25 0"/>
<feBlend mode="normal" in2="BackgroundImageFix" result="effect1_dropShadow"/>
<feBlend mode="normal" in="SourceGraphic" in2="effect1_dropShadow" result="shape"/>
</filter>
</defs>
</svg>
