<svg width="318" height="247" viewBox="0 0 318 247" fill="none" xmlns="http://www.w3.org/2000/svg">
<g id="dog 1" clip-path="url(#clip0)">
<g id="Vector">
<path d="M238.19 195C240.044 197.005 242.392 198.488 245 199.3L249.9 200.9C250.448 201.079 250.953 201.372 251.378 201.761C251.804 202.15 252.142 202.626 252.369 203.156C252.597 203.686 252.708 204.259 252.696 204.836C252.684 205.412 252.549 205.98 252.3 206.5L247 217.3C246.791 217.706 246.522 218.077 246.2 218.4L242.4 222.2C241.861 222.747 241.491 223.437 241.334 224.188C241.177 224.939 241.239 225.72 241.513 226.436C241.787 227.153 242.261 227.776 242.88 228.231C243.498 228.685 244.234 228.952 245 229H245.1L256.7 229.3C257.33 229.3 257.954 229.176 258.537 228.935C259.119 228.693 259.648 228.34 260.094 227.894C260.54 227.448 260.893 226.919 261.135 226.337C261.376 225.755 261.5 225.13 261.5 224.5L268.1 194.4C268.312 193.328 268.097 192.216 267.5 191.3L266.83 190.3" fill="black"/>
<path d="M238.19 195C240.044 197.005 242.392 198.488 245 199.3L249.9 200.9C250.448 201.079 250.953 201.372 251.378 201.761C251.804 202.15 252.142 202.626 252.369 203.156C252.597 203.686 252.708 204.259 252.696 204.836C252.684 205.412 252.549 205.98 252.3 206.5L247 217.3C246.791 217.706 246.522 218.077 246.2 218.4L242.4 222.2C241.861 222.747 241.491 223.437 241.334 224.188C241.177 224.939 241.239 225.72 241.513 226.436C241.787 227.153 242.261 227.776 242.88 228.231C243.498 228.685 244.234 228.952 245 229H245.1L256.7 229.3C257.33 229.3 257.954 229.176 258.537 228.935C259.119 228.693 259.648 228.34 260.094 227.894C260.54 227.448 260.893 226.919 261.135 226.337C261.376 225.755 261.5 225.13 261.5 224.5L268.1 194.4C268.312 193.328 268.097 192.216 267.5 191.3L266.83 190.3" stroke="white" stroke-miterlimit="10"/>
</g>
<path id="Vector_2" d="M127.73 176.7L131.13 225.9C131.234 227.099 131.027 228.304 130.53 229.4C128.33 234 122.13 246.7 118.43 246.7H104.23C98.4299 246.2 95.8299 239.2 99.5299 234.8L107.53 225.2C108.252 224.339 108.763 223.321 109.024 222.227C109.284 221.134 109.286 219.995 109.03 218.9L96.7299 164.9C96.5402 164.067 96.4995 163.207 96.6099 162.36C96.6099 162.36 100.28 169.53 106.87 172.47C114.85 176 127.73 176.7 127.73 176.7Z" fill="black"/>
<path id="body" d="M177.7 113.84C154.1 113.84 113.75 96.0001 113.75 96.0001C85.8501 96.0001 89.4501 79.1001 89.4501 107.1C89.4501 145.5 88.4501 176.7 126.85 176.7H154.05C154.925 176.701 155.777 176.984 156.479 177.506C157.181 178.028 157.697 178.762 157.95 179.6L170.85 222.6C171.049 223.233 171.079 223.907 170.939 224.556C170.799 225.204 170.493 225.805 170.05 226.3L158.55 240.1C158.164 240.551 157.883 241.082 157.728 241.654C157.573 242.227 157.547 242.827 157.652 243.411C157.758 243.995 157.991 244.548 158.337 245.031C158.683 245.513 159.131 245.912 159.65 246.2C160.305 246.518 161.022 246.688 161.75 246.7H182.45C184.75 246.7 191.25 229.8 192.85 225.5C193.069 224.858 193.138 224.173 193.05 223.5L188.35 191.8C188.231 191.085 188.308 190.35 188.574 189.676C188.84 189.001 189.284 188.411 189.859 187.969C190.435 187.528 191.119 187.251 191.84 187.168C192.56 187.085 193.29 187.2 193.95 187.5C204.75 192.3 218.75 195.1 234.05 195.1C251.45 195.1 267.15 191.4 278.25 185.5C278.777 185.205 279.364 185.034 279.967 184.998C280.57 184.963 281.173 185.065 281.731 185.296C282.289 185.526 282.788 185.881 283.189 186.332C283.591 186.783 283.885 187.319 284.05 187.9L284.35 189.1C285.065 191.642 286.398 193.968 288.23 195.87C290.062 197.772 292.336 199.191 294.85 200L299.75 201.6C302.05 202.4 296.35 218.8 296.05 219.1L292.25 222.9C291.711 223.447 291.341 224.137 291.184 224.888C291.027 225.639 291.089 226.42 291.363 227.136C291.637 227.853 292.111 228.476 292.73 228.931C293.348 229.385 294.084 229.652 294.85 229.7H294.95L306.55 230C307.18 230 307.805 229.876 308.387 229.635C308.969 229.393 309.498 229.04 309.944 228.594C310.39 228.148 310.743 227.619 310.985 227.037C311.226 226.455 311.35 225.83 311.35 225.2L317.95 195.1C318.08 194.39 317.65 188.86 313.02 186.94C309.02 185.28 310.17 175.5 311.25 165.8C314.25 138.49 308.93 101.42 265.93 101.42C241 101.32 201.3 113.84 177.7 113.84Z" fill="#FFEBC3"/>
<path id="back" d="M265.93 101.42C241.03 101.32 201.3 113.84 177.7 113.84C154.1 113.84 113.75 96.0001 113.75 96.0001C85.8501 96.0001 89.4501 79.1001 89.4501 107.1C89.4501 127.03 89.1801 145.02 94.2901 157.72C103.96 152.18 111.78 145.2 117.04 137.26C132.36 152.11 157.7 161.82 186.38 161.82C207.13 161.82 226.13 156.74 240.86 148.31C256.39 160.74 279.53 168.64 305.4 168.64C307.24 168.64 310.88 168.5 310.88 168.5C315.26 140.33 308.93 101.42 265.93 101.42Z" fill="#A6AD00"/>
<path id="tummy" d="M194.22 187C194.22 187 207.79 194.35 233.29 194.65C261.17 194.99 276.96 185.65 276.96 185.65C272.759 182.922 268.383 180.473 263.86 178.32C252.982 173.037 240.838 170.92 228.814 172.209C216.79 173.498 205.371 178.142 195.86 185.61L194.22 187Z" fill="black"/>
<path id="Vector_3" d="M83 103.7V16.5C83 7.4 76.3 0.5 68 0.5H55.05C46.75 0.5 38.85 7.4 37.25 16.5L22.35 103.7C19.35 121 27.15 136.3 39.95 136.3H59.75C72.55 136.3 83 121 83 103.7Z" fill="black" stroke="black"/>
<path id="Vector_4" d="M125.75 0.5H75.55C65.8961 0.5 56.6376 4.33499 49.8113 11.1613C42.985 17.9876 39.15 27.2461 39.15 36.9V42.6C39.15 44.9 39.25 47.1 39.45 49.3H21.2C18.4809 49.2974 15.788 49.831 13.2754 50.8703C10.7627 51.9097 8.47973 53.4343 6.55703 55.357C4.63434 57.2797 3.10969 59.5627 2.07034 62.0753C1.031 64.588 0.497379 67.2809 0.50001 70V81.5C0.510581 86.9867 2.69486 92.2457 6.57458 96.1254C10.4543 100.005 15.7133 102.189 21.2 102.2H68.25C81.5567 112.595 97.9644 118.229 114.85 118.2H125.75C129.033 118.2 132.284 117.553 135.317 116.297C138.35 115.041 141.106 113.199 143.428 110.878C145.749 108.556 147.591 105.8 148.847 102.767C150.103 99.7339 150.75 96.483 150.75 93.2V25.4C150.724 18.7869 148.078 12.4537 143.392 7.78694C138.707 3.12014 132.363 0.499947 125.75 0.5Z" fill="#A6AD00"/>
<path id="Vector_5" d="M113.85 103.7V16.5C113.85 7.4 120.55 0.5 128.85 0.5H141.75C150.05 0.5 157.95 7.4 159.55 16.5L174.45 103.7C177.45 121 169.65 136.3 156.85 136.3H137.05C124.25 136.3 113.85 121 113.85 103.7Z" fill="black" stroke="black"/>
<path id="Nose" d="M0.500122 70.0001V77.6001C4.08836 82.8606 9.26783 86.833 15.2788 88.9345C21.2899 91.0359 27.8161 91.156 33.9004 89.2771C39.9846 87.3981 45.3067 83.619 49.086 78.494C52.8653 73.369 54.903 67.1679 54.9001 60.8001C54.9111 56.8838 54.1287 53.0058 52.6001 49.4001H21.2001C18.4839 49.3776 15.7902 49.8943 13.2752 50.9204C10.7601 51.9464 8.47365 53.4613 6.54829 55.3774C4.62293 57.2935 3.09694 59.5726 2.05874 62.0826C1.02054 64.5927 0.490767 67.2838 0.500122 70.0001Z" fill="black" stroke="black"/>
<g id="Nose_2">
<path d="M63.35 49.3999H32H63.35Z" fill="black"/>
<path d="M63.35 49.3999H32" stroke="black"/>
</g>
<path id="Nose_3" d="M52.4501 90.6001C52.4501 90.6001 43.8001 98.3201 24.7001 98.3201C17.7001 98.3201 9.4901 95.9501 5.1001 94.4801" stroke="black"/>
<path id="Vector_6" d="M61.49 44.6799C70.3265 44.6799 77.49 37.5165 77.49 28.6799C77.49 19.8434 70.3265 12.6799 61.49 12.6799C52.6534 12.6799 45.49 19.8434 45.49 28.6799C45.49 37.5165 52.6534 44.6799 61.49 44.6799Z" fill="white"/>
<path id="Vector_7" d="M59.57 42.7701C67.3517 42.7701 73.66 36.4618 73.66 28.6801C73.66 20.8984 67.3517 14.5901 59.57 14.5901C51.7883 14.5901 45.48 20.8984 45.48 28.6801C45.48 36.4618 51.7883 42.7701 59.57 42.7701Z" fill="black" stroke="black"/>
<path id="Vector_8" d="M94.3501 57.6899C103.187 57.6899 110.35 50.5265 110.35 41.6899C110.35 32.8534 103.187 25.6899 94.3501 25.6899C85.5135 25.6899 78.3501 32.8534 78.3501 41.6899C78.3501 50.5265 85.5135 57.6899 94.3501 57.6899Z" fill="white"/>
<path id="Vector_9" d="M92.4401 55.7801C100.222 55.7801 106.53 49.4718 106.53 41.6901C106.53 33.9084 100.222 27.6001 92.4401 27.6001C84.6584 27.6001 78.3501 33.9084 78.3501 41.6901C78.3501 49.4718 84.6584 55.7801 92.4401 55.7801Z" fill="black" stroke="black"/>
</g>
<defs>
<clipPath id="clip0">
<rect width="317.97" height="246.7" fill="white"/>
</clipPath>
</defs>
</svg>
